Palanquin Light.ufo
<glyph name="ampersand" format="1">
  <advance width="681"/>
  <unicode hex="0026"/>
  <outline>
    <contour>
      <point x="566" y="339" type="line"/>
      <point x="561" y="268"/>
      <point x="546" y="206"/>
      <point x="519" y="156" type="curve"/>
      <point x="309" y="354" type="line" smooth="yes"/>
      <point x="239" y="419"/>
      <point x="202" y="454"/>
      <point x="202" y="526" type="curve" smooth="yes"/>
      <point x="202" y="585"/>
      <point x="249" y="644"/>
      <point x="324" y="644" type="curve" smooth="yes"/>
      <point x="394" y="644"/>
      <point x="419" y="626"/>
      <point x="453" y="610" type="curve"/>
      <point x="475" y="657" type="line"/>
      <point x="435" y="677"/>
      <point x="391" y="696"/>
      <point x="324" y="696" type="curve" smooth="yes"/>
      <point x="206" y="696"/>
      <point x="143" y="615"/>
      <point x="143" y="520" type="curve" smooth="yes"/>
      <point x="143" y="476"/>
      <point x="154" y="444"/>
      <point x="174" y="415" type="curve"/>
      <point x="109" y="375"/>
      <point x="64" y="298"/>
      <point x="62" y="207" type="curve"/>
      <point x="62" y="62"/>
      <point x="173" y="-11"/>
      <point x="316" y="-13" type="curve"/>
      <point x="417" y="-13"/>
      <point x="486" y="20"/>
      <point x="533" y="75" type="curve"/>
      <point x="616" y="0" type="line"/>
      <point x="645" y="41" type="line"/>
      <point x="562" y="118" type="line"/>
      <point x="593" y="173"/>
      <point x="608" y="241"/>
      <point x="612" y="321" type="curve"/>
    </contour>
    <contour>
      <point x="491" y="115" type="line"/>
      <point x="451" y="66"/>
      <point x="392" y="39"/>
      <point x="316" y="39" type="curve" smooth="yes"/>
      <point x="219" y="39"/>
      <point x="124" y="91"/>
      <point x="124" y="209" type="curve"/>
      <point x="126" y="284"/>
      <point x="154" y="346"/>
      <point x="207" y="375" type="curve"/>
      <point x="226" y="356"/>
      <point x="250" y="335"/>
      <point x="276" y="310" type="curve"/>
    </contour>
  </outline>
</glyph>
<glyph name="parenleft" format="1">
  <advance width="239"/>
  <unicode hex="0028"/>
  <outline>
    <contour>
      <point x="52" y="213"/>
      <point x="87" y="71"/>
      <point x="171" y="-37" type="curve"/>
      <point x="223" y="-19" type="line"/>
      <point x="164" y="43"/>
      <point x="115" y="223"/>
      <point x="115" y="321" type="curve" smooth="yes"/>
      <point x="115" y="417"/>
      <point x="164" y="594"/>
      <point x="223" y="657" type="curve"/>
      <point x="171" y="675" type="line"/>
      <point x="87" y="568"/>
      <point x="52" y="426"/>
      <point x="52" y="320" type="curve" smooth="yes"/>
    </contour>
  </outline>
</glyph>
<glyph name="asterisk" format="1">
  <advance width="330"/>
  <unicode hex="002A"/>
  <outline>
    <contour>
      <point x="190" y="659" type="line"/>
      <point x="189" y="774" type="line"/>
      <point x="141" y="774" type="line"/>
      <point x="140" y="659" type="line"/>
      <point x="18" y="685" type="line"/>
      <point x="6" y="646" type="line"/>
      <point x="129" y="622" type="line"/>
      <point x="42" y="498" type="line"/>
      <point x="78" y="472" type="line"/>
      <point x="166" y="590" type="line"/>
      <point x="253" y="472" type="line"/>
      <point x="288" y="498" type="line"/>
      <point x="202" y="622" type="line"/>
      <point x="325" y="646" type="line"/>
      <point x="312" y="685" type="line"/>
    </contour>
  </outline>
</glyph>
<glyph name="period" format="1">
  <advance width="127"/>
  <unicode hex="002E"/>
  <outline>
    <contour>
      <point x="111" y="74"/>
      <point x="90" y="94"/>
      <point x="64" y="94" type="curve" smooth="yes"/>
      <point x="37" y="94"/>
      <point x="16" y="74"/>
      <point x="16" y="48" type="curve" smooth="yes"/>
      <point x="16" y="21"/>
      <point x="37" y="0"/>
      <point x="64" y="0" type="curve" smooth="yes"/>
      <point x="90" y="0"/>
      <point x="111" y="21"/>
      <point x="111" y="48" type="curve"/>
    </contour>
  </outline>
</glyph>
<glyph name="zero" format="1">
  <advance width="603"/>
  <unicode hex="0030"/>
  <outline>
    <contour>
      <point x="157" y="579"/>
      <point x="62" y="469"/>
      <point x="62" y="288" type="curve" smooth="yes"/>
      <point x="62" y="102"/>
      <point x="160" y="-13"/>
      <point x="302" y="-13" type="curve"/>
      <point x="441" y="-13"/>
      <point x="540" y="107"/>
      <point x="540" y="289" type="curve" smooth="yes"/>
      <point x="540" y="475"/>
      <point x="447" y="579"/>
      <point x="302" y="579" type="curve"/>
    </contour>
    <contour>
      <point x="199" y="41"/>
      <point x="127" y="134"/>
      <point x="127" y="291" type="curve" smooth="yes"/>
      <point x="127" y="440"/>
      <point x="200" y="526"/>
      <point x="302" y="526" type="curve"/>
      <point x="405" y="526"/>
      <point x="475" y="441"/>
      <point x="475" y="286" type="curve" smooth="yes"/>
      <point x="475" y="136"/>
      <point x="401" y="41"/>
      <point x="302" y="41" type="curve"/>
    </contour>
  </outline>
</glyph>
<glyph name="one" format="1">
  <advance width="380"/>
  <unicode hex="0031"/>
  <outline>
    <contour>
      <point x="327" y="0" type="line"/>
      <point x="320" y="50" type="line"/>
      <point x="232" y="50" type="line"/>
      <point x="232" y="566" type="line"/>
      <point x="190" y="566" type="line"/>
      <point x="65" y="481" type="line"/>
      <point x="94" y="438" type="line"/>
      <point x="169" y="489" type="line"/>
      <point x="169" y="50" type="line"/>
      <point x="62" y="50" type="line"/>
      <point x="71" y="0" type="line"/>
    </contour>
  </outline>
</glyph>
<glyph name="three" format="1">
  <advance width="510"/>
  <unicode hex="0033"/>
  <outline>
    <contour>
      <point x="435" y="502"/>
      <point x="370" y="579"/>
      <point x="236" y="579" type="curve" smooth="yes"/>
      <point x="156" y="579"/>
      <point x="94" y="553"/>
      <point x="42" y="520" type="curve"/>
      <point x="73" y="479" type="line"/>
      <point x="105" y="500"/>
      <point x="160" y="528"/>
      <point x="233" y="528" type="curve" smooth="yes"/>
      <point x="318" y="528"/>
      <point x="370" y="475"/>
      <point x="370" y="416" type="curve"/>
      <point x="370" y="339"/>
      <point x="303" y="289"/>
      <point x="191" y="289" type="curve" smooth="yes"/>
      <point x="157" y="289" type="line"/>
      <point x="167" y="244" type="line"/>
      <point x="185" y="244" type="line" smooth="yes"/>
      <point x="324" y="244"/>
      <point x="382" y="190"/>
      <point x="382" y="104" type="curve" smooth="yes"/>
      <point x="382" y="22"/>
      <point x="304" y="-25"/>
      <point x="224" y="-25" type="curve" smooth="yes"/>
      <point x="150" y="-25"/>
      <point x="111" y="-8"/>
      <point x="64" y="20" type="curve"/>
      <point x="31" y="-24" type="line"/>
      <point x="77" y="-49"/>
      <point x="146" y="-76"/>
      <point x="221" y="-76" type="curve" smooth="yes"/>
      <point x="360" y="-76"/>
      <point x="447" y="3"/>
      <point x="447" y="106" type="curve" smooth="yes"/>
      <point x="447" y="188"/>
      <point x="396" y="250"/>
      <point x="321" y="268" type="curve"/>
      <point x="384" y="288"/>
      <point x="435" y="344"/>
      <point x="435" y="417" type="curve" smooth="yes"/>
    </contour>
  </outline>
</glyph>
<glyph name="four" format="1">
  <advance width="544"/>
  <unicode hex="0034"/>
  <outline>
    <contour>
      <point x="505" y="74" type="line"/>
      <point x="513" y="125" type="line"/>
      <point x="409" y="125" type="line"/>
      <point x="409" y="571" type="line"/>
      <point x="368" y="571" type="line"/>
      <point x="31" y="125" type="line"/>
      <point x="40" y="74" type="line"/>
      <point x="347" y="74" type="line"/>
      <point x="347" y="-69" type="line"/>
      <point x="409" y="-69" type="line"/>
      <point x="409" y="74" type="line"/>
    </contour>
    <contour>
      <point x="98" y="125" type="line"/>
      <point x="347" y="456" type="line"/>
      <point x="347" y="125" type="line"/>
    </contour>
  </outline>
</glyph>
<glyph name="five" format="1">
  <advance width="535"/>
  <unicode hex="0035"/>
  <outline>
    <contour>
      <point x="85" y="230" type="line"/>
      <point x="148" y="230" type="line"/>
      <point x="169" y="248"/>
      <point x="214" y="279"/>
      <point x="268" y="279" type="curve" smooth="yes"/>
      <point x="350" y="279"/>
      <point x="406" y="227"/>
      <point x="406" y="130" type="curve" smooth="yes"/>
      <point x="406" y="34"/>
      <point x="343" y="-25"/>
      <point x="245" y="-25" type="curve" smooth="yes"/>
      <point x="172" y="-25"/>
      <point x="132" y="-8"/>
      <point x="85" y="20" type="curve"/>
      <point x="52" y="-24" type="line"/>
      <point x="99" y="-49"/>
      <point x="167" y="-76"/>
      <point x="241" y="-76" type="curve" smooth="yes"/>
      <point x="393" y="-76"/>
      <point x="472" y="19"/>
      <point x="472" y="130" type="curve"/>
      <point x="471" y="239"/>
      <point x="412" y="330"/>
      <point x="264" y="330" type="curve" smooth="yes"/>
      <point x="226" y="330"/>
      <point x="185" y="316"/>
      <point x="150" y="293" type="curve"/>
      <point x="160" y="514" type="line"/>
      <point x="425" y="514" type="line"/>
      <point x="433" y="566" type="line"/>
      <point x="100" y="566" type="line"/>
    </contour>
  </outline>
</glyph>
<glyph name="seven" format="1">
  <advance width="482"/>
  <unicode hex="0037"/>
  <outline>
    <contour>
      <point x="61" y="-49" type="line"/>
      <point x="121" y="-69" type="line"/>
      <point x="451" y="537" type="line"/>
      <point x="429" y="566" type="line"/>
      <point x="52" y="566" type="line"/>
      <point x="60" y="514" type="line"/>
      <point x="376" y="514" type="line"/>
    </contour>
  </outline>
</glyph>
<glyph name="eight" format="1">
  <advance width="552"/>
  <unicode hex="0038"/>
  <outline>
    <contour>
      <point x="471" y="566"/>
      <point x="406" y="643"/>
      <point x="276" y="643" type="curve" smooth="yes"/>
      <point x="148" y="643"/>
      <point x="80" y="566"/>
      <point x="80" y="481" type="curve" smooth="yes"/>
      <point x="80" y="414"/>
      <point x="128" y="363"/>
      <point x="189" y="339" type="curve"/>
      <point x="113" y="321"/>
      <point x="52" y="241"/>
      <point x="52" y="169" type="curve" smooth="yes"/>
      <point x="52" y="69"/>
      <point x="128" y="-13"/>
      <point x="276" y="-13" type="curve" smooth="yes"/>
      <point x="422" y="-13"/>
      <point x="499" y="72"/>
      <point x="499" y="169" type="curve" smooth="yes"/>
      <point x="499" y="253"/>
      <point x="434" y="322"/>
      <point x="363" y="339" type="curve"/>
      <point x="416" y="363"/>
      <point x="471" y="412"/>
      <point x="471" y="481" type="curve" smooth="yes"/>
    </contour>
    <contour>
      <point x="116" y="243"/>
      <point x="169" y="302"/>
      <point x="276" y="316" type="curve"/>
      <point x="382" y="302"/>
      <point x="435" y="243"/>
      <point x="435" y="167" type="curve" smooth="yes"/>
      <point x="435" y="89"/>
      <point x="363" y="38"/>
      <point x="276" y="38" type="curve" smooth="yes"/>
      <point x="185" y="38"/>
      <point x="116" y="90"/>
      <point x="116" y="167" type="curve" smooth="yes"/>
    </contour>
    <contour>
      <point x="143" y="538"/>
      <point x="183" y="593"/>
      <point x="273" y="593" type="curve"/>
      <point x="367" y="593"/>
      <point x="409" y="540"/>
      <point x="409" y="479" type="curve" smooth="yes"/>
      <point x="409" y="425"/>
      <point x="360" y="372"/>
      <point x="276" y="360" type="curve"/>
      <point x="190" y="372"/>
      <point x="143" y="423"/>
      <point x="143" y="479" type="curve" smooth="yes"/>
    </contour>
  </outline>
</glyph>
<glyph name="nine" format="1">
  <advance width="540"/>
  <unicode hex="0039"/>
  <outline>
    <contour>
      <point x="311" y="179"/>
      <point x="370" y="212"/>
      <point x="407" y="246" type="curve"/>
      <point x="384" y="120"/>
      <point x="290" y="-3"/>
      <point x="164" y="-30" type="curve"/>
      <point x="190" y="-69" type="line"/>
      <point x="360" y="-34"/>
      <point x="477" y="157"/>
      <point x="477" y="304" type="curve" smooth="yes"/>
      <point x="477" y="485"/>
      <point x="388" y="579"/>
      <point x="251" y="579" type="curve" smooth="yes"/>
      <point x="132" y="579"/>
      <point x="52" y="481"/>
      <point x="52" y="375" type="curve" smooth="yes"/>
      <point x="52" y="273"/>
      <point x="127" y="179"/>
      <point x="252" y="179" type="curve" smooth="yes"/>
    </contour>
    <contour>
      <point x="360" y="527"/>
      <point x="409" y="443"/>
      <point x="413" y="318" type="curve"/>
      <point x="384" y="272"/>
      <point x="325" y="229"/>
      <point x="252" y="229" type="curve" smooth="yes"/>
      <point x="166" y="229"/>
      <point x="115" y="302"/>
      <point x="115" y="381" type="curve" smooth="yes"/>
      <point x="115" y="457"/>
      <point x="167" y="527"/>
      <point x="253" y="527" type="curve" smooth="yes"/>
    </contour>
  </outline>
</glyph>
<glyph name="semicolon" format="1">
  <advance width="143"/>
  <unicode hex="003B"/>
  <outline>
    <contour>
      <point x="31" y="376"/>
      <point x="52" y="355"/>
      <point x="79" y="355" type="curve" smooth="yes"/>
      <point x="106" y="355"/>
      <point x="127" y="376"/>
      <point x="127" y="402" type="curve" smooth="yes"/>
      <point x="127" y="428"/>
      <point x="106" y="451"/>
      <point x="79" y="451" type="curve" smooth="yes"/>
      <point x="52" y="451"/>
      <point x="31" y="428"/>
      <point x="31" y="402" type="curve" smooth="yes"/>
    </contour>
    <contour>
      <point x="126" y="111"/>
      <point x="105" y="132"/>
      <point x="78" y="132" type="curve" smooth="yes"/>
      <point x="52" y="132"/>
      <point x="30" y="111"/>
      <point x="30" y="84" type="curve" smooth="yes"/>
      <point x="30" y="59"/>
      <point x="48" y="40"/>
      <point x="73" y="37" type="curve"/>
      <point x="71" y="2"/>
      <point x="48" y="-22"/>
      <point x="16" y="-43" type="curve"/>
      <point x="34" y="-72" type="line"/>
      <point x="85" y="-48"/>
      <point x="126" y="17"/>
      <point x="126" y="76" type="curve" smooth="yes"/>
    </contour>
  </outline>
</glyph>
<glyph name="less" format="1">
  <advance width="314"/>
  <unicode hex="003C"/>
  <outline>
    <contour>
      <point x="259" y="19" type="line"/>
      <point x="282" y="64" type="line"/>
      <point x="66" y="245" type="line"/>
      <point x="282" y="426" type="line"/>
      <point x="259" y="470" type="line"/>
      <point x="10" y="269" type="line"/>
      <point x="10" y="221" type="line"/>
    </contour>
  </outline>
</glyph>
<glyph name="greater" format="1">
  <advance width="314"/>
  <unicode hex="003E"/>
  <outline>
    <contour>
      <point x="304" y="221" type="line"/>
      <point x="304" y="269" type="line"/>
      <point x="54" y="470" type="line"/>
      <point x="31" y="426" type="line"/>
      <point x="247" y="245" type="line"/>
      <point x="31" y="64" type="line"/>
      <point x="54" y="19" type="line"/>
    </contour>
  </outline>
</glyph>
<glyph name="question" format="1">
  <advance width="395"/>
  <unicode hex="003F"/>
  <outline>
    <contour>
      <point x="380" y="634"/>
      <point x="325" y="702"/>
      <point x="192" y="702" type="curve" smooth="yes"/>
      <point x="113" y="702"/>
      <point x="69" y="675"/>
      <point x="16" y="641" type="curve"/>
      <point x="24" y="587" type="line"/>
      <point x="76" y="624"/>
      <point x="117" y="648"/>
      <point x="190" y="648" type="curve" smooth="yes"/>
      <point x="274" y="648"/>
      <point x="315" y="617"/>
      <point x="315" y="537" type="curve"/>
      <point x="315" y="460"/>
      <point x="241" y="397"/>
      <point x="137" y="363" type="curve"/>
      <point x="145" y="157" type="line"/>
      <point x="191" y="139" type="line"/>
      <point x="199" y="332" type="line"/>
      <point x="310" y="382"/>
      <point x="380" y="462"/>
      <point x="380" y="538" type="curve" smooth="yes"/>
    </contour>
    <contour>
      <point x="215" y="74"/>
      <point x="194" y="94"/>
      <point x="167" y="94" type="curve" smooth="yes"/>
      <point x="140" y="94"/>
      <point x="120" y="74"/>
      <point x="120" y="48" type="curve" smooth="yes"/>
      <point x="120" y="21"/>
      <point x="140" y="0"/>
      <point x="167" y="0" type="curve" smooth="yes"/>
      <point x="194" y="0"/>
      <point x="215" y="21"/>
      <point x="215" y="48" type="curve" smooth="yes"/>
    </contour>
  </outline>
</glyph>
<glyph name="B" format="1">
  <advance width="604"/>
  <unicode hex="0042"/>
  <outline>
    <contour>
      <point x="105" y="0" type="line"/>
      <point x="296" y="0" type="line" smooth="yes"/>
      <point x="437" y="0"/>
      <point x="552" y="44"/>
      <point x="552" y="188" type="curve" smooth="yes"/>
      <point x="552" y="283"/>
      <point x="496" y="337"/>
      <point x="413" y="362" type="curve"/>
      <point x="468" y="389"/>
      <point x="504" y="435"/>
      <point x="504" y="503" type="curve" smooth="yes"/>
      <point x="504" y="640"/>
      <point x="403" y="680"/>
      <point x="259" y="680" type="curve" smooth="yes"/>
      <point x="105" y="680" type="line"/>
    </contour>
    <contour>
      <point x="309" y="327" type="line" smooth="yes"/>
      <point x="419" y="327"/>
      <point x="490" y="288"/>
      <point x="490" y="186" type="curve" smooth="yes"/>
      <point x="490" y="80"/>
      <point x="405" y="52"/>
      <point x="298" y="52" type="curve" smooth="yes"/>
      <point x="167" y="52" type="line"/>
      <point x="167" y="327" type="line"/>
    </contour>
    <contour>
      <point x="261" y="627" type="line" smooth="yes"/>
      <point x="371" y="627"/>
      <point x="442" y="607"/>
      <point x="442" y="502" type="curve" smooth="yes"/>
      <point x="442" y="405"/>
      <point x="363" y="379"/>
      <point x="258" y="378" type="curve"/>
      <point x="167" y="378" type="line"/>
      <point x="167" y="627" type="line"/>
    </contour>
  </outline>
</glyph>
<glyph name="D" format="1">
  <advance width="693"/>
  <unicode hex="0044"/>
  <outline>
    <contour>
      <point x="105" y="0" type="line"/>
      <point x="318" y="0" type="line" smooth="yes"/>
      <point x="517" y="0"/>
      <point x="619" y="154"/>
      <point x="619" y="344" type="curve" smooth="yes"/>
      <point x="619" y="530"/>
      <point x="537" y="680"/>
      <point x="327" y="680" type="curve" smooth="yes"/>
      <point x="105" y="680" type="line"/>
    </contour>
    <contour>
      <point x="330" y="627" type="line" smooth="yes"/>
      <point x="486" y="627"/>
      <point x="559" y="505"/>
      <point x="559" y="343" type="curve" smooth="yes"/>
      <point x="559" y="167"/>
      <point x="463" y="52"/>
      <point x="320" y="52" type="curve" smooth="yes"/>
      <point x="167" y="52" type="line"/>
      <point x="167" y="627" type="line"/>
    </contour>
    <contour>
      <point x="305" y="701" type="move" name="topU"/>
    </contour>
  </outline>
</glyph>
<glyph name="L" format="1">
  <advance width="507"/>
  <unicode hex="004C"/>
  <outline>
    <contour>
      <point x="486" y="0" type="line"/>
      <point x="481" y="50" type="line"/>
      <point x="167" y="50" type="line"/>
      <point x="167" y="680" type="line"/>
      <point x="105" y="680" type="line"/>
      <point x="105" y="0" type="line"/>
    </contour>
    <contour>
      <point x="187" y="702" type="move" name="topU"/>
    </contour>
    <contour>
      <point x="304" y="0" type="move" name="bottom"/>
    </contour>
  </outline>
</glyph>
<glyph name="M" format="1">
  <advance width="780"/>
  <unicode hex="004D"/>
  <outline>
    <contour>
      <point x="381" y="230" type="line"/>
      <point x="401" y="234" type="line"/>
      <point x="612" y="552" type="line"/>
      <point x="612" y="0" type="line"/>
      <point x="675" y="0" type="line"/>
      <point x="675" y="680" type="line"/>
      <point x="634" y="680" type="line"/>
      <point x="389" y="322" type="line"/>
      <point x="140" y="680" type="line"/>
      <point x="105" y="680" type="line"/>
      <point x="105" y="0" type="line"/>
      <point x="167" y="0" type="line"/>
      <point x="167" y="547" type="line"/>
    </contour>
  </outline>
</glyph>
<glyph name="P" format="1">
  <advance width="577"/>
  <unicode hex="0050"/>
  <outline>
    <contour>
      <point x="105" y="0" type="line"/>
      <point x="167" y="0" type="line"/>
      <point x="167" y="264" type="line"/>
      <point x="270" y="264" type="line" smooth="yes"/>
      <point x="412" y="264"/>
      <point x="524" y="328"/>
      <point x="526" y="475" type="curve"/>
      <point x="526" y="624"/>
      <point x="423" y="680"/>
      <point x="281" y="680" type="curve" smooth="yes"/>
      <point x="105" y="680" type="line"/>
    </contour>
    <contour>
      <point x="283" y="627" type="line" smooth="yes"/>
      <point x="393" y="627"/>
      <point x="463" y="592"/>
      <point x="463" y="474" type="curve"/>
      <point x="462" y="360"/>
      <point x="379" y="317"/>
      <point x="272" y="317" type="curve" smooth="yes"/>
      <point x="167" y="317" type="line"/>
      <point x="167" y="627" type="line"/>
    </contour>
  </outline>
</glyph>
<glyph name="Q" format="1">
  <advance width="736"/>
  <unicode hex="0051"/>
  <outline>
    <contour>
      <point x="608" y="-14" type="line"/>
      <point x="645" y="18" type="line"/>
      <point x="577" y="83" type="line"/>
      <point x="634" y="150"/>
      <point x="664" y="245"/>
      <point x="664" y="345" type="curve" smooth="yes"/>
      <point x="664" y="531"/>
      <point x="580" y="696"/>
      <point x="371" y="696" type="curve"/>
      <point x="174" y="692"/>
      <point x="73" y="537"/>
      <point x="73" y="337" type="curve" smooth="yes"/>
      <point x="73" y="152"/>
      <point x="156" y="-14"/>
      <point x="365" y="-14" type="curve"/>
      <point x="436" y="-13"/>
      <point x="497" y="9"/>
      <point x="542" y="48" type="curve"/>
    </contour>
    <contour>
      <point x="207" y="41"/>
      <point x="139" y="175"/>
      <point x="139" y="338" type="curve" smooth="yes"/>
      <point x="139" y="514"/>
      <point x="229" y="640"/>
      <point x="372" y="640" type="curve"/>
      <point x="529" y="640"/>
      <point x="596" y="507"/>
      <point x="596" y="344" type="curve" smooth="yes"/>
      <point x="596" y="256"/>
      <point x="573" y="180"/>
      <point x="533" y="127" type="curve"/>
      <point x="439" y="219" type="line"/>
      <point x="395" y="186" type="line"/>
      <point x="498" y="88" type="line"/>
      <point x="462" y="57"/>
      <point x="416" y="41"/>
      <point x="363" y="41" type="curve"/>
    </contour>
  </outline>
</glyph>
<glyph name="S" format="1">
  <advance width="533"/>
  <unicode hex="0053"/>
  <outline>
    <contour>
      <point x="178" y="38"/>
      <point x="114" y="60"/>
      <point x="79" y="77" type="curve"/>
      <point x="64" y="29" type="line"/>
      <point x="87" y="9"/>
      <point x="188" y="-13"/>
      <point x="246" y="-13" type="curve" smooth="yes"/>
      <point x="395" y="-13"/>
      <point x="479" y="59"/>
      <point x="481" y="160" type="curve" smooth="yes"/>
      <point x="486" y="360"/>
      <point x="111" y="370"/>
      <point x="111" y="530" type="curve" smooth="yes"/>
      <point x="111" y="600"/>
      <point x="170" y="644"/>
      <point x="267" y="644" type="curve" smooth="yes"/>
      <point x="337" y="644"/>
      <point x="376" y="626"/>
      <point x="411" y="610" type="curve"/>
      <point x="433" y="657" type="line"/>
      <point x="393" y="677"/>
      <point x="332" y="696"/>
      <point x="265" y="696" type="curve" smooth="yes"/>
      <point x="136" y="696"/>
      <point x="54" y="624"/>
      <point x="53" y="530" type="curve" smooth="yes"/>
      <point x="51" y="323"/>
      <point x="422" y="317"/>
      <point x="422" y="160" type="curve" smooth="yes"/>
      <point x="422" y="90"/>
      <point x="360" y="38"/>
      <point x="245" y="38" type="curve" smooth="yes"/>
    </contour>
    <contour>
      <point x="265" y="702" type="move" name="topU"/>
    </contour>
    <contour>
      <point x="245" y="0" type="move" name="bottom"/>
    </contour>
  </outline>
</glyph>
<glyph name="U" format="1">
  <advance width="685"/>
  <unicode hex="0055"/>
  <outline>
    <contour>
      <point x="227" y="41"/>
      <point x="156" y="131"/>
      <point x="156" y="248" type="curve" smooth="yes"/>
      <point x="156" y="680" type="line"/>
      <point x="94" y="680" type="line"/>
      <point x="94" y="239" type="line" smooth="yes"/>
      <point x="94" y="93"/>
      <point x="188" y="-11"/>
      <point x="342" y="-12" type="curve"/>
      <point x="498" y="-12"/>
      <point x="591" y="93"/>
      <point x="591" y="239" type="curve" smooth="yes"/>
      <point x="591" y="680" type="line"/>
      <point x="528" y="680" type="line"/>
      <point x="528" y="248" type="line" smooth="yes"/>
      <point x="528" y="131"/>
      <point x="461" y="41"/>
      <point x="342" y="41" type="curve" smooth="yes"/>
    </contour>
    <contour>
      <point x="342" y="702" type="move" name="topU"/>
    </contour>
    <contour>
      <point x="381" y="0" type="move" name="bottom"/>
    </contour>
  </outline>
</glyph>
<glyph name="X" format="1">
  <advance width="634"/>
  <unicode hex="0058"/>
  <outline>
    <contour>
      <point x="21" y="0" type="line"/>
      <point x="83" y="-10" type="line"/>
      <point x="310" y="297" type="line"/>
      <point x="531" y="0" type="line"/>
      <point x="600" y="0" type="line"/>
      <point x="356" y="331" type="line"/>
      <point x="614" y="680" type="line"/>
      <point x="546" y="680" type="line"/>
      <point x="323" y="377" type="line"/>
      <point x="101" y="680" type="line"/>
      <point x="36" y="669" type="line"/>
      <point x="276" y="344" type="line"/>
    </contour>
  </outline>
</glyph>
<glyph name="bracketleft" format="1">
  <advance width="253"/>
  <unicode hex="005B"/>
  <outline>
    <contour>
      <point x="84" y="696" type="line"/>
      <point x="84" y="-88" type="line"/>
      <point x="247" y="-88" type="line"/>
      <point x="239" y="-44" type="line"/>
      <point x="141" y="-44" type="line"/>
      <point x="141" y="651" type="line"/>
      <point x="239" y="651" type="line"/>
      <point x="247" y="696" type="line"/>
    </contour>
  </outline>
</glyph>
<glyph name="backslash" format="1">
  <advance width="377"/>
  <unicode hex="005C"/>
  <outline>
    <contour>
      <point x="314" y="-4" type="line"/>
      <point x="371" y="0" type="line"/>
      <point x="63" y="710" type="line"/>
      <point x="6" y="706" type="line"/>
    </contour>
  </outline>
</glyph>
<glyph name="bracketright" format="1">
  <advance width="253"/>
  <unicode hex="005D"/>
  <outline>
    <contour>
      <point x="168" y="-88" type="line"/>
      <point x="168" y="696" type="line"/>
      <point x="6" y="696" type="line"/>
      <point x="14" y="651" type="line"/>
      <point x="111" y="651" type="line"/>
      <point x="111" y="-44" type="line"/>
      <point x="14" y="-44" type="line"/>
      <point x="6" y="-88" type="line"/>
    </contour>
  </outline>
</glyph>
<glyph name="b" format="1">
  <advance width="542"/>
  <unicode hex="0062"/>
  <outline>
    <contour>
      <point x="84" y="0" type="line"/>
      <point x="125" y="0" type="line"/>
      <point x="140" y="43" type="line"/>
      <point x="182" y="10"/>
      <point x="234" y="-13"/>
      <point x="281" y="-13" type="curve" smooth="yes"/>
      <point x="424" y="-13"/>
      <point x="489" y="93"/>
      <point x="489" y="242" type="curve" smooth="yes"/>
      <point x="489" y="391"/>
      <point x="424" y="498"/>
      <point x="281" y="498" type="curve" smooth="yes"/>
      <point x="236" y="498"/>
      <point x="186" y="475"/>
      <point x="146" y="444" type="curve"/>
      <point x="146" y="706" type="line"/>
      <point x="84" y="696" type="line"/>
    </contour>
    <contour>
      <point x="236" y="40"/>
      <point x="188" y="59"/>
      <point x="146" y="98" type="curve"/>
      <point x="146" y="386" type="line"/>
      <point x="188" y="425"/>
      <point x="236" y="445"/>
      <point x="276" y="445" type="curve" smooth="yes"/>
      <point x="386" y="445"/>
      <point x="428" y="360"/>
      <point x="428" y="241" type="curve" smooth="yes"/>
      <point x="428" y="123"/>
      <point x="386" y="40"/>
      <point x="276" y="40" type="curve" smooth="yes"/>
    </contour>
  </outline>
</glyph>
<glyph name="h" format="1">
  <advance width="552"/>
  <unicode hex="0068"/>
  <outline>
    <contour>
      <point x="84" y="0" type="line"/>
      <point x="146" y="0" type="line"/>
      <point x="146" y="356" type="line"/>
      <point x="192" y="414"/>
      <point x="267" y="445"/>
      <point x="310" y="445" type="curve" smooth="yes"/>
      <point x="381" y="444"/>
      <point x="412" y="392"/>
      <point x="412" y="325" type="curve" smooth="yes"/>
      <point x="412" y="1" type="line"/>
      <point x="474" y="1" type="line"/>
      <point x="474" y="337" type="line" smooth="yes"/>
      <point x="474" y="431"/>
      <point x="422" y="498"/>
      <point x="317" y="498" type="curve" smooth="yes"/>
      <point x="257" y="498"/>
      <point x="187" y="458"/>
      <point x="146" y="411" type="curve"/>
      <point x="146" y="706" type="line"/>
      <point x="84" y="696" type="line"/>
    </contour>
  </outline>
</glyph>
<glyph name="j" format="1">
  <advance width="232"/>
  <unicode hex="006A"/>
  <outline>
    <contour>
      <point x="85" y="-47" type="line"/>
      <point x="86" y="-127"/>
      <point x="57" y="-151"/>
      <point x="-10" y="-176" type="curve"/>
      <point x="14" y="-219" type="line"/>
      <point x="111" y="-188"/>
      <point x="148" y="-146"/>
      <point x="148" y="-62" type="curve" smooth="yes"/>
      <point x="148" y="485" type="line"/>
      <point x="85" y="485" type="line"/>
    </contour>
    <contour>
      <point x="69" y="611"/>
      <point x="88" y="591"/>
      <point x="116" y="591" type="curve" smooth="yes"/>
      <point x="142" y="591"/>
      <point x="164" y="611"/>
      <point x="164" y="638" type="curve" smooth="yes"/>
      <point x="164" y="665"/>
      <point x="142" y="685"/>
      <point x="116" y="685" type="curve" smooth="yes"/>
      <point x="88" y="685"/>
      <point x="69" y="665"/>
      <point x="69" y="638" type="curve" smooth="yes"/>
    </contour>
  </outline>
</glyph>
<glyph name="k" format="1">
  <advance width="482"/>
  <unicode hex="006B"/>
  <outline>
    <contour>
      <point x="84" y="0" type="line"/>
      <point x="146" y="0" type="line"/>
      <point x="146" y="190" type="line"/>
      <point x="218" y="264" type="line"/>
      <point x="391" y="0" type="line"/>
      <point x="466" y="0" type="line"/>
      <point x="258" y="305" type="line"/>
      <point x="410" y="461" type="line"/>
      <point x="371" y="498" type="line"/>
      <point x="146" y="266" type="line"/>
      <point x="146" y="706" type="line"/>
      <point x="84" y="696" type="line"/>
    </contour>
    <contour>
      <point x="255" y="0" type="move" name="bottom"/>
    </contour>
  </outline>
</glyph>
<glyph name="l" format="1">
  <advance width="230"/>
  <unicode hex="006C"/>
  <outline>
    <contour>
      <point x="84" y="0" type="line"/>
      <point x="146" y="0" type="line"/>
      <point x="146" y="706" type="line"/>
      <point x="84" y="696" type="line"/>
    </contour>
    <contour>
      <point x="107" y="0" type="move" name="bottom"/>
    </contour>
  </outline>
</glyph>
<glyph name="q" format="1">
  <advance width="542"/>
  <unicode hex="0071"/>
  <outline>
    <contour>
      <point x="458" y="485" type="line"/>
      <point x="417" y="485" type="line"/>
      <point x="401" y="440" type="line"/>
      <point x="360" y="472"/>
      <point x="307" y="498"/>
      <point x="260" y="498" type="curve" smooth="yes"/>
      <point x="118" y="498"/>
      <point x="52" y="391"/>
      <point x="52" y="241" type="curve" smooth="yes"/>
      <point x="52" y="92"/>
      <point x="118" y="-13"/>
      <point x="260" y="-13" type="curve" smooth="yes"/>
      <point x="304" y="-13"/>
      <point x="356" y="8"/>
      <point x="395" y="40" type="curve"/>
      <point x="395" y="-219" type="line"/>
      <point x="458" y="-208" type="line"/>
    </contour>
    <contour>
      <point x="306" y="445"/>
      <point x="354" y="425"/>
      <point x="395" y="386" type="curve"/>
      <point x="395" y="98" type="line"/>
      <point x="354" y="59"/>
      <point x="306" y="40"/>
      <point x="266" y="40" type="curve" smooth="yes"/>
      <point x="156" y="40"/>
      <point x="115" y="124"/>
      <point x="115" y="242" type="curve" smooth="yes"/>
      <point x="115" y="360"/>
      <point x="156" y="445"/>
      <point x="266" y="445" type="curve" smooth="yes"/>
    </contour>
  </outline>
</glyph>
<glyph name="r" format="1">
  <advance width="321"/>
  <unicode hex="0072"/>
  <outline>
    <contour>
      <point x="84" y="0" type="line"/>
      <point x="146" y="0" type="line"/>
      <point x="146" y="356" type="line"/>
      <point x="184" y="397"/>
      <point x="247" y="436"/>
      <point x="309" y="436" type="curve"/>
      <point x="292" y="485" type="line"/>
      <point x="241" y="485"/>
      <point x="178" y="448"/>
      <point x="143" y="418" type="curve"/>
      <point x="125" y="485" type="line"/>
      <point x="84" y="485" type="line"/>
    </contour>
    <contour>
      <point x="188" y="535" type="move" name="top"/>
    </contour>
    <contour>
      <point x="107" y="0" type="move" name="bottom"/>
    </contour>
  </outline>
</glyph>
<glyph name="w" format="1">
  <advance width="753"/>
  <unicode hex="0077"/>
  <outline>
    <contour>
      <point x="510" y="0" type="line"/>
      <point x="577" y="0" type="line"/>
      <point x="733" y="485" type="line"/>
      <point x="672" y="485" type="line"/>
      <point x="542" y="83" type="line"/>
      <point x="407" y="485" type="line"/>
      <point x="348" y="485" type="line"/>
      <point x="218" y="83" type="line"/>
      <point x="83" y="485" type="line"/>
      <point x="21" y="475" type="line"/>
      <point x="185" y="0" type="line"/>
      <point x="252" y="0" type="line"/>
      <point x="376" y="393" type="line"/>
    </contour>
  </outline>
</glyph>
<glyph name="x" format="1">
  <advance width="482"/>
  <unicode hex="0078"/>
  <outline>
    <contour>
      <point x="17" y="0" type="line"/>
      <point x="87" y="0" type="line"/>
      <point x="234" y="199" type="line"/>
      <point x="384" y="0" type="line"/>
      <point x="452" y="0" type="line"/>
      <point x="280" y="233" type="line"/>
      <point x="466" y="485" type="line"/>
      <point x="398" y="485" type="line"/>
      <point x="246" y="279" type="line"/>
      <point x="96" y="485" type="line"/>
      <point x="31" y="475" type="line"/>
      <point x="200" y="245" type="line"/>
    </contour>
  </outline>
</glyph>
<glyph name="y" format="1">
  <advance width="469"/>
  <unicode hex="0079"/>
  <outline>
    <contour>
      <point x="181" y="-98" type="line"/>
      <point x="164" y="-143"/>
      <point x="135" y="-156"/>
      <point x="86" y="-179" type="curve"/>
      <point x="103" y="-219" type="line"/>
      <point x="167" y="-206"/>
      <point x="216" y="-167"/>
      <point x="236" y="-112" type="curve"/>
      <point x="315" y="117" type="line"/>
      <point x="449" y="485" type="line"/>
      <point x="389" y="485" type="line"/>
      <point x="239" y="83" type="line"/>
      <point x="80" y="485" type="line"/>
      <point x="21" y="475" type="line"/>
      <point x="213" y="-7" type="line"/>
    </contour>
    <contour>
      <point x="241" y="535" type="move" name="top"/>
    </contour>
  </outline>
</glyph>
<glyph name="bar" format="1">
  <advance width="272"/>
  <unicode hex="007C"/>
  <outline>
    <contour>
      <point x="167" y="706" type="line"/>
      <point x="105" y="710" type="line"/>
      <point x="105" y="0" type="line"/>
      <point x="167" y="-4" type="line"/>
    </contour>
  </outline>
</glyph>
<glyph name="asciitilde" format="1">
  <advance width="356"/>
  <unicode hex="007E"/>
  <outline>
    <contour>
      <point x="296" y="199"/>
      <point x="341" y="220"/>
      <point x="339" y="290" type="curve"/>
      <point x="292" y="290" type="line"/>
      <point x="291" y="259"/>
      <point x="270" y="247"/>
      <point x="244" y="247" type="curve" smooth="yes"/>
      <point x="209" y="247"/>
      <point x="167" y="295"/>
      <point x="111" y="295" type="curve" smooth="yes"/>
      <point x="59" y="295"/>
      <point x="14" y="274"/>
      <point x="17" y="205" type="curve"/>
      <point x="62" y="205" type="line"/>
      <point x="65" y="235"/>
      <point x="85" y="247"/>
      <point x="111" y="247" type="curve" smooth="yes"/>
      <point x="146" y="247"/>
      <point x="199" y="199"/>
      <point x="245" y="199" type="curve" smooth="yes"/>
    </contour>
  </outline>
</glyph>
<glyph name="dv_CandrabinduInverted" format="1">
  <advance width="0"/>
  <unicode hex="0090"/>
  <outline>
    <contour>
      <point x="418" y="846" type="line"/>
      <point x="371" y="934"/>
      <point x="304" y="977"/>
      <point x="218" y="977" type="curve" smooth="yes"/>
      <point x="129" y="977"/>
      <point x="62" y="934"/>
      <point x="17" y="846" type="curve"/>
      <point x="62" y="815" type="line"/>
      <point x="100" y="892"/>
      <point x="152" y="928"/>
      <point x="218" y="928" type="curve" smooth="yes"/>
      <point x="282" y="928"/>
      <point x="333" y="892"/>
      <point x="372" y="815" type="curve"/>
    </contour>
    <contour>
      <point x="167" y="792"/>
      <point x="190" y="769"/>
      <point x="219" y="769" type="curve" smooth="yes"/>
      <point x="248" y="769"/>
      <point x="272" y="792"/>
      <point x="272" y="821" type="curve" smooth="yes"/>
      <point x="272" y="850"/>
      <point x="248" y="874"/>
      <point x="219" y="874" type="curve" smooth="yes"/>
      <point x="190" y="874"/>
      <point x="167" y="850"/>
      <point x="167" y="821" type="curve" smooth="yes"/>
    </contour>
  </outline>
</glyph>
<glyph name="cent" format="1">
  <advance width="463"/>
  <unicode hex="00A2"/>
  <outline>
    <contour>
      <point x="297" y="605" type="line"/>
      <point x="251" y="605" type="line"/>
      <point x="251" y="497" type="line"/>
      <point x="122" y="486"/>
      <point x="54" y="384"/>
      <point x="52" y="245" type="curve"/>
      <point x="52" y="101"/>
      <point x="118" y="-5"/>
      <point x="251" y="-13" type="curve"/>
      <point x="251" y="-107" type="line"/>
      <point x="297" y="-111" type="line"/>
      <point x="297" y="-10" type="line"/>
      <point x="337" y="-6"/>
      <point x="383" y="8"/>
      <point x="412" y="28" type="curve"/>
      <point x="392" y="73" type="line"/>
      <point x="357" y="55"/>
      <point x="335" y="39"/>
      <point x="264" y="39" type="curve" smooth="yes"/>
      <point x="154" y="39"/>
      <point x="115" y="127"/>
      <point x="115" y="246" type="curve"/>
      <point x="117" y="360"/>
      <point x="162" y="446"/>
      <point x="269" y="446" type="curve" smooth="yes"/>
      <point x="339" y="446"/>
      <point x="363" y="428"/>
      <point x="397" y="412" type="curve"/>
      <point x="417" y="456" type="line"/>
      <point x="386" y="477"/>
      <point x="337" y="491"/>
      <point x="297" y="496" type="curve"/>
    </contour>
  </outline>
</glyph>
<glyph name="sterling" format="1">
  <advance width="437"/>
  <unicode hex="00A3"/>
  <outline>
    <contour>
      <point x="188" y="545" type="line" smooth="yes"/>
      <point x="188" y="594"/>
      <point x="206" y="629"/>
      <point x="257" y="629" type="curve" smooth="yes"/>
      <point x="270" y="629"/>
      <point x="290" y="622"/>
      <point x="297" y="618" type="curve"/>
      <point x="309" y="671" type="line"/>
      <point x="296" y="675"/>
      <point x="270" y="684"/>
      <point x="243" y="684" type="curve" smooth="yes"/>
      <point x="172" y="684"/>
      <point x="125" y="630"/>
      <point x="125" y="545" type="curve" smooth="yes"/>
      <point x="125" y="376" type="line"/>
      <point x="52" y="376" type="line"/>
      <point x="54" y="330" type="line"/>
      <point x="125" y="330" type="line"/>
      <point x="125" y="133" type="line" smooth="yes"/>
      <point x="125" y="85"/>
      <point x="108" y="51"/>
      <point x="60" y="50" type="curve" smooth="yes"/>
      <point x="57" y="50" type="line"/>
      <point x="62" y="0" type="line"/>
      <point x="418" y="0" type="line"/>
      <point x="412" y="50" type="line"/>
      <point x="154" y="50" type="line"/>
      <point x="175" y="74"/>
      <point x="188" y="109"/>
      <point x="188" y="154" type="curve" smooth="yes"/>
      <point x="188" y="330" type="line"/>
      <point x="346" y="330" type="line"/>
      <point x="324" y="376" type="line"/>
      <point x="188" y="376" type="line"/>
    </contour>
  </outline>
</glyph>
<glyph name="dieresis" format="1">
  <advance width="276"/>
  <unicode hex="00A8"/>
  <outline>
    <contour>
      <point x="103" y="685"/>
      <point x="84" y="704"/>
      <point x="59" y="704" type="curve" smooth="yes"/>
      <point x="36" y="704"/>
      <point x="16" y="685"/>
      <point x="16" y="662" type="curve" smooth="yes"/>
      <point x="16" y="637"/>
      <point x="36" y="618"/>
      <point x="59" y="618" type="curve" smooth="yes"/>
      <point x="84" y="618"/>
      <point x="103" y="637"/>
      <point x="103" y="662" type="curve" smooth="yes"/>
    </contour>
    <contour>
      <point x="259" y="685"/>
      <point x="241" y="704"/>
      <point x="216" y="704" type="curve" smooth="yes"/>
      <point x="192" y="704"/>
      <point x="173" y="685"/>
      <point x="173" y="662" type="curve" smooth="yes"/>
      <point x="173" y="637"/>
      <point x="192" y="618"/>
      <point x="216" y="618" type="curve" smooth="yes"/>
      <point x="241" y="618"/>
      <point x="259" y="637"/>
      <point x="259" y="662" type="curve" smooth="yes"/>
    </contour>
    <contour>
      <point x="137" y="535" type="move" name="_top"/>
    </contour>
  </outline>
</glyph>
<glyph name="copyright" format="1">
  <advance width="847"/>
  <unicode hex="00A9"/>
  <outline>
    <contour>
      <point x="477" y="106"/>
      <point x="543" y="121"/>
      <point x="582" y="148" type="curve"/>
      <point x="562" y="191" type="line"/>
      <point x="528" y="174"/>
      <point x="504" y="157"/>
      <point x="435" y="157" type="curve" smooth="yes"/>
      <point x="324" y="157"/>
      <point x="285" y="225"/>
      <point x="285" y="344" type="curve"/>
      <point x="285" y="444"/>
      <point x="332" y="522"/>
      <point x="439" y="522" type="curve" smooth="yes"/>
      <point x="510" y="522"/>
      <point x="533" y="505"/>
      <point x="567" y="488" type="curve"/>
      <point x="587" y="533" type="line"/>
      <point x="549" y="560"/>
      <point x="482" y="574"/>
      <point x="441" y="574" type="curve" smooth="yes"/>
      <point x="299" y="574"/>
      <point x="223" y="475"/>
      <point x="223" y="342" type="curve"/>
      <point x="223" y="206"/>
      <point x="292" y="106"/>
      <point x="435" y="106" type="curve" smooth="yes"/>
    </contour>
    <contour>
      <point x="236" y="29"/>
      <point x="121" y="162"/>
      <point x="121" y="337" type="curve"/>
      <point x="121" y="513"/>
      <point x="236" y="645"/>
      <point x="423" y="645" type="curve"/>
      <point x="611" y="645"/>
      <point x="726" y="513"/>
      <point x="726" y="337" type="curve" smooth="yes"/>
      <point x="726" y="162"/>
      <point x="611" y="29"/>
      <point x="423" y="29" type="curve"/>
    </contour>
    <contour>
      <point x="645" y="-20"/>
      <point x="783" y="138"/>
      <point x="783" y="336" type="curve" smooth="yes"/>
      <point x="783" y="536"/>
      <point x="645" y="694"/>
      <point x="423" y="694" type="curve"/>
      <point x="201" y="694"/>
      <point x="62" y="536"/>
      <point x="62" y="336" type="curve"/>
      <point x="62" y="138"/>
      <point x="201" y="-20"/>
      <point x="423" y="-20" type="curve"/>
    </contour>
  </outline>
</glyph>
<glyph name="ordfeminine" format="1">
  <advance width="344"/>
  <unicode hex="00AA"/>
  <outline>
    <contour>
      <point x="140" y="702"/>
      <point x="89" y="691"/>
      <point x="64" y="673" type="curve"/>
      <point x="76" y="631" type="line"/>
      <point x="100" y="641"/>
      <point x="122" y="653"/>
      <point x="168" y="653" type="curve" smooth="yes"/>
      <point x="221" y="653"/>
      <point x="248" y="622"/>
      <point x="248" y="577" type="curve" smooth="yes"/>
      <point x="248" y="559" type="line"/>
      <point x="162" y="559" type="line" smooth="yes"/>
      <point x="94" y="559"/>
      <point x="42" y="524"/>
      <point x="42" y="463" type="curve" smooth="yes"/>
      <point x="42" y="405"/>
      <point x="91" y="363"/>
      <point x="157" y="363" type="curve" smooth="yes"/>
      <point x="197" y="363"/>
      <point x="232" y="387"/>
      <point x="251" y="408" type="curve"/>
      <point x="262" y="372" type="line"/>
      <point x="304" y="372" type="line"/>
      <point x="304" y="580" type="line" smooth="yes"/>
      <point x="304" y="643"/>
      <point x="253" y="702"/>
      <point x="167" y="702" type="curve" smooth="yes"/>
    </contour>
    <contour>
      <point x="120" y="410"/>
      <point x="97" y="436"/>
      <point x="97" y="463" type="curve" smooth="yes"/>
      <point x="97" y="498"/>
      <point x="133" y="518"/>
      <point x="171" y="518" type="curve" smooth="yes"/>
      <point x="248" y="518" type="line"/>
      <point x="248" y="466" type="line"/>
      <point x="227" y="437"/>
      <point x="194" y="410"/>
      <point x="157" y="410" type="curve" smooth="yes"/>
    </contour>
  </outline>
</glyph>
<glyph name="guillemotleft" format="1">
  <advance width="356"/>
  <unicode hex="00AB"/>
  <outline>
    <contour>
      <point x="31" y="267" type="line"/>
      <point x="31" y="223" type="line"/>
      <point x="171" y="84" type="line"/>
      <point x="192" y="125" type="line"/>
      <point x="80" y="245" type="line"/>
      <point x="192" y="365" type="line"/>
      <point x="171" y="406" type="line"/>
    </contour>
    <contour>
      <point x="183" y="267" type="line"/>
      <point x="183" y="223" type="line"/>
      <point x="323" y="84" type="line"/>
      <point x="344" y="125" type="line"/>
      <point x="231" y="245" type="line"/>
      <point x="344" y="365" type="line"/>
      <point x="323" y="406" type="line"/>
    </contour>
  </outline>
</glyph>
<glyph name="macron" format="1">
  <advance width="272"/>
  <unicode hex="00AF"/>
  <outline>
    <contour>
      <point x="16" y="689" type="line"/>
      <point x="16" y="640" type="line"/>
      <point x="257" y="640" type="line"/>
      <point x="257" y="689" type="line"/>
    </contour>
    <contour>
      <point x="136" y="535" type="move" name="_top"/>
    </contour>
  </outline>
</glyph>
<glyph name="degree" format="1">
  <advance width="245"/>
  <unicode hex="00B0"/>
  <outline>
    <contour>
      <point x="184" y="565"/>
      <point x="156" y="538"/>
      <point x="122" y="538" type="curve" smooth="yes"/>
      <point x="87" y="538"/>
      <point x="62" y="565"/>
      <point x="62" y="599" type="curve" smooth="yes"/>
      <point x="62" y="633"/>
      <point x="87" y="659"/>
      <point x="122" y="659" type="curve" smooth="yes"/>
      <point x="156" y="659"/>
      <point x="184" y="633"/>
      <point x="184" y="599" type="curve" smooth="yes"/>
    </contour>
    <contour>
      <point x="229" y="657"/>
      <point x="181" y="702"/>
      <point x="122" y="702" type="curve" smooth="yes"/>
      <point x="64" y="702"/>
      <point x="16" y="657"/>
      <point x="16" y="599" type="curve" smooth="yes"/>
      <point x="16" y="539"/>
      <point x="64" y="498"/>
      <point x="122" y="498" type="curve" smooth="yes"/>
      <point x="181" y="498"/>
      <point x="229" y="539"/>
      <point x="229" y="599" type="curve" smooth="yes"/>
    </contour>
  </outline>
</glyph>
<glyph name="plusminus" format="1">
  <advance width="475"/>
  <unicode hex="00B1"/>
  <outline>
    <contour>
      <point x="453" y="302" type="line"/>
      <point x="445" y="350" type="line"/>
      <point x="264" y="350" type="line"/>
      <point x="264" y="531" type="line"/>
      <point x="208" y="534" type="line"/>
      <point x="208" y="350" type="line"/>
      <point x="21" y="350" type="line"/>
      <point x="29" y="302" type="line"/>
      <point x="208" y="302" type="line"/>
      <point x="208" y="113" type="line"/>
      <point x="264" y="108" type="line"/>
      <point x="264" y="302" type="line"/>
    </contour>
    <contour>
      <point x="453" y="1" type="line"/>
      <point x="445" y="48" type="line"/>
      <point x="21" y="48" type="line"/>
      <point x="29" y="1" type="line"/>
    </contour>
  </outline>
</glyph>
<glyph name="threesuperior" format="1">
  <advance width="408"/>
  <unicode hex="00B3"/>
  <outline>
    <contour>
      <point x="336" y="716"/>
      <point x="287" y="771"/>
      <point x="186" y="771" type="curve" smooth="yes"/>
      <point x="125" y="771"/>
      <point x="80" y="752"/>
      <point x="40" y="727" type="curve"/>
      <point x="62" y="689" type="line"/>
      <point x="87" y="705"/>
      <point x="128" y="727"/>
      <point x="185" y="727" type="curve" smooth="yes"/>
      <point x="247" y="727"/>
      <point x="281" y="696"/>
      <point x="281" y="650" type="curve" smooth="yes"/>
      <point x="281" y="593"/>
      <point x="236" y="560"/>
      <point x="153" y="560" type="curve" smooth="yes"/>
      <point x="127" y="560" type="line"/>
      <point x="134" y="516" type="line"/>
      <point x="148" y="516" type="line" smooth="yes"/>
      <point x="253" y="516"/>
      <point x="291" y="480"/>
      <point x="291" y="415" type="curve" smooth="yes"/>
      <point x="291" y="353"/>
      <point x="238" y="323"/>
      <point x="178" y="323" type="curve" smooth="yes"/>
      <point x="121" y="323"/>
      <point x="90" y="335"/>
      <point x="55" y="356" type="curve"/>
      <point x="31" y="318" type="line"/>
      <point x="66" y="298"/>
      <point x="118" y="278"/>
      <point x="174" y="278" type="curve" smooth="yes"/>
      <point x="280" y="278"/>
      <point x="345" y="338"/>
      <point x="345" y="416" type="curve" smooth="yes"/>
      <point x="345" y="479"/>
      <point x="308" y="525"/>
      <point x="251" y="538" type="curve"/>
      <point x="297" y="553"/>
      <point x="336" y="596"/>
      <point x="336" y="651" type="curve" smooth="yes"/>
    </contour>
  </outline>
</glyph>
<glyph name="mu" format="1">
  <advance width="536"/>
  <unicode hex="00B5"/>
  <outline>
    <contour>
      <point x="84" y="-219" type="line"/>
      <point x="146" y="-208" type="line"/>
      <point x="146" y="13" type="line"/>
      <point x="170" y="-4"/>
      <point x="202" y="-12"/>
      <point x="241" y="-12" type="curve" smooth="yes"/>
      <point x="292" y="-12"/>
      <point x="351" y="17"/>
      <point x="393" y="55" type="curve"/>
      <point x="412" y="0" type="line"/>
      <point x="453" y="0" type="line"/>
      <point x="453" y="485" type="line"/>
      <point x="390" y="485" type="line"/>
      <point x="390" y="107" type="line"/>
      <point x="344" y="63"/>
      <point x="284" y="41"/>
      <point x="246" y="41" type="curve" smooth="yes"/>
      <point x="177" y="41"/>
      <point x="146" y="93"/>
      <point x="146" y="159" type="curve" smooth="yes"/>
      <point x="146" y="485" type="line"/>
      <point x="84" y="485" type="line"/>
    </contour>
  </outline>
</glyph>
<glyph name="paragraph" format="1">
  <advance width="827"/>
  <unicode hex="00B6"/>
  <outline>
    <contour>
      <point x="346" y="0" type="line"/>
      <point x="408" y="0" type="line"/>
      <point x="408" y="631" type="line"/>
      <point x="634" y="631" type="line"/>
      <point x="634" y="0" type="line"/>
      <point x="696" y="0" type="line"/>
      <point x="696" y="631" type="line"/>
      <point x="795" y="631" type="line"/>
      <point x="795" y="680" type="line"/>
      <point x="297" y="680" type="line" smooth="yes"/>
      <point x="154" y="680"/>
      <point x="52" y="624"/>
      <point x="52" y="475" type="curve"/>
      <point x="54" y="328"/>
      <point x="166" y="264"/>
      <point x="308" y="264" type="curve" smooth="yes"/>
      <point x="346" y="264" type="line"/>
    </contour>
  </outline>
</glyph>
<glyph name="periodcentered" format="1">
  <advance width="127"/>
  <unicode hex="00B7"/>
  <outline>
    <contour>
      <point x="111" y="289"/>
      <point x="90" y="309"/>
      <point x="64" y="309" type="curve" smooth="yes"/>
      <point x="37" y="309"/>
      <point x="16" y="289"/>
      <point x="16" y="262" type="curve" smooth="yes"/>
      <point x="16" y="236"/>
      <point x="37" y="214"/>
      <point x="64" y="214" type="curve" smooth="yes"/>
      <point x="90" y="214"/>
      <point x="111" y="236"/>
      <point x="111" y="262" type="curve"/>
    </contour>
  </outline>
</glyph>
<glyph name="cedilla" format="1">
  <advance width="218"/>
  <unicode hex="00B8"/>
  <outline>
    <contour>
      <point x="95" y="13" type="line"/>
      <point x="58" y="-81" type="line"/>
      <point x="108" y="-86"/>
      <point x="148" y="-106"/>
      <point x="148" y="-134" type="curve" smooth="yes"/>
      <point x="148" y="-160"/>
      <point x="118" y="-174"/>
      <point x="90" y="-174" type="curve" smooth="yes"/>
      <point x="69" y="-174"/>
      <point x="43" y="-166"/>
      <point x="31" y="-160" type="curve"/>
      <point x="16" y="-202" type="line"/>
      <point x="34" y="-213"/>
      <point x="66" y="-221"/>
      <point x="90" y="-221" type="curve" smooth="yes"/>
      <point x="149" y="-221"/>
      <point x="202" y="-193"/>
      <point x="202" y="-132" type="curve" smooth="yes"/>
      <point x="202" y="-97"/>
      <point x="167" y="-60"/>
      <point x="122" y="-54" type="curve"/>
      <point x="148" y="13" type="line"/>
    </contour>
    <contour>
      <point x="113" y="0" type="move" name="_bottom"/>
    </contour>
  </outline>
</glyph>
<glyph name="onesuperior" format="1">
  <advance width="321"/>
  <unicode hex="00B9"/>
  <outline>
    <contour>
      <point x="269" y="336" type="line"/>
      <point x="262" y="379" type="line"/>
      <point x="196" y="379" type="line"/>
      <point x="196" y="765" type="line"/>
      <point x="160" y="765" type="line"/>
      <point x="64" y="700" type="line"/>
      <point x="87" y="663" type="line"/>
      <point x="141" y="700" type="line"/>
      <point x="141" y="379" type="line"/>
      <point x="62" y="379" type="line"/>
      <point x="69" y="336" type="line"/>
    </contour>
  </outline>
</glyph>
<glyph name="guillemotright" format="1">
  <advance width="356"/>
  <unicode hex="00BB"/>
  <outline>
    <contour>
      <point x="185" y="406" type="line"/>
      <point x="162" y="365" type="line"/>
      <point x="276" y="245" type="line"/>
      <point x="162" y="125" type="line"/>
      <point x="185" y="84" type="line"/>
      <point x="324" y="223" type="line"/>
      <point x="324" y="267" type="line"/>
    </contour>
    <contour>
      <point x="33" y="406" type="line"/>
      <point x="10" y="365" type="line"/>
      <point x="123" y="245" type="line"/>
      <point x="10" y="125" type="line"/>
      <point x="33" y="84" type="line"/>
      <point x="173" y="223" type="line"/>
      <point x="173" y="267" type="line"/>
    </contour>
  </outline>
</glyph>
<glyph name="onehalf" format="1">
  <advance width="773"/>
  <unicode hex="00BD"/>
  <outline>
    <contour>
      <point x="707" y="258"/>
      <point x="669" y="326"/>
      <point x="561" y="326" type="curve" smooth="yes"/>
      <point x="493" y="326"/>
      <point x="441" y="288"/>
      <point x="439" y="288" type="curve"/>
      <point x="461" y="244" type="line"/>
      <point x="462" y="246"/>
      <point x="509" y="281"/>
      <point x="560" y="281" type="curve" smooth="yes"/>
      <point x="627" y="281"/>
      <point x="652" y="239"/>
      <point x="652" y="202" type="curve" smooth="yes"/>
      <point x="652" y="170"/>
      <point x="634" y="129"/>
      <point x="569" y="71" type="curve"/>
      <point x="415" y="-67" type="line"/>
      <point x="415" y="-110" type="line"/>
      <point x="721" y="-110" type="line"/>
      <point x="715" y="-67" type="line"/>
      <point x="479" y="-67" type="line"/>
      <point x="598" y="36" type="line" smooth="yes"/>
      <point x="671" y="99"/>
      <point x="707" y="146"/>
      <point x="707" y="202" type="curve" smooth="yes"/>
    </contour>
    <contour>
      <point x="269" y="336" type="line"/>
      <point x="262" y="379" type="line"/>
      <point x="196" y="379" type="line"/>
      <point x="196" y="765" type="line"/>
      <point x="160" y="765" type="line"/>
      <point x="64" y="700" type="line"/>
      <point x="87" y="663" type="line"/>
      <point x="141" y="700" type="line"/>
      <point x="141" y="379" type="line"/>
      <point x="62" y="379" type="line"/>
      <point x="69" y="336" type="line"/>
    </contour>
    <contour>
      <point x="498" y="498" type="line"/>
      <point x="444" y="501" type="line"/>
      <point x="154" y="0" type="line"/>
      <point x="207" y="-4" type="line"/>
    </contour>
  </outline>
</glyph>
<glyph name="Atilde" format="1">
  <advance width="584"/>
  <unicode hex="00C3"/>
  <outline>
    <contour>
      <point x="318" y="680" type="line"/>
      <point x="253" y="680" type="line"/>
      <point x="6" y="0" type="line"/>
      <point x="65" y="0" type="line"/>
      <point x="140" y="204" type="line"/>
      <point x="437" y="204" type="line"/>
      <point x="517" y="0" type="line"/>
      <point x="578" y="10" type="line"/>
    </contour>
    <contour>
      <point x="286" y="600" type="line"/>
      <point x="419" y="254" type="line"/>
      <point x="157" y="254" type="line"/>
    </contour>
    <contour>
      <point x="379" y="849" type="line"/>
      <point x="376" y="818"/>
      <point x="358" y="806"/>
      <point x="341" y="806" type="curve"/>
      <point x="306" y="806"/>
      <point x="284" y="853"/>
      <point x="228" y="853" type="curve" smooth="yes"/>
      <point x="182" y="853"/>
      <point x="142" y="833"/>
      <point x="145" y="762" type="curve"/>
      <point x="190" y="762" type="line"/>
      <point x="193" y="793"/>
      <point x="212" y="806"/>
      <point x="229" y="806" type="curve" smooth="yes"/>
      <point x="263" y="806"/>
      <point x="295" y="758"/>
      <point x="341" y="758" type="curve" smooth="yes"/>
      <point x="388" y="758"/>
      <point x="427" y="779"/>
      <point x="425" y="849" type="curve"/>
    </contour>
  </outline>
</glyph>
<glyph name="Adieresis" format="1">
  <advance width="584"/>
  <unicode hex="00C4"/>
  <outline>
    <contour>
      <point x="318" y="680" type="line"/>
      <point x="253" y="680" type="line"/>
      <point x="6" y="0" type="line"/>
      <point x="65" y="0" type="line"/>
      <point x="140" y="204" type="line"/>
      <point x="437" y="204" type="line"/>
      <point x="517" y="0" type="line"/>
      <point x="578" y="10" type="line"/>
    </contour>
    <contour>
      <point x="286" y="600" type="line"/>
      <point x="419" y="254" type="line"/>
      <point x="157" y="254" type="line"/>
    </contour>
    <contour>
      <point x="252" y="835"/>
      <point x="233" y="854"/>
      <point x="208" y="854" type="curve" smooth="yes"/>
      <point x="185" y="854"/>
      <point x="165" y="835"/>
      <point x="165" y="812" type="curve" smooth="yes"/>
      <point x="165" y="787"/>
      <point x="185" y="768"/>
      <point x="208" y="768" type="curve" smooth="yes"/>
      <point x="233" y="768"/>
      <point x="252" y="787"/>
      <point x="252" y="812" type="curve" smooth="yes"/>
    </contour>
    <contour>
      <point x="408" y="835"/>
      <point x="390" y="854"/>
      <point x="365" y="854" type="curve" smooth="yes"/>
      <point x="341" y="854"/>
      <point x="322" y="835"/>
      <point x="322" y="812" type="curve" smooth="yes"/>
      <point x="322" y="787"/>
      <point x="341" y="768"/>
      <point x="365" y="768" type="curve" smooth="yes"/>
      <point x="390" y="768"/>
      <point x="408" y="787"/>
      <point x="408" y="812" type="curve" smooth="yes"/>
    </contour>
  </outline>
</glyph>
<glyph name="AE" format="1">
  <advance width="850"/>
  <unicode hex="00C6"/>
  <outline>
    <contour>
      <point x="430" y="0" type="line"/>
      <point x="818" y="0" type="line"/>
      <point x="814" y="50" type="line"/>
      <point x="493" y="50" type="line"/>
      <point x="493" y="326" type="line"/>
      <point x="699" y="326" type="line"/>
      <point x="693" y="371" type="line"/>
      <point x="493" y="371" type="line"/>
      <point x="493" y="635" type="line"/>
      <point x="798" y="635" type="line"/>
      <point x="792" y="680" type="line"/>
      <point x="422" y="680" type="line"/>
      <point x="6" y="10" type="line"/>
      <point x="63" y="0" type="line"/>
      <point x="189" y="204" type="line"/>
      <point x="430" y="204" type="line"/>
    </contour>
    <contour>
      <point x="220" y="254" type="line"/>
      <point x="430" y="595" type="line"/>
      <point x="430" y="254" type="line"/>
    </contour>
  </outline>
</glyph>
<glyph name="Ccedilla" format="1">
  <advance width="600"/>
  <unicode hex="00C7"/>
  <outline>
    <contour>
      <point x="444" y="640"/>
      <point x="476" y="628"/>
      <point x="517" y="611" type="curve"/>
      <point x="537" y="657" type="line"/>
      <point x="499" y="683"/>
      <point x="412" y="694"/>
      <point x="371" y="694" type="curve" smooth="yes"/>
      <point x="174" y="694"/>
      <point x="73" y="536"/>
      <point x="73" y="336" type="curve" smooth="yes"/>
      <point x="73" y="159"/>
      <point x="148" y="2"/>
      <point x="335" y="-13" type="curve"/>
      <point x="309" y="-81" type="line"/>
      <point x="359" y="-86"/>
      <point x="399" y="-106"/>
      <point x="399" y="-134" type="curve" smooth="yes"/>
      <point x="399" y="-160"/>
      <point x="369" y="-174"/>
      <point x="341" y="-174" type="curve" smooth="yes"/>
      <point x="320" y="-174"/>
      <point x="294" y="-166"/>
      <point x="282" y="-160" type="curve"/>
      <point x="267" y="-202" type="line"/>
      <point x="285" y="-213"/>
      <point x="317" y="-221"/>
      <point x="341" y="-221" type="curve" smooth="yes"/>
      <point x="400" y="-221"/>
      <point x="453" y="-193"/>
      <point x="453" y="-132" type="curve" smooth="yes"/>
      <point x="453" y="-97"/>
      <point x="418" y="-60"/>
      <point x="373" y="-54" type="curve"/>
      <point x="389" y="-13" type="line"/>
      <point x="442" y="-9"/>
      <point x="504" y="5"/>
      <point x="537" y="23" type="curve"/>
      <point x="513" y="71" type="line"/>
      <point x="477" y="55"/>
      <point x="435" y="41"/>
      <point x="363" y="41" type="curve" smooth="yes"/>
      <point x="207" y="41"/>
      <point x="139" y="174"/>
      <point x="139" y="337" type="curve" smooth="yes"/>
      <point x="139" y="513"/>
      <point x="229" y="639"/>
      <point x="372" y="640" type="curve" smooth="yes"/>
    </contour>
  </outline>
</glyph>
<glyph name="Eacute" format="1">
  <advance width="524"/>
  <unicode hex="00C9"/>
  <outline>
    <contour>
      <point x="105" y="0" type="line"/>
      <point x="493" y="0" type="line"/>
      <point x="487" y="50" type="line"/>
      <point x="167" y="50" type="line"/>
      <point x="167" y="326" type="line"/>
      <point x="372" y="326" type="line"/>
      <point x="367" y="371" type="line"/>
      <point x="167" y="371" type="line"/>
      <point x="167" y="635" type="line"/>
      <point x="470" y="635" type="line"/>
      <point x="465" y="680" type="line"/>
      <point x="105" y="680" type="line"/>
    </contour>
    <contour>
      <point x="292" y="892" type="line"/>
      <point x="232" y="739" type="line"/>
      <point x="278" y="739" type="line"/>
      <point x="364" y="892" type="line"/>
    </contour>
  </outline>
</glyph>
<glyph name="Iacute" format="1">
  <advance width="272"/>
  <unicode hex="00CD"/>
  <outline>
    <contour>
      <point x="105" y="0" type="line"/>
      <point x="167" y="0" type="line"/>
      <point x="167" y="680" type="line"/>
      <point x="105" y="680" type="line"/>
    </contour>
    <contour>
      <point x="146" y="892" type="line"/>
      <point x="86" y="739" type="line"/>
      <point x="132" y="739" type="line"/>
      <point x="218" y="892" type="line"/>
    </contour>
  </outline>
</glyph>
<glyph name="Icircumflex" format="1">
  <advance width="272"/>
  <unicode hex="00CE"/>
  <outline>
    <contour>
      <point x="105" y="0" type="line"/>
      <point x="167" y="0" type="line"/>
      <point x="167" y="680" type="line"/>
      <point x="105" y="680" type="line"/>
    </contour>
    <contour>
      <point x="61" y="739" type="line"/>
      <point x="136" y="848" type="line"/>
      <point x="210" y="739" type="line"/>
      <point x="272" y="739" type="line"/>
      <point x="166" y="892" type="line"/>
      <point x="106" y="892" type="line"/>
      <point x="1" y="739" type="line"/>
    </contour>
  </outline>
</glyph>
<glyph name="Ntilde" format="1">
  <advance width="703"/>
  <unicode hex="00D1"/>
  <outline>
    <contour>
      <point x="105" y="0" type="line"/>
      <point x="167" y="0" type="line"/>
      <point x="167" y="560" type="line"/>
      <point x="181" y="531" type="line"/>
      <point x="559" y="0" type="line"/>
      <point x="600" y="0" type="line"/>
      <point x="600" y="680" type="line"/>
      <point x="537" y="680" type="line"/>
      <point x="537" y="129" type="line"/>
      <point x="503" y="188" type="line"/>
      <point x="146" y="680" type="line"/>
      <point x="105" y="680" type="line"/>
    </contour>
    <contour>
      <point x="458" y="849" type="line"/>
      <point x="455" y="818"/>
      <point x="437" y="806"/>
      <point x="420" y="806" type="curve"/>
      <point x="385" y="806"/>
      <point x="363" y="853"/>
      <point x="307" y="853" type="curve" smooth="yes"/>
      <point x="261" y="853"/>
      <point x="221" y="833"/>
      <point x="224" y="762" type="curve"/>
      <point x="269" y="762" type="line"/>
      <point x="272" y="793"/>
      <point x="291" y="806"/>
      <point x="308" y="806" type="curve" smooth="yes"/>
      <point x="342" y="806"/>
      <point x="374" y="758"/>
      <point x="420" y="758" type="curve" smooth="yes"/>
      <point x="467" y="758"/>
      <point x="506" y="779"/>
      <point x="504" y="849" type="curve"/>
    </contour>
  </outline>
</glyph>
<glyph name="Oacute" format="1">
  <advance width="736"/>
  <unicode hex="00D3"/>
  <outline>
    <contour>
      <point x="664" y="531"/>
      <point x="580" y="696"/>
      <point x="371" y="696" type="curve"/>
      <point x="174" y="692"/>
      <point x="73" y="537"/>
      <point x="73" y="337" type="curve" smooth="yes"/>
      <point x="73" y="152"/>
      <point x="156" y="-14"/>
      <point x="365" y="-14" type="curve"/>
      <point x="562" y="-11"/>
      <point x="664" y="156"/>
      <point x="664" y="345" type="curve" smooth="yes"/>
    </contour>
    <contour>
      <point x="207" y="41"/>
      <point x="139" y="175"/>
      <point x="139" y="338" type="curve" smooth="yes"/>
      <point x="139" y="514"/>
      <point x="229" y="640"/>
      <point x="372" y="640" type="curve"/>
      <point x="529" y="640"/>
      <point x="596" y="507"/>
      <point x="596" y="344" type="curve" smooth="yes"/>
      <point x="596" y="167"/>
      <point x="507" y="41"/>
      <point x="363" y="41" type="curve"/>
    </contour>
    <contour>
      <point x="381" y="892" type="line"/>
      <point x="321" y="739" type="line"/>
      <point x="367" y="739" type="line"/>
      <point x="453" y="892" type="line"/>
    </contour>
  </outline>
</glyph>
<glyph name="Odieresis" format="1">
  <advance width="736"/>
  <unicode hex="00D6"/>
  <outline>
    <contour>
      <point x="664" y="531"/>
      <point x="580" y="696"/>
      <point x="371" y="696" type="curve"/>
      <point x="174" y="692"/>
      <point x="73" y="537"/>
      <point x="73" y="337" type="curve" smooth="yes"/>
      <point x="73" y="152"/>
      <point x="156" y="-14"/>
      <point x="365" y="-14" type="curve"/>
      <point x="562" y="-11"/>
      <point x="664" y="156"/>
      <point x="664" y="345" type="curve" smooth="yes"/>
    </contour>
    <contour>
      <point x="207" y="41"/>
      <point x="139" y="175"/>
      <point x="139" y="338" type="curve" smooth="yes"/>
      <point x="139" y="514"/>
      <point x="229" y="640"/>
      <point x="372" y="640" type="curve"/>
      <point x="529" y="640"/>
      <point x="596" y="507"/>
      <point x="596" y="344" type="curve" smooth="yes"/>
      <point x="596" y="167"/>
      <point x="507" y="41"/>
      <point x="363" y="41" type="curve"/>
    </contour>
    <contour>
      <point x="337" y="835"/>
      <point x="318" y="854"/>
      <point x="293" y="854" type="curve" smooth="yes"/>
      <point x="270" y="854"/>
      <point x="250" y="835"/>
      <point x="250" y="812" type="curve" smooth="yes"/>
      <point x="250" y="787"/>
      <point x="270" y="768"/>
      <point x="293" y="768" type="curve" smooth="yes"/>
      <point x="318" y="768"/>
      <point x="337" y="787"/>
      <point x="337" y="812" type="curve" smooth="yes"/>
    </contour>
    <contour>
      <point x="493" y="835"/>
      <point x="475" y="854"/>
      <point x="450" y="854" type="curve" smooth="yes"/>
      <point x="426" y="854"/>
      <point x="407" y="835"/>
      <point x="407" y="812" type="curve" smooth="yes"/>
      <point x="407" y="787"/>
      <point x="426" y="768"/>
      <point x="450" y="768" type="curve" smooth="yes"/>
      <point x="475" y="768"/>
      <point x="493" y="787"/>
      <point x="493" y="812" type="curve" smooth="yes"/>
    </contour>
  </outline>
</glyph>
<glyph name="multiply" format="1">
  <advance width="469"/>
  <unicode hex="00D7"/>
  <outline>
    <contour>
      <point x="21" y="41" type="line"/>
      <point x="78" y="31" type="line"/>
      <point x="225" y="209" type="line"/>
      <point x="370" y="31" type="line"/>
      <point x="433" y="31" type="line"/>
      <point x="265" y="241" type="line"/>
      <point x="449" y="464" type="line"/>
      <point x="386" y="464" type="line"/>
      <point x="232" y="282" type="line"/>
      <point x="87" y="464" type="line"/>
      <point x="28" y="454" type="line"/>
      <point x="192" y="250" type="line"/>
    </contour>
  </outline>
</glyph>
<glyph name="Oslash" format="1">
  <advance width="736"/>
  <unicode hex="00D8"/>
  <outline>
    <contour>
      <point x="664" y="531"/>
      <point x="580" y="696"/>
      <point x="371" y="696" type="curve"/>
      <point x="174" y="692"/>
      <point x="73" y="537"/>
      <point x="73" y="337" type="curve" smooth="yes"/>
      <point x="73" y="152"/>
      <point x="156" y="-14"/>
      <point x="365" y="-14" type="curve"/>
      <point x="562" y="-11"/>
      <point x="664" y="156"/>
      <point x="664" y="345" type="curve" smooth="yes"/>
    </contour>
    <contour>
      <point x="327" y="41"/>
      <point x="296" y="48"/>
      <point x="270" y="61" type="curve"/>
      <point x="503" y="597" type="line"/>
      <point x="566" y="545"/>
      <point x="596" y="451"/>
      <point x="596" y="344" type="curve" smooth="yes"/>
      <point x="596" y="167"/>
      <point x="507" y="41"/>
      <point x="363" y="41" type="curve" smooth="yes"/>
    </contour>
    <contour>
      <point x="139" y="514"/>
      <point x="229" y="640"/>
      <point x="372" y="640" type="curve" smooth="yes"/>
      <point x="403" y="640"/>
      <point x="432" y="634"/>
      <point x="456" y="624" type="curve"/>
      <point x="224" y="91" type="line"/>
      <point x="166" y="145"/>
      <point x="139" y="236"/>
      <point x="139" y="338" type="curve" smooth="yes"/>
    </contour>
  </outline>
</glyph>
<glyph name="Ugrave" format="1">
  <advance width="685"/>
  <unicode hex="00D9"/>
  <outline>
    <contour>
      <point x="227" y="41"/>
      <point x="156" y="131"/>
      <point x="156" y="248" type="curve" smooth="yes"/>
      <point x="156" y="680" type="line"/>
      <point x="94" y="680" type="line"/>
      <point x="94" y="239" type="line" smooth="yes"/>
      <point x="94" y="93"/>
      <point x="188" y="-11"/>
      <point x="342" y="-12" type="curve"/>
      <point x="498" y="-12"/>
      <point x="591" y="93"/>
      <point x="591" y="239" type="curve" smooth="yes"/>
      <point x="591" y="680" type="line"/>
      <point x="528" y="680" type="line"/>
      <point x="528" y="248" type="line" smooth="yes"/>
      <point x="528" y="131"/>
      <point x="461" y="41"/>
      <point x="342" y="41" type="curve" smooth="yes"/>
    </contour>
    <contour>
      <point x="257" y="892" type="line"/>
      <point x="342" y="739" type="line"/>
      <point x="389" y="739" type="line"/>
      <point x="328" y="892" type="line"/>
    </contour>
  </outline>
</glyph>
<glyph name="Yacute" format="1">
  <advance width="547"/>
  <unicode hex="00DD"/>
  <outline>
    <contour>
      <point x="240" y="0" type="line"/>
      <point x="303" y="0" type="line"/>
      <point x="304" y="283" type="line"/>
      <point x="542" y="680" type="line"/>
      <point x="475" y="680" type="line"/>
      <point x="272" y="336" type="line"/>
      <point x="71" y="680" type="line"/>
      <point x="6" y="669" type="line"/>
      <point x="241" y="276" type="line"/>
    </contour>
    <contour>
      <point x="282" y="892" type="line"/>
      <point x="222" y="739" type="line"/>
      <point x="268" y="739" type="line"/>
      <point x="354" y="892" type="line"/>
    </contour>
  </outline>
</glyph>
<glyph name="germandbls" format="1">
  <advance width="577"/>
  <unicode hex="00DF"/>
  <outline>
    <contour>
      <point x="172" y="680"/>
      <point x="84" y="609"/>
      <point x="84" y="473" type="curve" smooth="yes"/>
      <point x="84" y="0" type="line"/>
      <point x="146" y="0" type="line"/>
      <point x="146" y="473" type="line" smooth="yes"/>
      <point x="146" y="564"/>
      <point x="196" y="627"/>
      <point x="295" y="627" type="curve" smooth="yes"/>
      <point x="368" y="627"/>
      <point x="429" y="590"/>
      <point x="429" y="502" type="curve" smooth="yes"/>
      <point x="429" y="417"/>
      <point x="384" y="378"/>
      <point x="264" y="378" type="curve"/>
      <point x="237" y="378" type="line"/>
      <point x="237" y="327" type="line"/>
      <point x="282" y="327" type="line" smooth="yes"/>
      <point x="392" y="327"/>
      <point x="463" y="288"/>
      <point x="463" y="186" type="curve" smooth="yes"/>
      <point x="463" y="80"/>
      <point x="379" y="52"/>
      <point x="272" y="52" type="curve" smooth="yes"/>
      <point x="221" y="52" type="line"/>
      <point x="221" y="0" type="line"/>
      <point x="270" y="0" type="line" smooth="yes"/>
      <point x="412" y="0"/>
      <point x="526" y="44"/>
      <point x="526" y="188" type="curve" smooth="yes"/>
      <point x="526" y="275"/>
      <point x="478" y="327"/>
      <point x="406" y="356" type="curve"/>
      <point x="462" y="384"/>
      <point x="491" y="432"/>
      <point x="491" y="503" type="curve" smooth="yes"/>
      <point x="491" y="624"/>
      <point x="402" y="680"/>
      <point x="297" y="680" type="curve" smooth="yes"/>
    </contour>
  </outline>
</glyph>
<glyph name="aacute" format="1">
  <advance width="500"/>
  <unicode hex="00E1"/>
  <outline>
    <contour>
      <point x="201" y="498"/>
      <point x="123" y="482"/>
      <point x="86" y="456" type="curve"/>
      <point x="105" y="412" type="line"/>
      <point x="140" y="428"/>
      <point x="173" y="446"/>
      <point x="244" y="446" type="curve" smooth="yes"/>
      <point x="323" y="446"/>
      <point x="360" y="397"/>
      <point x="360" y="330" type="curve" smooth="yes"/>
      <point x="360" y="281" type="line"/>
      <point x="225" y="281" type="line"/>
      <point x="123" y="282"/>
      <point x="52" y="229"/>
      <point x="52" y="136" type="curve" smooth="yes"/>
      <point x="52" y="51"/>
      <point x="105" y="-13"/>
      <point x="215" y="-13" type="curve" smooth="yes"/>
      <point x="272" y="-13"/>
      <point x="332" y="20"/>
      <point x="363" y="52" type="curve"/>
      <point x="381" y="0" type="line"/>
      <point x="422" y="0" type="line"/>
      <point x="422" y="340" type="line" smooth="yes"/>
      <point x="422" y="435"/>
      <point x="352" y="498"/>
      <point x="241" y="498" type="curve" smooth="yes"/>
    </contour>
    <contour>
      <point x="140" y="38"/>
      <point x="113" y="90"/>
      <point x="113" y="136" type="curve" smooth="yes"/>
      <point x="113" y="192"/>
      <point x="150" y="240"/>
      <point x="223" y="240" type="curve" smooth="yes"/>
      <point x="360" y="240" type="line"/>
      <point x="360" y="117" type="line"/>
      <point x="326" y="75"/>
      <point x="276" y="38"/>
      <point x="213" y="38" type="curve" smooth="yes"/>
    </contour>
    <contour>
      <point x="253" y="742" type="line"/>
      <point x="192" y="589" type="line"/>
      <point x="239" y="589" type="line"/>
      <point x="324" y="742" type="line"/>
    </contour>
  </outline>
</glyph>
<glyph name="atilde" format="1">
  <advance width="500"/>
  <unicode hex="00E3"/>
  <outline>
    <contour>
      <point x="201" y="498"/>
      <point x="123" y="482"/>
      <point x="86" y="456" type="curve"/>
      <point x="105" y="412" type="line"/>
      <point x="140" y="428"/>
      <point x="173" y="446"/>
      <point x="244" y="446" type="curve" smooth="yes"/>
      <point x="323" y="446"/>
      <point x="360" y="397"/>
      <point x="360" y="330" type="curve" smooth="yes"/>
      <point x="360" y="281" type="line"/>
      <point x="225" y="281" type="line"/>
      <point x="123" y="282"/>
      <point x="52" y="229"/>
      <point x="52" y="136" type="curve" smooth="yes"/>
      <point x="52" y="51"/>
      <point x="105" y="-13"/>
      <point x="215" y="-13" type="curve" smooth="yes"/>
      <point x="272" y="-13"/>
      <point x="332" y="20"/>
      <point x="363" y="52" type="curve"/>
      <point x="381" y="0" type="line"/>
      <point x="422" y="0" type="line"/>
      <point x="422" y="340" type="line" smooth="yes"/>
      <point x="422" y="435"/>
      <point x="352" y="498"/>
      <point x="241" y="498" type="curve" smooth="yes"/>
    </contour>
    <contour>
      <point x="140" y="38"/>
      <point x="113" y="90"/>
      <point x="113" y="136" type="curve" smooth="yes"/>
      <point x="113" y="192"/>
      <point x="150" y="240"/>
      <point x="223" y="240" type="curve" smooth="yes"/>
      <point x="360" y="240" type="line"/>
      <point x="360" y="117" type="line"/>
      <point x="326" y="75"/>
      <point x="276" y="38"/>
      <point x="213" y="38" type="curve" smooth="yes"/>
    </contour>
    <contour>
      <point x="335" y="699" type="line"/>
      <point x="332" y="668"/>
      <point x="314" y="656"/>
      <point x="297" y="656" type="curve"/>
      <point x="262" y="656"/>
      <point x="241" y="703"/>
      <point x="185" y="703" type="curve" smooth="yes"/>
      <point x="138" y="703"/>
      <point x="99" y="683"/>
      <point x="101" y="612" type="curve"/>
      <point x="148" y="612" type="line"/>
      <point x="150" y="643"/>
      <point x="167" y="656"/>
      <point x="185" y="656" type="curve" smooth="yes"/>
      <point x="220" y="656"/>
      <point x="253" y="608"/>
      <point x="297" y="608" type="curve" smooth="yes"/>
      <point x="344" y="608"/>
      <point x="384" y="629"/>
      <point x="382" y="699" type="curve"/>
    </contour>
  </outline>
</glyph>
<glyph name="igrave" format="1">
  <advance width="232"/>
  <unicode hex="00EC"/>
  <outline>
    <contour>
      <point x="85" y="0" type="line"/>
      <point x="148" y="0" type="line"/>
      <point x="148" y="485" type="line"/>
      <point x="85" y="485" type="line"/>
    </contour>
    <contour>
      <point x="15" y="742" type="line"/>
      <point x="100" y="589" type="line"/>
      <point x="147" y="589" type="line"/>
      <point x="87" y="742" type="line"/>
    </contour>
  </outline>
</glyph>
<glyph name="iacute" format="1">
  <advance width="232"/>
  <unicode hex="00ED"/>
  <outline>
    <contour>
      <point x="85" y="0" type="line"/>
      <point x="148" y="0" type="line"/>
      <point x="148" y="485" type="line"/>
      <point x="85" y="485" type="line"/>
    </contour>
    <contour>
      <point x="146" y="742" type="line"/>
      <point x="85" y="589" type="line"/>
      <point x="132" y="589" type="line"/>
      <point x="217" y="742" type="line"/>
    </contour>
  </outline>
</glyph>
<glyph name="idieresis" format="1">
  <advance width="232"/>
  <unicode hex="00EF"/>
  <outline>
    <contour>
      <point x="85" y="0" type="line"/>
      <point x="148" y="0" type="line"/>
      <point x="148" y="485" type="line"/>
      <point x="85" y="485" type="line"/>
    </contour>
    <contour>
      <point x="83" y="685"/>
      <point x="62" y="704"/>
      <point x="38" y="704" type="curve" smooth="yes"/>
      <point x="14" y="704"/>
      <point x="-6" y="685"/>
      <point x="-6" y="662" type="curve" smooth="yes"/>
      <point x="-6" y="637"/>
      <point x="14" y="618"/>
      <point x="38" y="618" type="curve" smooth="yes"/>
      <point x="62" y="618"/>
      <point x="83" y="637"/>
      <point x="83" y="662" type="curve" smooth="yes"/>
    </contour>
    <contour>
      <point x="239" y="685"/>
      <point x="219" y="704"/>
      <point x="195" y="704" type="curve" smooth="yes"/>
      <point x="171" y="704"/>
      <point x="150" y="685"/>
      <point x="150" y="662" type="curve" smooth="yes"/>
      <point x="150" y="637"/>
      <point x="171" y="618"/>
      <point x="195" y="618" type="curve" smooth="yes"/>
      <point x="219" y="618"/>
      <point x="239" y="637"/>
      <point x="239" y="662" type="curve" smooth="yes"/>
    </contour>
  </outline>
</glyph>
<glyph name="eth" format="1">
  <advance width="540"/>
  <unicode hex="00F0"/>
  <outline>
    <contour>
      <point x="394" y="664" type="line"/>
      <point x="364" y="702" type="line"/>
      <point x="282" y="629" type="line"/>
      <point x="235" y="664"/>
      <point x="184" y="687"/>
      <point x="134" y="698" type="curve"/>
      <point x="107" y="659" type="line"/>
      <point x="152" y="650"/>
      <point x="198" y="626"/>
      <point x="241" y="593" type="curve"/>
      <point x="151" y="514" type="line"/>
      <point x="180" y="475" type="line"/>
      <point x="278" y="561" type="line"/>
      <point x="342" y="500"/>
      <point x="393" y="415"/>
      <point x="408" y="320" type="curve"/>
      <point x="371" y="355"/>
      <point x="312" y="387"/>
      <point x="252" y="387" type="curve" smooth="yes"/>
      <point x="127" y="387"/>
      <point x="52" y="292"/>
      <point x="52" y="190" type="curve" smooth="yes"/>
      <point x="52" y="85"/>
      <point x="132" y="-13"/>
      <point x="251" y="-13" type="curve" smooth="yes"/>
      <point x="388" y="-13"/>
      <point x="477" y="83"/>
      <point x="477" y="261" type="curve" smooth="yes"/>
      <point x="477" y="395"/>
      <point x="410" y="517"/>
      <point x="320" y="599" type="curve"/>
    </contour>
    <contour>
      <point x="167" y="40"/>
      <point x="115" y="109"/>
      <point x="115" y="185" type="curve" smooth="yes"/>
      <point x="115" y="265"/>
      <point x="166" y="337"/>
      <point x="252" y="337" type="curve" smooth="yes"/>
      <point x="325" y="337"/>
      <point x="384" y="295"/>
      <point x="413" y="248" type="curve"/>
      <point x="409" y="122"/>
      <point x="360" y="40"/>
      <point x="253" y="40" type="curve" smooth="yes"/>
    </contour>
  </outline>
</glyph>
<glyph name="odieresis" format="1">
  <advance width="528"/>
  <unicode hex="00F6"/>
  <outline>
    <contour>
      <point x="52" y="97"/>
      <point x="116" y="-11"/>
      <point x="257" y="-13" type="curve"/>
      <point x="398" y="-13"/>
      <point x="474" y="92"/>
      <point x="475" y="239" type="curve"/>
      <point x="475" y="389"/>
      <point x="410" y="498"/>
      <point x="267" y="498" type="curve"/>
      <point x="127" y="496"/>
      <point x="54" y="389"/>
      <point x="52" y="245" type="curve"/>
    </contour>
    <contour>
      <point x="379" y="445"/>
      <point x="414" y="356"/>
      <point x="414" y="239" type="curve"/>
      <point x="412" y="123"/>
      <point x="366" y="40"/>
      <point x="258" y="40" type="curve" smooth="yes"/>
      <point x="149" y="40"/>
      <point x="115" y="127"/>
      <point x="115" y="246" type="curve"/>
      <point x="117" y="360"/>
      <point x="162" y="445"/>
      <point x="269" y="445" type="curve" smooth="yes"/>
    </contour>
    <contour>
      <point x="232" y="685"/>
      <point x="213" y="704"/>
      <point x="189" y="704" type="curve" smooth="yes"/>
      <point x="164" y="704"/>
      <point x="145" y="685"/>
      <point x="145" y="662" type="curve" smooth="yes"/>
      <point x="145" y="637"/>
      <point x="164" y="618"/>
      <point x="189" y="618" type="curve" smooth="yes"/>
      <point x="213" y="618"/>
      <point x="232" y="637"/>
      <point x="232" y="662" type="curve" smooth="yes"/>
    </contour>
    <contour>
      <point x="389" y="685"/>
      <point x="370" y="704"/>
      <point x="345" y="704" type="curve" smooth="yes"/>
      <point x="321" y="704"/>
      <point x="302" y="685"/>
      <point x="302" y="662" type="curve" smooth="yes"/>
      <point x="302" y="637"/>
      <point x="321" y="618"/>
      <point x="345" y="618" type="curve" smooth="yes"/>
      <point x="370" y="618"/>
      <point x="389" y="637"/>
      <point x="389" y="662" type="curve" smooth="yes"/>
    </contour>
  </outline>
</glyph>
<glyph name="yacute" format="1">
  <advance width="469"/>
  <unicode hex="00FD"/>
  <outline>
    <contour>
      <point x="181" y="-98" type="line"/>
      <point x="164" y="-143"/>
      <point x="135" y="-156"/>
      <point x="86" y="-179" type="curve"/>
      <point x="103" y="-219" type="line"/>
      <point x="167" y="-206"/>
      <point x="216" y="-167"/>
      <point x="236" y="-112" type="curve"/>
      <point x="315" y="117" type="line"/>
      <point x="449" y="485" type="line"/>
      <point x="389" y="485" type="line"/>
      <point x="239" y="83" type="line"/>
      <point x="80" y="485" type="line"/>
      <point x="21" y="475" type="line"/>
      <point x="213" y="-7" type="line"/>
    </contour>
    <contour>
      <point x="251" y="742" type="line"/>
      <point x="190" y="589" type="line"/>
      <point x="237" y="589" type="line"/>
      <point x="322" y="742" type="line"/>
    </contour>
  </outline>
</glyph>
<glyph name="ydieresis" format="1">
  <advance width="469"/>
  <unicode hex="00FF"/>
  <outline>
    <contour>
      <point x="181" y="-98" type="line"/>
      <point x="164" y="-143"/>
      <point x="135" y="-156"/>
      <point x="86" y="-179" type="curve"/>
      <point x="103" y="-219" type="line"/>
      <point x="167" y="-206"/>
      <point x="216" y="-167"/>
      <point x="236" y="-112" type="curve"/>
      <point x="315" y="117" type="line"/>
      <point x="449" y="485" type="line"/>
      <point x="389" y="485" type="line"/>
      <point x="239" y="83" type="line"/>
      <point x="80" y="485" type="line"/>
      <point x="21" y="475" type="line"/>
      <point x="213" y="-7" type="line"/>
    </contour>
    <contour>
      <point x="206" y="685"/>
      <point x="188" y="704"/>
      <point x="163" y="704" type="curve" smooth="yes"/>
      <point x="139" y="704"/>
      <point x="120" y="685"/>
      <point x="120" y="662" type="curve" smooth="yes"/>
      <point x="120" y="637"/>
      <point x="139" y="618"/>
      <point x="163" y="618" type="curve" smooth="yes"/>
      <point x="188" y="618"/>
      <point x="206" y="637"/>
      <point x="206" y="662" type="curve" smooth="yes"/>
    </contour>
    <contour>
      <point x="363" y="685"/>
      <point x="344" y="704"/>
      <point x="321" y="704" type="curve" smooth="yes"/>
      <point x="295" y="704"/>
      <point x="276" y="685"/>
      <point x="276" y="662" type="curve" smooth="yes"/>
      <point x="276" y="637"/>
      <point x="295" y="618"/>
      <point x="321" y="618" type="curve" smooth="yes"/>
      <point x="344" y="618"/>
      <point x="363" y="637"/>
      <point x="363" y="662" type="curve" smooth="yes"/>
    </contour>
  </outline>
</glyph>
<glyph name="Aogonek" format="1">
  <advance width="584"/>
  <unicode hex="0104"/>
  <outline>
    <contour>
      <point x="318" y="680" type="line"/>
      <point x="253" y="680" type="line"/>
      <point x="6" y="0" type="line"/>
      <point x="65" y="0" type="line"/>
      <point x="140" y="204" type="line"/>
      <point x="437" y="204" type="line"/>
      <point x="515" y="3" type="line"/>
      <point x="481" y="-24"/>
      <point x="459" y="-71"/>
      <point x="459" y="-111" type="curve" smooth="yes"/>
      <point x="459" y="-169"/>
      <point x="503" y="-207"/>
      <point x="563" y="-207" type="curve" smooth="yes"/>
      <point x="597" y="-207"/>
      <point x="626" y="-195"/>
      <point x="643" y="-177" type="curve"/>
      <point x="621" y="-139" type="line"/>
      <point x="605" y="-153"/>
      <point x="588" y="-160"/>
      <point x="566" y="-160" type="curve" smooth="yes"/>
      <point x="540" y="-160"/>
      <point x="514" y="-147"/>
      <point x="514" y="-107" type="curve" smooth="yes"/>
      <point x="514" y="-74"/>
      <point x="548" y="-13"/>
      <point x="578" y="10" type="curve"/>
    </contour>
    <contour>
      <point x="286" y="600" type="line"/>
      <point x="419" y="254" type="line"/>
      <point x="157" y="254" type="line"/>
    </contour>
  </outline>
</glyph>
<glyph name="aogonek" format="1">
  <advance width="500"/>
  <unicode hex="0105"/>
  <outline>
    <contour>
      <point x="201" y="498"/>
      <point x="123" y="482"/>
      <point x="86" y="456" type="curve"/>
      <point x="105" y="412" type="line"/>
      <point x="140" y="428"/>
      <point x="173" y="446"/>
      <point x="244" y="446" type="curve" smooth="yes"/>
      <point x="323" y="446"/>
      <point x="360" y="397"/>
      <point x="360" y="330" type="curve" smooth="yes"/>
      <point x="360" y="281" type="line"/>
      <point x="225" y="281" type="line"/>
      <point x="123" y="282"/>
      <point x="52" y="229"/>
      <point x="52" y="136" type="curve" smooth="yes"/>
      <point x="52" y="51"/>
      <point x="105" y="-13"/>
      <point x="215" y="-13" type="curve" smooth="yes"/>
      <point x="272" y="-13"/>
      <point x="332" y="20"/>
      <point x="363" y="52" type="curve"/>
      <point x="374" y="18" type="line"/>
      <point x="337" y="-10"/>
      <point x="300" y="-62"/>
      <point x="300" y="-111" type="curve" smooth="yes"/>
      <point x="300" y="-169"/>
      <point x="344" y="-207"/>
      <point x="403" y="-207" type="curve" smooth="yes"/>
      <point x="437" y="-207"/>
      <point x="468" y="-195"/>
      <point x="485" y="-177" type="curve"/>
      <point x="462" y="-139" type="line"/>
      <point x="447" y="-153"/>
      <point x="429" y="-160"/>
      <point x="408" y="-160" type="curve" smooth="yes"/>
      <point x="381" y="-160"/>
      <point x="356" y="-147"/>
      <point x="356" y="-107" type="curve" smooth="yes"/>
      <point x="356" y="-69"/>
      <point x="394" y="-22"/>
      <point x="422" y="0" type="curve"/>
      <point x="422" y="340" type="line" smooth="yes"/>
      <point x="422" y="435"/>
      <point x="352" y="498"/>
      <point x="241" y="498" type="curve" smooth="yes"/>
    </contour>
    <contour>
      <point x="140" y="38"/>
      <point x="113" y="90"/>
      <point x="113" y="136" type="curve" smooth="yes"/>
      <point x="113" y="192"/>
      <point x="150" y="240"/>
      <point x="223" y="240" type="curve" smooth="yes"/>
      <point x="360" y="240" type="line"/>
      <point x="360" y="117" type="line"/>
      <point x="326" y="75"/>
      <point x="276" y="38"/>
      <point x="213" y="38" type="curve" smooth="yes"/>
    </contour>
  </outline>
</glyph>
<glyph name="dcroat" format="1">
  <advance width="542"/>
  <unicode hex="0111"/>
  <outline>
    <contour>
      <point x="522" y="566" type="line"/>
      <point x="515" y="611" type="line"/>
      <point x="458" y="611" type="line"/>
      <point x="458" y="705" type="line"/>
      <point x="395" y="696" type="line"/>
      <point x="395" y="611" type="line"/>
      <point x="267" y="611" type="line"/>
      <point x="274" y="566" type="line"/>
      <point x="395" y="566" type="line"/>
      <point x="395" y="444" type="line"/>
      <point x="356" y="475"/>
      <point x="304" y="498"/>
      <point x="260" y="498" type="curve" smooth="yes"/>
      <point x="118" y="498"/>
      <point x="52" y="391"/>
      <point x="52" y="241" type="curve" smooth="yes"/>
      <point x="52" y="92"/>
      <point x="118" y="-13"/>
      <point x="260" y="-13" type="curve" smooth="yes"/>
      <point x="307" y="-13"/>
      <point x="360" y="10"/>
      <point x="401" y="43" type="curve"/>
      <point x="417" y="0" type="line"/>
      <point x="458" y="0" type="line"/>
      <point x="458" y="566" type="line"/>
    </contour>
    <contour>
      <point x="306" y="445"/>
      <point x="354" y="425"/>
      <point x="395" y="386" type="curve"/>
      <point x="395" y="98" type="line"/>
      <point x="354" y="59"/>
      <point x="306" y="40"/>
      <point x="266" y="40" type="curve" smooth="yes"/>
      <point x="156" y="40"/>
      <point x="115" y="124"/>
      <point x="115" y="242" type="curve" smooth="yes"/>
      <point x="115" y="360"/>
      <point x="156" y="445"/>
      <point x="266" y="445" type="curve" smooth="yes"/>
    </contour>
  </outline>
</glyph>
<glyph name="emacron" format="1">
  <advance width="522"/>
  <unicode hex="0113"/>
  <outline>
    <contour>
      <point x="475" y="239" type="line"/>
      <point x="475" y="388"/>
      <point x="415" y="498"/>
      <point x="272" y="498" type="curve" smooth="yes"/>
      <point x="129" y="498"/>
      <point x="54" y="391"/>
      <point x="52" y="245" type="curve"/>
      <point x="52" y="94"/>
      <point x="129" y="-13"/>
      <point x="288" y="-13" type="curve" smooth="yes"/>
      <point x="327" y="-13"/>
      <point x="409" y="0"/>
      <point x="449" y="25" type="curve"/>
      <point x="428" y="71" type="line"/>
      <point x="394" y="54"/>
      <point x="356" y="37"/>
      <point x="285" y="37" type="curve" smooth="yes"/>
      <point x="164" y="37"/>
      <point x="116" y="123"/>
      <point x="115" y="239" type="curve"/>
    </contour>
    <contour>
      <point x="365" y="446"/>
      <point x="403" y="377"/>
      <point x="412" y="282" type="curve"/>
      <point x="117" y="282" type="line"/>
      <point x="127" y="377"/>
      <point x="173" y="446"/>
      <point x="269" y="446" type="curve" smooth="yes"/>
    </contour>
    <contour>
      <point x="150" y="689" type="line"/>
      <point x="150" y="640" type="line"/>
      <point x="391" y="640" type="line"/>
      <point x="391" y="689" type="line"/>
    </contour>
  </outline>
</glyph>
<glyph name="Edotaccent" format="1">
  <advance width="524"/>
  <unicode hex="0116"/>
  <outline>
    <contour>
      <point x="105" y="0" type="line"/>
      <point x="493" y="0" type="line"/>
      <point x="487" y="50" type="line"/>
      <point x="167" y="50" type="line"/>
      <point x="167" y="326" type="line"/>
      <point x="372" y="326" type="line"/>
      <point x="367" y="371" type="line"/>
      <point x="167" y="371" type="line"/>
      <point x="167" y="635" type="line"/>
      <point x="470" y="635" type="line"/>
      <point x="465" y="680" type="line"/>
      <point x="105" y="680" type="line"/>
    </contour>
    <contour>
      <point x="329" y="842"/>
      <point x="308" y="864"/>
      <point x="282" y="864" type="curve" smooth="yes"/>
      <point x="255" y="864"/>
      <point x="234" y="842"/>
      <point x="234" y="816" type="curve" smooth="yes"/>
      <point x="234" y="789"/>
      <point x="255" y="768"/>
      <point x="282" y="768" type="curve" smooth="yes"/>
      <point x="308" y="768"/>
      <point x="329" y="789"/>
      <point x="329" y="816" type="curve" smooth="yes"/>
    </contour>
  </outline>
</glyph>
<glyph name="edotaccent" format="1">
  <advance width="522"/>
  <unicode hex="0117"/>
  <outline>
    <contour>
      <point x="475" y="239" type="line"/>
      <point x="475" y="388"/>
      <point x="415" y="498"/>
      <point x="272" y="498" type="curve" smooth="yes"/>
      <point x="129" y="498"/>
      <point x="54" y="391"/>
      <point x="52" y="245" type="curve"/>
      <point x="52" y="94"/>
      <point x="129" y="-13"/>
      <point x="288" y="-13" type="curve" smooth="yes"/>
      <point x="327" y="-13"/>
      <point x="409" y="0"/>
      <point x="449" y="25" type="curve"/>
      <point x="428" y="71" type="line"/>
      <point x="394" y="54"/>
      <point x="356" y="37"/>
      <point x="285" y="37" type="curve" smooth="yes"/>
      <point x="164" y="37"/>
      <point x="116" y="123"/>
      <point x="115" y="239" type="curve"/>
    </contour>
    <contour>
      <point x="365" y="446"/>
      <point x="403" y="377"/>
      <point x="412" y="282" type="curve"/>
      <point x="117" y="282" type="line"/>
      <point x="127" y="377"/>
      <point x="173" y="446"/>
      <point x="269" y="446" type="curve" smooth="yes"/>
    </contour>
    <contour>
      <point x="318" y="692"/>
      <point x="297" y="714"/>
      <point x="271" y="714" type="curve" smooth="yes"/>
      <point x="244" y="714"/>
      <point x="223" y="692"/>
      <point x="223" y="666" type="curve" smooth="yes"/>
      <point x="223" y="639"/>
      <point x="244" y="618"/>
      <point x="271" y="618" type="curve" smooth="yes"/>
      <point x="297" y="618"/>
      <point x="318" y="639"/>
      <point x="318" y="666" type="curve" smooth="yes"/>
    </contour>
  </outline>
</glyph>
<glyph name="eogonek" format="1">
  <advance width="522"/>
  <unicode hex="0119"/>
  <outline>
    <contour>
      <point x="475" y="239" type="line"/>
      <point x="475" y="388"/>
      <point x="415" y="498"/>
      <point x="272" y="498" type="curve" smooth="yes"/>
      <point x="129" y="498"/>
      <point x="54" y="391"/>
      <point x="52" y="245" type="curve"/>
      <point x="52" y="94"/>
      <point x="129" y="-13"/>
      <point x="288" y="-13" type="curve" smooth="yes"/>
      <point x="292" y="-13"/>
      <point x="297" y="-13"/>
      <point x="303" y="-12" type="curve"/>
      <point x="277" y="-40"/>
      <point x="262" y="-78"/>
      <point x="262" y="-111" type="curve" smooth="yes"/>
      <point x="262" y="-169"/>
      <point x="307" y="-207"/>
      <point x="366" y="-207" type="curve" smooth="yes"/>
      <point x="401" y="-207"/>
      <point x="429" y="-195"/>
      <point x="447" y="-177" type="curve"/>
      <point x="423" y="-139" type="line"/>
      <point x="409" y="-153"/>
      <point x="391" y="-160"/>
      <point x="370" y="-160" type="curve" smooth="yes"/>
      <point x="344" y="-160"/>
      <point x="318" y="-147"/>
      <point x="318" y="-107" type="curve" smooth="yes"/>
      <point x="318" y="-75"/>
      <point x="351" y="-25"/>
      <point x="385" y="0" type="curve"/>
      <point x="409" y="6"/>
      <point x="432" y="15"/>
      <point x="449" y="25" type="curve"/>
      <point x="428" y="71" type="line"/>
      <point x="394" y="54"/>
      <point x="356" y="37"/>
      <point x="285" y="37" type="curve" smooth="yes"/>
      <point x="164" y="37"/>
      <point x="116" y="123"/>
      <point x="115" y="239" type="curve"/>
    </contour>
    <contour>
      <point x="365" y="446"/>
      <point x="403" y="377"/>
      <point x="412" y="282" type="curve"/>
      <point x="117" y="282" type="line"/>
      <point x="127" y="377"/>
      <point x="173" y="446"/>
      <point x="269" y="446" type="curve" smooth="yes"/>
    </contour>
  </outline>
</glyph>
<glyph name="Imacron" format="1">
  <advance width="272"/>
  <unicode hex="012A"/>
  <outline>
    <contour>
      <point x="105" y="0" type="line"/>
      <point x="167" y="0" type="line"/>
      <point x="167" y="680" type="line"/>
      <point x="105" y="680" type="line"/>
    </contour>
    <contour>
      <point x="16" y="839" type="line"/>
      <point x="16" y="790" type="line"/>
      <point x="257" y="790" type="line"/>
      <point x="257" y="839" type="line"/>
    </contour>
  </outline>
</glyph>
<glyph name="imacron" format="1">
  <advance width="232"/>
  <unicode hex="012B"/>
  <outline>
    <contour>
      <point x="85" y="0" type="line"/>
      <point x="148" y="0" type="line"/>
      <point x="148" y="485" type="line"/>
      <point x="85" y="485" type="line"/>
    </contour>
    <contour>
      <point x="-5" y="689" type="line"/>
      <point x="-5" y="640" type="line"/>
      <point x="237" y="640" type="line"/>
      <point x="237" y="689" type="line"/>
    </contour>
  </outline>
</glyph>
<glyph name="iogonek" format="1">
  <advance width="232"/>
  <unicode hex="012F"/>
  <outline>
    <contour>
      <point x="148" y="485" type="line"/>
      <point x="85" y="485" type="line"/>
      <point x="85" y="6" type="line"/>
      <point x="53" y="-23"/>
      <point x="24" y="-68"/>
      <point x="24" y="-111" type="curve" smooth="yes"/>
      <point x="24" y="-169"/>
      <point x="70" y="-207"/>
      <point x="127" y="-207" type="curve" smooth="yes"/>
      <point x="162" y="-207"/>
      <point x="192" y="-195"/>
      <point x="209" y="-177" type="curve"/>
      <point x="187" y="-139" type="line"/>
      <point x="171" y="-153"/>
      <point x="154" y="-160"/>
      <point x="134" y="-160" type="curve" smooth="yes"/>
      <point x="106" y="-160"/>
      <point x="81" y="-147"/>
      <point x="81" y="-107" type="curve" smooth="yes"/>
      <point x="81" y="-69"/>
      <point x="119" y="-22"/>
      <point x="148" y="0" type="curve"/>
    </contour>
    <contour>
      <point x="69" y="611"/>
      <point x="88" y="591"/>
      <point x="116" y="591" type="curve" smooth="yes"/>
      <point x="142" y="591"/>
      <point x="164" y="611"/>
      <point x="164" y="638" type="curve" smooth="yes"/>
      <point x="164" y="665"/>
      <point x="142" y="685"/>
      <point x="116" y="685" type="curve" smooth="yes"/>
      <point x="88" y="685"/>
      <point x="69" y="665"/>
      <point x="69" y="638" type="curve" smooth="yes"/>
    </contour>
  </outline>
</glyph>
<glyph name="Idotaccent" format="1">
  <advance width="272"/>
  <unicode hex="0130"/>
  <outline>
    <contour>
      <point x="105" y="0" type="line"/>
      <point x="167" y="0" type="line"/>
      <point x="167" y="680" type="line"/>
      <point x="105" y="680" type="line"/>
    </contour>
    <contour>
      <point x="183" y="842"/>
      <point x="162" y="864"/>
      <point x="136" y="864" type="curve" smooth="yes"/>
      <point x="109" y="864"/>
      <point x="88" y="842"/>
      <point x="88" y="816" type="curve" smooth="yes"/>
      <point x="88" y="789"/>
      <point x="109" y="768"/>
      <point x="136" y="768" type="curve" smooth="yes"/>
      <point x="162" y="768"/>
      <point x="183" y="789"/>
      <point x="183" y="816" type="curve" smooth="yes"/>
    </contour>
  </outline>
</glyph>
<glyph name="dotlessi" format="1">
  <advance width="232"/>
  <unicode hex="0131"/>
  <outline>
    <contour>
      <point x="85" y="0" type="line"/>
      <point x="148" y="0" type="line"/>
      <point x="148" y="485" type="line"/>
      <point x="85" y="485" type="line"/>
    </contour>
    <contour>
      <point x="118" y="535" type="move" name="top"/>
    </contour>
  </outline>
</glyph>
<glyph name="Kcedilla" format="1">
  <advance width="603"/>
  <unicode hex="0136"/>
  <outline>
    <contour>
      <point x="519" y="0" type="line"/>
      <point x="593" y="0" type="line"/>
      <point x="283" y="391" type="line"/>
      <point x="513" y="657" type="line"/>
      <point x="473" y="695" type="line"/>
      <point x="167" y="335" type="line"/>
      <point x="167" y="680" type="line"/>
      <point x="105" y="680" type="line"/>
      <point x="105" y="0" type="line"/>
      <point x="167" y="0" type="line"/>
      <point x="167" y="257" type="line"/>
      <point x="244" y="346" type="line"/>
    </contour>
    <contour>
      <point x="391" y="-41"/>
      <point x="370" y="-21"/>
      <point x="344" y="-21" type="curve" smooth="yes"/>
      <point x="317" y="-21"/>
      <point x="295" y="-42"/>
      <point x="295" y="-69" type="curve" smooth="yes"/>
      <point x="295" y="-92"/>
      <point x="311" y="-113"/>
      <point x="338" y="-116" type="curve"/>
      <point x="336" y="-151"/>
      <point x="312" y="-174"/>
      <point x="281" y="-195" type="curve"/>
      <point x="298" y="-225" type="line"/>
      <point x="350" y="-200"/>
      <point x="391" y="-135"/>
      <point x="391" y="-75" type="curve" smooth="yes"/>
    </contour>
  </outline>
</glyph>
<glyph name="kcedilla" format="1">
  <advance width="482"/>
  <unicode hex="0137"/>
  <outline>
    <contour>
      <point x="84" y="0" type="line"/>
      <point x="146" y="0" type="line"/>
      <point x="146" y="190" type="line"/>
      <point x="218" y="264" type="line"/>
      <point x="391" y="0" type="line"/>
      <point x="466" y="0" type="line"/>
      <point x="258" y="305" type="line"/>
      <point x="410" y="461" type="line"/>
      <point x="371" y="498" type="line"/>
      <point x="146" y="266" type="line"/>
      <point x="146" y="706" type="line"/>
      <point x="84" y="696" type="line"/>
    </contour>
    <contour>
      <point x="304" y="-41"/>
      <point x="282" y="-21"/>
      <point x="255" y="-21" type="curve" smooth="yes"/>
      <point x="229" y="-21"/>
      <point x="207" y="-42"/>
      <point x="207" y="-69" type="curve" smooth="yes"/>
      <point x="207" y="-92"/>
      <point x="224" y="-113"/>
      <point x="251" y="-116" type="curve"/>
      <point x="247" y="-151"/>
      <point x="224" y="-174"/>
      <point x="192" y="-195" type="curve"/>
      <point x="211" y="-225" type="line"/>
      <point x="260" y="-200"/>
      <point x="304" y="-135"/>
      <point x="304" y="-75" type="curve" smooth="yes"/>
    </contour>
  </outline>
</glyph>
<glyph name="lacute" format="1">
  <advance width="230"/>
  <unicode hex="013A"/>
  <outline>
    <contour>
      <point x="84" y="0" type="line"/>
      <point x="146" y="0" type="line"/>
      <point x="146" y="685" type="line"/>
      <point x="84" y="673" type="line"/>
    </contour>
    <contour>
      <point x="150" y="829" type="line"/>
      <point x="90" y="712" type="line"/>
      <point x="136" y="712" type="line"/>
      <point x="222" y="829" type="line"/>
    </contour>
  </outline>
</glyph>
<glyph name="Lcaron" format="1">
  <advance width="507"/>
  <unicode hex="013D"/>
  <outline>
    <contour>
      <point x="486" y="0" type="line"/>
      <point x="481" y="50" type="line"/>
      <point x="167" y="50" type="line"/>
      <point x="167" y="680" type="line"/>
      <point x="105" y="680" type="line"/>
      <point x="105" y="0" type="line"/>
    </contour>
    <contour>
      <point x="387" y="681"/>
      <point x="365" y="702"/>
      <point x="340" y="702" type="curve" smooth="yes"/>
      <point x="312" y="702"/>
      <point x="291" y="680"/>
      <point x="291" y="654" type="curve" smooth="yes"/>
      <point x="291" y="630"/>
      <point x="308" y="609"/>
      <point x="333" y="606" type="curve"/>
      <point x="330" y="571"/>
      <point x="308" y="549"/>
      <point x="277" y="527" type="curve"/>
      <point x="295" y="498" type="line"/>
      <point x="345" y="523"/>
      <point x="387" y="587"/>
      <point x="387" y="647" type="curve" smooth="yes"/>
    </contour>
  </outline>
</glyph>
<glyph name="Ncedilla" format="1">
  <advance width="703"/>
  <unicode hex="0145"/>
  <outline>
    <contour>
      <point x="105" y="0" type="line"/>
      <point x="167" y="0" type="line"/>
      <point x="167" y="560" type="line"/>
      <point x="181" y="531" type="line"/>
      <point x="559" y="0" type="line"/>
      <point x="600" y="0" type="line"/>
      <point x="600" y="680" type="line"/>
      <point x="537" y="680" type="line"/>
      <point x="537" y="129" type="line"/>
      <point x="503" y="188" type="line"/>
      <point x="146" y="680" type="line"/>
      <point x="105" y="680" type="line"/>
    </contour>
    <contour>
      <point x="403" y="-41"/>
      <point x="384" y="-20"/>
      <point x="356" y="-20" type="curve" smooth="yes"/>
      <point x="330" y="-20"/>
      <point x="308" y="-41"/>
      <point x="308" y="-68" type="curve" smooth="yes"/>
      <point x="308" y="-91"/>
      <point x="325" y="-112"/>
      <point x="351" y="-115" type="curve"/>
      <point x="349" y="-151"/>
      <point x="325" y="-173"/>
      <point x="293" y="-194" type="curve"/>
      <point x="311" y="-223" type="line"/>
      <point x="362" y="-198"/>
      <point x="403" y="-134"/>
      <point x="403" y="-74" type="curve" smooth="yes"/>
    </contour>
  </outline>
</glyph>
<glyph name="Ncaron" format="1">
  <advance width="703"/>
  <unicode hex="0147"/>
  <outline>
    <contour>
      <point x="105" y="0" type="line"/>
      <point x="167" y="0" type="line"/>
      <point x="167" y="560" type="line"/>
      <point x="181" y="531" type="line"/>
      <point x="559" y="0" type="line"/>
      <point x="600" y="0" type="line"/>
      <point x="600" y="680" type="line"/>
      <point x="537" y="680" type="line"/>
      <point x="537" y="129" type="line"/>
      <point x="503" y="188" type="line"/>
      <point x="146" y="680" type="line"/>
      <point x="105" y="680" type="line"/>
    </contour>
    <contour>
      <point x="228" y="892" type="line"/>
      <point x="333" y="739" type="line"/>
      <point x="393" y="739" type="line"/>
      <point x="499" y="892" type="line"/>
      <point x="437" y="892" type="line"/>
      <point x="363" y="784" type="line"/>
      <point x="288" y="892" type="line"/>
    </contour>
  </outline>
</glyph>
<glyph name="Ohungarumlaut" format="1">
  <advance width="736"/>
  <unicode hex="0150"/>
  <outline>
    <contour>
      <point x="664" y="531"/>
      <point x="580" y="696"/>
      <point x="371" y="696" type="curve"/>
      <point x="174" y="692"/>
      <point x="73" y="537"/>
      <point x="73" y="337" type="curve" smooth="yes"/>
      <point x="73" y="152"/>
      <point x="156" y="-14"/>
      <point x="365" y="-14" type="curve"/>
      <point x="562" y="-11"/>
      <point x="664" y="156"/>
      <point x="664" y="345" type="curve" smooth="yes"/>
    </contour>
    <contour>
      <point x="207" y="41"/>
      <point x="139" y="175"/>
      <point x="139" y="338" type="curve" smooth="yes"/>
      <point x="139" y="514"/>
      <point x="229" y="640"/>
      <point x="372" y="640" type="curve"/>
      <point x="529" y="640"/>
      <point x="596" y="507"/>
      <point x="596" y="344" type="curve" smooth="yes"/>
      <point x="596" y="167"/>
      <point x="507" y="41"/>
      <point x="363" y="41" type="curve"/>
    </contour>
    <contour>
      <point x="325" y="892" type="line"/>
      <point x="265" y="739" type="line"/>
      <point x="308" y="739" type="line"/>
      <point x="394" y="892" type="line"/>
    </contour>
    <contour>
      <point x="448" y="892" type="line"/>
      <point x="389" y="739" type="line"/>
      <point x="434" y="739" type="line"/>
      <point x="518" y="892" type="line"/>
    </contour>
  </outline>
</glyph>
<glyph name="oe" format="1">
  <advance width="822"/>
  <unicode hex="0153"/>
  <outline>
    <contour>
      <point x="776" y="239" type="line"/>
      <point x="776" y="388"/>
      <point x="715" y="498"/>
      <point x="571" y="498" type="curve" smooth="yes"/>
      <point x="520" y="498"/>
      <point x="479" y="484"/>
      <point x="447" y="461" type="curve"/>
      <point x="407" y="486"/>
      <point x="348" y="498"/>
      <point x="308" y="498" type="curve" smooth="yes"/>
      <point x="150" y="498"/>
      <point x="52" y="389"/>
      <point x="52" y="241" type="curve"/>
      <point x="54" y="93"/>
      <point x="151" y="-13"/>
      <point x="308" y="-13" type="curve" smooth="yes"/>
      <point x="349" y="-13"/>
      <point x="409" y="0"/>
      <point x="448" y="24" type="curve"/>
      <point x="484" y="1"/>
      <point x="530" y="-13"/>
      <point x="587" y="-13" type="curve" smooth="yes"/>
      <point x="628" y="-13"/>
      <point x="710" y="0"/>
      <point x="748" y="25" type="curve"/>
      <point x="729" y="71" type="line"/>
      <point x="694" y="54"/>
      <point x="656" y="37"/>
      <point x="584" y="37" type="curve" smooth="yes"/>
      <point x="464" y="37"/>
      <point x="416" y="123"/>
      <point x="414" y="239" type="curve"/>
    </contour>
    <contour>
      <point x="183" y="37"/>
      <point x="115" y="127"/>
      <point x="115" y="246" type="curve"/>
      <point x="116" y="360"/>
      <point x="185" y="449"/>
      <point x="305" y="449" type="curve" smooth="yes"/>
      <point x="360" y="449"/>
      <point x="384" y="437"/>
      <point x="408" y="425" type="curve"/>
      <point x="371" y="381"/>
      <point x="353" y="318"/>
      <point x="353" y="245" type="curve"/>
      <point x="353" y="170"/>
      <point x="371" y="106"/>
      <point x="409" y="60" type="curve"/>
      <point x="385" y="48"/>
      <point x="362" y="37"/>
      <point x="305" y="37" type="curve" smooth="yes"/>
    </contour>
    <contour>
      <point x="665" y="446"/>
      <point x="703" y="377"/>
      <point x="712" y="282" type="curve"/>
      <point x="416" y="282" type="line"/>
      <point x="427" y="377"/>
      <point x="473" y="446"/>
      <point x="568" y="446" type="curve" smooth="yes"/>
    </contour>
  </outline>
</glyph>
<glyph name="Rcedilla" format="1">
  <advance width="633"/>
  <unicode hex="0156"/>
  <outline>
    <contour>
      <point x="510" y="0" type="line"/>
      <point x="580" y="0" type="line"/>
      <point x="404" y="308" type="line"/>
      <point x="475" y="336"/>
      <point x="525" y="391"/>
      <point x="526" y="486" type="curve"/>
      <point x="526" y="629"/>
      <point x="423" y="680"/>
      <point x="281" y="680" type="curve" smooth="yes"/>
      <point x="105" y="680" type="line"/>
      <point x="105" y="0" type="line"/>
      <point x="167" y="0" type="line"/>
      <point x="167" y="286" type="line"/>
      <point x="270" y="286" type="line" smooth="yes"/>
      <point x="297" y="286"/>
      <point x="323" y="288"/>
      <point x="349" y="291" type="curve"/>
    </contour>
    <contour>
      <point x="283" y="627" type="line" smooth="yes"/>
      <point x="387" y="627"/>
      <point x="463" y="601"/>
      <point x="463" y="484" type="curve"/>
      <point x="462" y="370"/>
      <point x="374" y="337"/>
      <point x="272" y="337" type="curve" smooth="yes"/>
      <point x="167" y="337" type="line"/>
      <point x="167" y="627" type="line"/>
    </contour>
    <contour>
      <point x="370" y="-41"/>
      <point x="349" y="-21"/>
      <point x="321" y="-21" type="curve" smooth="yes"/>
      <point x="294" y="-21"/>
      <point x="273" y="-42"/>
      <point x="273" y="-69" type="curve" smooth="yes"/>
      <point x="273" y="-92"/>
      <point x="290" y="-113"/>
      <point x="316" y="-116" type="curve"/>
      <point x="314" y="-151"/>
      <point x="291" y="-174"/>
      <point x="258" y="-195" type="curve"/>
      <point x="276" y="-225" type="line"/>
      <point x="326" y="-200"/>
      <point x="370" y="-135"/>
      <point x="370" y="-75" type="curve" smooth="yes"/>
    </contour>
  </outline>
</glyph>
<glyph name="rcedilla" format="1">
  <advance width="321"/>
  <unicode hex="0157"/>
  <outline>
    <contour>
      <point x="84" y="0" type="line"/>
      <point x="146" y="0" type="line"/>
      <point x="146" y="356" type="line"/>
      <point x="184" y="397"/>
      <point x="247" y="436"/>
      <point x="309" y="436" type="curve"/>
      <point x="292" y="485" type="line"/>
      <point x="241" y="485"/>
      <point x="178" y="448"/>
      <point x="143" y="418" type="curve"/>
      <point x="125" y="485" type="line"/>
      <point x="84" y="485" type="line"/>
    </contour>
    <contour>
      <point x="164" y="-41"/>
      <point x="143" y="-21"/>
      <point x="117" y="-21" type="curve" smooth="yes"/>
      <point x="89" y="-21"/>
      <point x="69" y="-42"/>
      <point x="69" y="-69" type="curve" smooth="yes"/>
      <point x="69" y="-92"/>
      <point x="85" y="-113"/>
      <point x="111" y="-116" type="curve"/>
      <point x="108" y="-151"/>
      <point x="85" y="-174"/>
      <point x="54" y="-195" type="curve"/>
      <point x="71" y="-225" type="line"/>
      <point x="122" y="-200"/>
      <point x="164" y="-135"/>
      <point x="164" y="-75" type="curve" smooth="yes"/>
    </contour>
  </outline>
</glyph>
<glyph name="scedilla" format="1">
  <advance width="451"/>
  <unicode hex="015F"/>
  <outline>
    <contour>
      <point x="158" y="39"/>
      <point x="111" y="55"/>
      <point x="76" y="73" type="curve"/>
      <point x="56" y="25" type="line"/>
      <point x="86" y="5"/>
      <point x="140" y="-7"/>
      <point x="180" y="-11" type="curve"/>
      <point x="153" y="-81" type="line"/>
      <point x="203" y="-86"/>
      <point x="241" y="-106"/>
      <point x="241" y="-134" type="curve" smooth="yes"/>
      <point x="241" y="-160"/>
      <point x="212" y="-174"/>
      <point x="185" y="-174" type="curve" smooth="yes"/>
      <point x="163" y="-174"/>
      <point x="138" y="-166"/>
      <point x="126" y="-160" type="curve"/>
      <point x="110" y="-202" type="line"/>
      <point x="127" y="-213"/>
      <point x="160" y="-221"/>
      <point x="185" y="-221" type="curve" smooth="yes"/>
      <point x="243" y="-221"/>
      <point x="296" y="-193"/>
      <point x="296" y="-132" type="curve" smooth="yes"/>
      <point x="296" y="-97"/>
      <point x="260" y="-60"/>
      <point x="216" y="-54" type="curve"/>
      <point x="232" y="-12" type="line"/>
      <point x="341" y="-5"/>
      <point x="399" y="44"/>
      <point x="399" y="124" type="curve" smooth="yes"/>
      <point x="399" y="202"/>
      <point x="316" y="246"/>
      <point x="237" y="274" type="curve" smooth="yes"/>
      <point x="169" y="297"/>
      <point x="116" y="323"/>
      <point x="115" y="368" type="curve"/>
      <point x="115" y="415"/>
      <point x="160" y="446"/>
      <point x="228" y="446" type="curve" smooth="yes"/>
      <point x="288" y="446"/>
      <point x="329" y="426"/>
      <point x="356" y="412" type="curve"/>
      <point x="376" y="458" type="line"/>
      <point x="342" y="482"/>
      <point x="272" y="498"/>
      <point x="230" y="498" type="curve" smooth="yes"/>
      <point x="120" y="498"/>
      <point x="52" y="449"/>
      <point x="52" y="364" type="curve" smooth="yes"/>
      <point x="52" y="288"/>
      <point x="133" y="249"/>
      <point x="209" y="223" type="curve" smooth="yes"/>
      <point x="279" y="199"/>
      <point x="337" y="166"/>
      <point x="337" y="119" type="curve" smooth="yes"/>
      <point x="337" y="64"/>
      <point x="289" y="39"/>
      <point x="209" y="39" type="curve" smooth="yes"/>
    </contour>
  </outline>
</glyph>
<glyph name="Tcedilla" format="1">
  <advance width="514"/>
  <unicode hex="0162"/>
  <outline>
    <contour>
      <point x="503" y="631" type="line"/>
      <point x="498" y="680" type="line"/>
      <point x="10" y="680" type="line"/>
      <point x="10" y="631" type="line"/>
      <point x="225" y="631" type="line"/>
      <point x="225" y="0" type="line"/>
      <point x="228" y="0" type="line"/>
      <point x="196" y="-81" type="line"/>
      <point x="246" y="-86"/>
      <point x="285" y="-106"/>
      <point x="285" y="-134" type="curve" smooth="yes"/>
      <point x="285" y="-160"/>
      <point x="255" y="-174"/>
      <point x="228" y="-174" type="curve" smooth="yes"/>
      <point x="206" y="-174"/>
      <point x="181" y="-166"/>
      <point x="169" y="-160" type="curve"/>
      <point x="154" y="-202" type="line"/>
      <point x="172" y="-213"/>
      <point x="204" y="-221"/>
      <point x="228" y="-221" type="curve" smooth="yes"/>
      <point x="287" y="-221"/>
      <point x="339" y="-193"/>
      <point x="339" y="-132" type="curve" smooth="yes"/>
      <point x="339" y="-97"/>
      <point x="304" y="-60"/>
      <point x="259" y="-54" type="curve"/>
      <point x="281" y="0" type="line"/>
      <point x="288" y="0" type="line"/>
      <point x="288" y="631" type="line"/>
    </contour>
  </outline>
</glyph>
<glyph name="tcedilla" format="1">
  <advance width="309"/>
  <unicode hex="0163"/>
  <outline>
    <contour>
      <point x="265" y="428" type="line"/>
      <point x="244" y="475" type="line"/>
      <point x="156" y="475" type="line"/>
      <point x="156" y="623" type="line"/>
      <point x="93" y="601" type="line"/>
      <point x="93" y="475" type="line"/>
      <point x="21" y="475" type="line"/>
      <point x="22" y="428" type="line"/>
      <point x="93" y="428" type="line"/>
      <point x="93" y="116" type="line" smooth="yes"/>
      <point x="93" y="47"/>
      <point x="123" y="5"/>
      <point x="172" y="-8" type="curve"/>
      <point x="144" y="-81" type="line"/>
      <point x="194" y="-86"/>
      <point x="232" y="-106"/>
      <point x="232" y="-134" type="curve" smooth="yes"/>
      <point x="232" y="-160"/>
      <point x="202" y="-174"/>
      <point x="176" y="-174" type="curve" smooth="yes"/>
      <point x="154" y="-174"/>
      <point x="128" y="-166"/>
      <point x="118" y="-160" type="curve"/>
      <point x="101" y="-202" type="line"/>
      <point x="120" y="-213"/>
      <point x="151" y="-221"/>
      <point x="176" y="-221" type="curve" smooth="yes"/>
      <point x="234" y="-221"/>
      <point x="288" y="-193"/>
      <point x="288" y="-132" type="curve" smooth="yes"/>
      <point x="288" y="-97"/>
      <point x="253" y="-60"/>
      <point x="207" y="-54" type="curve"/>
      <point x="223" y="-12" type="line"/>
      <point x="246" y="-10"/>
      <point x="266" y="-3"/>
      <point x="277" y="-1" type="curve"/>
      <point x="265" y="50" type="line"/>
      <point x="258" y="47"/>
      <point x="239" y="41"/>
      <point x="224" y="41" type="curve" smooth="yes"/>
      <point x="174" y="41"/>
      <point x="156" y="75"/>
      <point x="156" y="123" type="curve" smooth="yes"/>
      <point x="156" y="428" type="line"/>
    </contour>
  </outline>
</glyph>
<glyph name="tcaron" format="1">
  <advance width="429"/>
  <unicode hex="0165"/>
  <outline>
    <contour>
      <point x="265" y="428" type="line"/>
      <point x="244" y="475" type="line"/>
      <point x="156" y="475" type="line"/>
      <point x="156" y="623" type="line"/>
      <point x="93" y="601" type="line"/>
      <point x="93" y="475" type="line"/>
      <point x="21" y="475" type="line"/>
      <point x="22" y="428" type="line"/>
      <point x="93" y="428" type="line"/>
      <point x="93" y="116" type="line" smooth="yes"/>
      <point x="93" y="31"/>
      <point x="140" y="-13"/>
      <point x="211" y="-13" type="curve" smooth="yes"/>
      <point x="239" y="-13"/>
      <point x="264" y="-4"/>
      <point x="277" y="-1" type="curve"/>
      <point x="265" y="50" type="line"/>
      <point x="258" y="47"/>
      <point x="239" y="41"/>
      <point x="224" y="41" type="curve" smooth="yes"/>
      <point x="174" y="41"/>
      <point x="156" y="75"/>
      <point x="156" y="123" type="curve" smooth="yes"/>
      <point x="156" y="428" type="line"/>
    </contour>
    <contour>
      <point x="424" y="681"/>
      <point x="403" y="702"/>
      <point x="377" y="702" type="curve" smooth="yes"/>
      <point x="350" y="702"/>
      <point x="328" y="680"/>
      <point x="328" y="654" type="curve" smooth="yes"/>
      <point x="328" y="630"/>
      <point x="345" y="609"/>
      <point x="371" y="606" type="curve"/>
      <point x="370" y="571"/>
      <point x="346" y="549"/>
      <point x="314" y="527" type="curve"/>
      <point x="332" y="498" type="line"/>
      <point x="384" y="523"/>
      <point x="424" y="587"/>
      <point x="424" y="647" type="curve" smooth="yes"/>
    </contour>
  </outline>
</glyph>
<glyph name="Umacron" format="1">
  <advance width="685"/>
  <unicode hex="016A"/>
  <outline>
    <contour>
      <point x="227" y="41"/>
      <point x="156" y="131"/>
      <point x="156" y="248" type="curve" smooth="yes"/>
      <point x="156" y="680" type="line"/>
      <point x="94" y="680" type="line"/>
      <point x="94" y="239" type="line" smooth="yes"/>
      <point x="94" y="93"/>
      <point x="188" y="-11"/>
      <point x="342" y="-12" type="curve"/>
      <point x="498" y="-12"/>
      <point x="591" y="93"/>
      <point x="591" y="239" type="curve" smooth="yes"/>
      <point x="591" y="680" type="line"/>
      <point x="528" y="680" type="line"/>
      <point x="528" y="248" type="line" smooth="yes"/>
      <point x="528" y="131"/>
      <point x="461" y="41"/>
      <point x="342" y="41" type="curve" smooth="yes"/>
    </contour>
    <contour>
      <point x="222" y="839" type="line"/>
      <point x="222" y="790" type="line"/>
      <point x="463" y="790" type="line"/>
      <point x="463" y="839" type="line"/>
    </contour>
  </outline>
</glyph>
<glyph name="Uogonek" format="1">
  <advance width="685"/>
  <unicode hex="0172"/>
  <outline>
    <contour>
      <point x="227" y="41"/>
      <point x="156" y="131"/>
      <point x="156" y="248" type="curve" smooth="yes"/>
      <point x="156" y="680" type="line"/>
      <point x="94" y="680" type="line"/>
      <point x="94" y="239" type="line" smooth="yes"/>
      <point x="94" y="94"/>
      <point x="186" y="-8"/>
      <point x="336" y="-12" type="curve"/>
      <point x="311" y="-40"/>
      <point x="296" y="-77"/>
      <point x="296" y="-111" type="curve" smooth="yes"/>
      <point x="296" y="-169"/>
      <point x="340" y="-207"/>
      <point x="400" y="-207" type="curve" smooth="yes"/>
      <point x="434" y="-207"/>
      <point x="463" y="-195"/>
      <point x="480" y="-177" type="curve"/>
      <point x="458" y="-139" type="line"/>
      <point x="442" y="-153"/>
      <point x="425" y="-160"/>
      <point x="403" y="-160" type="curve" smooth="yes"/>
      <point x="377" y="-160"/>
      <point x="351" y="-147"/>
      <point x="351" y="-107" type="curve" smooth="yes"/>
      <point x="351" y="-77"/>
      <point x="381" y="-30"/>
      <point x="413" y="-3" type="curve"/>
      <point x="526" y="24"/>
      <point x="591" y="117"/>
      <point x="591" y="239" type="curve" smooth="yes"/>
      <point x="591" y="680" type="line"/>
      <point x="528" y="680" type="line"/>
      <point x="528" y="248" type="line" smooth="yes"/>
      <point x="528" y="131"/>
      <point x="461" y="41"/>
      <point x="342" y="41" type="curve" smooth="yes"/>
    </contour>
  </outline>
</glyph>
<glyph name="Ydieresis" format="1">
  <advance width="547"/>
  <unicode hex="0178"/>
  <outline>
    <contour>
      <point x="240" y="0" type="line"/>
      <point x="303" y="0" type="line"/>
      <point x="304" y="283" type="line"/>
      <point x="542" y="680" type="line"/>
      <point x="475" y="680" type="line"/>
      <point x="272" y="336" type="line"/>
      <point x="71" y="680" type="line"/>
      <point x="6" y="669" type="line"/>
      <point x="241" y="276" type="line"/>
    </contour>
    <contour>
      <point x="238" y="835"/>
      <point x="219" y="854"/>
      <point x="194" y="854" type="curve" smooth="yes"/>
      <point x="171" y="854"/>
      <point x="151" y="835"/>
      <point x="151" y="812" type="curve" smooth="yes"/>
      <point x="151" y="787"/>
      <point x="171" y="768"/>
      <point x="194" y="768" type="curve" smooth="yes"/>
      <point x="219" y="768"/>
      <point x="238" y="787"/>
      <point x="238" y="812" type="curve" smooth="yes"/>
    </contour>
    <contour>
      <point x="394" y="835"/>
      <point x="376" y="854"/>
      <point x="351" y="854" type="curve" smooth="yes"/>
      <point x="327" y="854"/>
      <point x="308" y="835"/>
      <point x="308" y="812" type="curve" smooth="yes"/>
      <point x="308" y="787"/>
      <point x="327" y="768"/>
      <point x="351" y="768" type="curve" smooth="yes"/>
      <point x="376" y="768"/>
      <point x="394" y="787"/>
      <point x="394" y="812" type="curve" smooth="yes"/>
    </contour>
  </outline>
</glyph>
<glyph name="Zacute" format="1">
  <advance width="566"/>
  <unicode hex="0179"/>
  <outline>
    <contour>
      <point x="519" y="0" type="line"/>
      <point x="514" y="50" type="line"/>
      <point x="94" y="50" type="line"/>
      <point x="534" y="631" type="line"/>
      <point x="529" y="680" type="line"/>
      <point x="52" y="680" type="line"/>
      <point x="62" y="631" type="line"/>
      <point x="467" y="631" type="line"/>
      <point x="25" y="50" type="line"/>
      <point x="31" y="0" type="line"/>
    </contour>
    <contour>
      <point x="300" y="892" type="line"/>
      <point x="240" y="739" type="line"/>
      <point x="286" y="739" type="line"/>
      <point x="372" y="892" type="line"/>
    </contour>
  </outline>
</glyph>
<glyph name="Zdotaccent" format="1">
  <advance width="566"/>
  <unicode hex="017B"/>
  <outline>
    <contour>
      <point x="519" y="0" type="line"/>
      <point x="514" y="50" type="line"/>
      <point x="94" y="50" type="line"/>
      <point x="534" y="631" type="line"/>
      <point x="529" y="680" type="line"/>
      <point x="52" y="680" type="line"/>
      <point x="62" y="631" type="line"/>
      <point x="467" y="631" type="line"/>
      <point x="25" y="50" type="line"/>
      <point x="31" y="0" type="line"/>
    </contour>
    <contour>
      <point x="337" y="842"/>
      <point x="316" y="864"/>
      <point x="290" y="864" type="curve" smooth="yes"/>
      <point x="263" y="864"/>
      <point x="242" y="842"/>
      <point x="242" y="816" type="curve" smooth="yes"/>
      <point x="242" y="789"/>
      <point x="263" y="768"/>
      <point x="290" y="768" type="curve" smooth="yes"/>
      <point x="316" y="768"/>
      <point x="337" y="789"/>
      <point x="337" y="816" type="curve" smooth="yes"/>
    </contour>
  </outline>
</glyph>
<glyph name="florin" format="1">
  <advance width="288"/>
  <unicode hex="0192"/>
  <outline>
    <contour>
      <point x="156" y="563" type="line" smooth="yes"/>
      <point x="156" y="611"/>
      <point x="174" y="645"/>
      <point x="225" y="645" type="curve" smooth="yes"/>
      <point x="239" y="645"/>
      <point x="258" y="640"/>
      <point x="266" y="636" type="curve"/>
      <point x="278" y="689" type="line"/>
      <point x="265" y="694"/>
      <point x="239" y="702"/>
      <point x="212" y="702" type="curve" smooth="yes"/>
      <point x="140" y="702"/>
      <point x="94" y="647"/>
      <point x="94" y="563" type="curve" smooth="yes"/>
      <point x="94" y="475" type="line"/>
      <point x="21" y="475" type="line"/>
      <point x="22" y="428" type="line"/>
      <point x="94" y="428" type="line"/>
      <point x="94" y="73" type="line" smooth="yes"/>
      <point x="94" y="24"/>
      <point x="76" y="-9"/>
      <point x="24" y="-9" type="curve" smooth="yes"/>
      <point x="12" y="-9"/>
      <point x="-8" y="-4"/>
      <point x="-16" y="0" type="curve"/>
      <point x="-27" y="-53" type="line"/>
      <point x="-15" y="-57"/>
      <point x="12" y="-65"/>
      <point x="40" y="-65" type="curve" smooth="yes"/>
      <point x="111" y="-65"/>
      <point x="156" y="-11"/>
      <point x="156" y="74" type="curve" smooth="yes"/>
      <point x="156" y="428" type="line"/>
      <point x="265" y="428" type="line"/>
      <point x="244" y="475" type="line"/>
      <point x="156" y="475" type="line"/>
    </contour>
  </outline>
</glyph>
<glyph name="scommaaccent" format="1">
  <advance width="451"/>
  <unicode hex="0219"/>
  <outline>
    <contour>
      <point x="158" y="39"/>
      <point x="111" y="55"/>
      <point x="76" y="73" type="curve"/>
      <point x="56" y="25" type="line"/>
      <point x="94" y="0"/>
      <point x="167" y="-13"/>
      <point x="207" y="-13" type="curve" smooth="yes"/>
      <point x="332" y="-13"/>
      <point x="399" y="38"/>
      <point x="399" y="124" type="curve" smooth="yes"/>
      <point x="399" y="202"/>
      <point x="316" y="246"/>
      <point x="237" y="274" type="curve" smooth="yes"/>
      <point x="169" y="297"/>
      <point x="116" y="323"/>
      <point x="115" y="368" type="curve"/>
      <point x="115" y="415"/>
      <point x="160" y="446"/>
      <point x="228" y="446" type="curve" smooth="yes"/>
      <point x="288" y="446"/>
      <point x="329" y="426"/>
      <point x="356" y="412" type="curve"/>
      <point x="376" y="458" type="line"/>
      <point x="342" y="482"/>
      <point x="272" y="498"/>
      <point x="230" y="498" type="curve" smooth="yes"/>
      <point x="120" y="498"/>
      <point x="52" y="449"/>
      <point x="52" y="364" type="curve" smooth="yes"/>
      <point x="52" y="288"/>
      <point x="133" y="249"/>
      <point x="209" y="223" type="curve" smooth="yes"/>
      <point x="279" y="199"/>
      <point x="337" y="166"/>
      <point x="337" y="119" type="curve"/>
      <point x="337" y="64"/>
      <point x="289" y="39"/>
      <point x="209" y="39" type="curve" smooth="yes"/>
    </contour>
    <contour>
      <point x="271" y="-41"/>
      <point x="250" y="-21"/>
      <point x="223" y="-21" type="curve" smooth="yes"/>
      <point x="196" y="-21"/>
      <point x="174" y="-42"/>
      <point x="174" y="-69" type="curve" smooth="yes"/>
      <point x="174" y="-92"/>
      <point x="191" y="-113"/>
      <point x="218" y="-116" type="curve"/>
      <point x="215" y="-151"/>
      <point x="192" y="-174"/>
      <point x="160" y="-195" type="curve"/>
      <point x="179" y="-225" type="line"/>
      <point x="229" y="-200"/>
      <point x="271" y="-135"/>
      <point x="271" y="-75" type="curve" smooth="yes"/>
    </contour>
  </outline>
</glyph>
<glyph name="circumflex" format="1">
  <advance width="302"/>
  <unicode hex="02C6"/>
  <outline>
    <contour>
      <point x="76" y="589" type="line"/>
      <point x="151" y="698" type="line"/>
      <point x="225" y="589" type="line"/>
      <point x="287" y="589" type="line"/>
      <point x="181" y="742" type="line"/>
      <point x="121" y="742" type="line"/>
      <point x="16" y="589" type="line"/>
    </contour>
    <contour>
      <point x="151" y="535" type="move" name="_top"/>
    </contour>
  </outline>
</glyph>
<glyph name="caron" format="1">
  <advance width="302"/>
  <unicode hex="02C7"/>
  <outline>
    <contour>
      <point x="16" y="742" type="line"/>
      <point x="121" y="589" type="line"/>
      <point x="181" y="589" type="line"/>
      <point x="287" y="742" type="line"/>
      <point x="225" y="742" type="line"/>
      <point x="151" y="634" type="line"/>
      <point x="76" y="742" type="line"/>
    </contour>
    <contour>
      <point x="153" y="535" type="move" name="_top"/>
    </contour>
  </outline>
</glyph>
<glyph name="uni02C9" format="1">
  <advance width="272"/>
  <unicode hex="02C9"/>
  <outline>
    <contour>
      <point x="16" y="689" type="line"/>
      <point x="16" y="640" type="line"/>
      <point x="257" y="640" type="line"/>
      <point x="257" y="689" type="line"/>
    </contour>
  </outline>
</glyph>
<glyph name="breve" format="1">
  <advance width="291"/>
  <unicode hex="02D8"/>
  <outline>
    <contour>
      <point x="239" y="603"/>
      <point x="276" y="664"/>
      <point x="276" y="731" type="curve"/>
      <point x="229" y="731" type="line"/>
      <point x="229" y="694"/>
      <point x="199" y="649"/>
      <point x="146" y="649" type="curve" smooth="yes"/>
      <point x="90" y="649"/>
      <point x="62" y="694"/>
      <point x="62" y="731" type="curve"/>
      <point x="16" y="731" type="line"/>
      <point x="16" y="664"/>
      <point x="53" y="603"/>
      <point x="146" y="601" type="curve"/>
    </contour>
    <contour>
      <point x="146" y="535" type="move" name="_top"/>
    </contour>
  </outline>
</glyph>
<glyph name="ring" format="1">
  <advance width="209"/>
  <unicode hex="02DA"/>
  <outline>
    <contour>
      <point x="149" y="651"/>
      <point x="129" y="633"/>
      <point x="105" y="633" type="curve" smooth="yes"/>
      <point x="81" y="633"/>
      <point x="61" y="651"/>
      <point x="61" y="675" type="curve" smooth="yes"/>
      <point x="61" y="700"/>
      <point x="81" y="719"/>
      <point x="105" y="719" type="curve" smooth="yes"/>
      <point x="129" y="719"/>
      <point x="149" y="700"/>
      <point x="149" y="675" type="curve" smooth="yes"/>
    </contour>
    <contour>
      <point x="193" y="723"/>
      <point x="153" y="759"/>
      <point x="105" y="759" type="curve" smooth="yes"/>
      <point x="57" y="759"/>
      <point x="16" y="723"/>
      <point x="16" y="675" type="curve" smooth="yes"/>
      <point x="16" y="628"/>
      <point x="57" y="594"/>
      <point x="105" y="594" type="curve" smooth="yes"/>
      <point x="153" y="594"/>
      <point x="193" y="628"/>
      <point x="193" y="675" type="curve" smooth="yes"/>
    </contour>
    <contour>
      <point x="105" y="535" type="move" name="_top"/>
    </contour>
  </outline>
</glyph>
<glyph name="ogonek" format="1">
  <advance width="216"/>
  <unicode hex="02DB"/>
  <outline>
    <contour>
      <point x="73" y="4" type="line"/>
      <point x="38" y="-24"/>
      <point x="16" y="-71"/>
      <point x="16" y="-111" type="curve" smooth="yes"/>
      <point x="16" y="-169"/>
      <point x="60" y="-207"/>
      <point x="120" y="-207" type="curve" smooth="yes"/>
      <point x="154" y="-207"/>
      <point x="183" y="-195"/>
      <point x="200" y="-177" type="curve"/>
      <point x="178" y="-139" type="line"/>
      <point x="162" y="-153"/>
      <point x="145" y="-160"/>
      <point x="123" y="-160" type="curve" smooth="yes"/>
      <point x="97" y="-160"/>
      <point x="71" y="-147"/>
      <point x="71" y="-107" type="curve" smooth="yes"/>
      <point x="71" y="-74"/>
      <point x="108" y="-20"/>
      <point x="144" y="4" type="curve"/>
    </contour>
    <contour>
      <point x="101" y="0" type="move" name="_bottom"/>
    </contour>
  </outline>
</glyph>
<glyph name="hungarumlaut" format="1">
  <advance width="285"/>
  <unicode hex="02DD"/>
  <outline>
    <contour>
      <point x="76" y="742" type="line"/>
      <point x="16" y="589" type="line"/>
      <point x="59" y="589" type="line"/>
      <point x="145" y="742" type="line"/>
    </contour>
    <contour>
      <point x="199" y="742" type="line"/>
      <point x="140" y="589" type="line"/>
      <point x="185" y="589" type="line"/>
      <point x="269" y="742" type="line"/>
    </contour>
    <contour>
      <point x="122" y="535" type="move" name="_top"/>
    </contour>
  </outline>
</glyph>
<glyph name="dv_Visarga" format="1">
  <advance width="139"/>
  <unicode hex="0903"/>
  <outline>
    <contour>
      <point x="17" y="442"/>
      <point x="40" y="419"/>
      <point x="69" y="419" type="curve" smooth="yes"/>
      <point x="98" y="419"/>
      <point x="121" y="442"/>
      <point x="121" y="470" type="curve" smooth="yes"/>
      <point x="121" y="500"/>
      <point x="98" y="524"/>
      <point x="69" y="524" type="curve" smooth="yes"/>
      <point x="40" y="524"/>
      <point x="17" y="500"/>
      <point x="17" y="470" type="curve" smooth="yes"/>
    </contour>
    <contour>
      <point x="17" y="96"/>
      <point x="40" y="73"/>
      <point x="69" y="73" type="curve" smooth="yes"/>
      <point x="98" y="73"/>
      <point x="121" y="96"/>
      <point x="121" y="125" type="curve" smooth="yes"/>
      <point x="121" y="154"/>
      <point x="98" y="177"/>
      <point x="69" y="177" type="curve" smooth="yes"/>
      <point x="40" y="177"/>
      <point x="17" y="154"/>
      <point x="17" y="125" type="curve" smooth="yes"/>
    </contour>
  </outline>
</glyph>
<glyph name="dv_ShortA" format="1">
  <advance width="862"/>
  <unicode hex="0904"/>
  <outline>
    <contour>
      <point x="408" y="-16"/>
      <point x="486" y="67"/>
      <point x="486" y="179" type="curve" smooth="yes"/>
      <point x="486" y="245"/>
      <point x="453" y="292"/>
      <point x="397" y="324" type="curve"/>
      <point x="671" y="324" type="line"/>
      <point x="671" y="0" type="line"/>
      <point x="739" y="-16" type="line"/>
      <point x="739" y="626" type="line"/>
      <point x="874" y="626" type="line"/>
      <point x="858" y="680" type="line"/>
      <point x="739" y="680" type="line"/>
      <point x="739" y="697" type="line" smooth="yes"/>
      <point x="739" y="778"/>
      <point x="671" y="842"/>
      <point x="567" y="843" type="curve" smooth="yes"/>
      <point x="548" y="843" type="line" smooth="yes"/>
      <point x="488" y="843"/>
      <point x="445" y="875"/>
      <point x="445" y="926" type="curve"/>
      <point x="381" y="941" type="line"/>
      <point x="381" y="926" type="line" smooth="yes"/>
      <point x="381" y="842"/>
      <point x="449" y="786"/>
      <point x="553" y="785" type="curve" smooth="yes"/>
      <point x="572" y="785" type="line" smooth="yes"/>
      <point x="639" y="785"/>
      <point x="671" y="748"/>
      <point x="671" y="697" type="curve" smooth="yes"/>
      <point x="671" y="680" type="line"/>
      <point x="536" y="680" type="line"/>
      <point x="552" y="626" type="line"/>
      <point x="671" y="626" type="line"/>
      <point x="671" y="375" type="line"/>
      <point x="383" y="375" type="line"/>
      <point x="435" y="405"/>
      <point x="471" y="457"/>
      <point x="471" y="517" type="curve" smooth="yes"/>
      <point x="471" y="610"/>
      <point x="419" y="694"/>
      <point x="274" y="694" type="curve" smooth="yes"/>
      <point x="197" y="694"/>
      <point x="124" y="664"/>
      <point x="81" y="629" type="curve"/>
      <point x="90" y="571" type="line"/>
      <point x="141" y="611"/>
      <point x="202" y="638"/>
      <point x="271" y="638" type="curve" smooth="yes"/>
      <point x="362" y="638"/>
      <point x="400" y="581"/>
      <point x="400" y="514" type="curve" smooth="yes"/>
      <point x="400" y="434"/>
      <point x="345" y="374"/>
      <point x="225" y="374" type="curve" smooth="yes"/>
      <point x="134" y="374" type="line"/>
      <point x="155" y="325" type="line"/>
      <point x="218" y="325" type="line" smooth="yes"/>
      <point x="370" y="325"/>
      <point x="415" y="270"/>
      <point x="415" y="177" type="curve" smooth="yes"/>
      <point x="415" y="87"/>
      <point x="349" y="40"/>
      <point x="260" y="40" type="curve" smooth="yes"/>
      <point x="190" y="40"/>
      <point x="127" y="64"/>
      <point x="81" y="99" type="curve"/>
      <point x="69" y="41" type="line"/>
      <point x="111" y="11"/>
      <point x="176" y="-16"/>
      <point x="257" y="-16" type="curve" smooth="yes"/>
    </contour>
  </outline>
</glyph>
<glyph name="dv_I" format="1">
  <advance width="530"/>
  <unicode hex="0907"/>
  <outline>
    <contour>
      <point x="243" y="37"/>
      <point x="212" y="42"/>
      <point x="183" y="50" type="curve"/>
      <point x="169" y="93"/>
      <point x="131" y="128"/>
      <point x="85" y="128" type="curve" smooth="yes"/>
      <point x="62" y="128"/>
      <point x="46" y="115"/>
      <point x="46" y="93" type="curve" smooth="yes"/>
      <point x="46" y="46"/>
      <point x="94" y="8"/>
      <point x="132" y="-8" type="curve"/>
      <point x="260" y="-172" type="line"/>
      <point x="304" y="-140" type="line"/>
      <point x="203" y="-13" type="line"/>
      <point x="226" y="-17"/>
      <point x="250" y="-19"/>
      <point x="273" y="-19" type="curve" smooth="yes"/>
      <point x="411" y="-19"/>
      <point x="488" y="55"/>
      <point x="488" y="143" type="curve" smooth="yes"/>
      <point x="488" y="251"/>
      <point x="416" y="309"/>
      <point x="293" y="309" type="curve" smooth="yes"/>
      <point x="207" y="309" type="line" smooth="yes"/>
      <point x="155" y="309"/>
      <point x="120" y="340"/>
      <point x="120" y="384" type="curve" smooth="yes"/>
      <point x="120" y="426"/>
      <point x="153" y="458"/>
      <point x="205" y="458" type="curve" smooth="yes"/>
      <point x="433" y="458" type="line"/>
      <point x="433" y="626" type="line"/>
      <point x="540" y="626" type="line"/>
      <point x="526" y="680" type="line"/>
      <point x="-11" y="680" type="line"/>
      <point x="3" y="626" type="line"/>
      <point x="364" y="626" type="line"/>
      <point x="364" y="515" type="line"/>
      <point x="205" y="515" type="line" smooth="yes"/>
      <point x="119" y="515"/>
      <point x="52" y="465"/>
      <point x="52" y="384" type="curve" smooth="yes"/>
      <point x="52" y="310"/>
      <point x="129" y="253"/>
      <point x="207" y="253" type="curve" smooth="yes"/>
      <point x="302" y="253" type="line" smooth="yes"/>
      <point x="371" y="253"/>
      <point x="419" y="207"/>
      <point x="419" y="144" type="curve" smooth="yes"/>
      <point x="419" y="77"/>
      <point x="356" y="37"/>
      <point x="273" y="37" type="curve" smooth="yes"/>
    </contour>
  </outline>
</glyph>
<glyph name="dv_U" format="1">
  <advance width="543"/>
  <unicode hex="0909"/>
  <outline>
    <contour>
      <point x="405" y="-16"/>
      <point x="483" y="67"/>
      <point x="483" y="179" type="curve" smooth="yes"/>
      <point x="483" y="245"/>
      <point x="451" y="325"/>
      <point x="345" y="353" type="curve"/>
      <point x="430" y="378"/>
      <point x="469" y="457"/>
      <point x="469" y="517" type="curve" smooth="yes"/>
      <point x="469" y="555"/>
      <point x="452" y="598"/>
      <point x="426" y="626" type="curve"/>
      <point x="554" y="626" type="line"/>
      <point x="539" y="680" type="line"/>
      <point x="-11" y="680" type="line"/>
      <point x="3" y="626" type="line"/>
      <point x="328" y="626" type="line"/>
      <point x="374" y="607"/>
      <point x="397" y="563"/>
      <point x="397" y="514" type="curve" smooth="yes"/>
      <point x="397" y="434"/>
      <point x="342" y="374"/>
      <point x="223" y="374" type="curve" smooth="yes"/>
      <point x="131" y="374" type="line"/>
      <point x="152" y="325" type="line"/>
      <point x="215" y="325" type="line" smooth="yes"/>
      <point x="367" y="325"/>
      <point x="412" y="270"/>
      <point x="412" y="177" type="curve" smooth="yes"/>
      <point x="412" y="87"/>
      <point x="345" y="40"/>
      <point x="258" y="40" type="curve" smooth="yes"/>
      <point x="188" y="40"/>
      <point x="125" y="64"/>
      <point x="78" y="99" type="curve"/>
      <point x="65" y="41" type="line"/>
      <point x="108" y="11"/>
      <point x="173" y="-16"/>
      <point x="255" y="-16" type="curve" smooth="yes"/>
    </contour>
  </outline>
</glyph>
<glyph name="dv_Uu" format="1">
  <advance width="848"/>
  <unicode hex="090A"/>
  <outline>
    <contour>
      <point x="405" y="-16"/>
      <point x="483" y="67"/>
      <point x="483" y="179" type="curve" smooth="yes"/>
      <point x="483" y="202"/>
      <point x="479" y="231"/>
      <point x="468" y="257" type="curve"/>
      <point x="497" y="292"/>
      <point x="545" y="330"/>
      <point x="619" y="330" type="curve" smooth="yes"/>
      <point x="697" y="330"/>
      <point x="757" y="271"/>
      <point x="757" y="184" type="curve"/>
      <point x="757" y="96"/>
      <point x="697" y="37"/>
      <point x="615" y="37" type="curve"/>
      <point x="626" y="-20" type="line"/>
      <point x="733" y="-20"/>
      <point x="833" y="56"/>
      <point x="833" y="183" type="curve" smooth="yes"/>
      <point x="833" y="299"/>
      <point x="750" y="387"/>
      <point x="617" y="387" type="curve" smooth="yes"/>
      <point x="531" y="387"/>
      <point x="468" y="343"/>
      <point x="436" y="307" type="curve"/>
      <point x="415" y="329"/>
      <point x="386" y="342"/>
      <point x="345" y="353" type="curve"/>
      <point x="430" y="378"/>
      <point x="469" y="457"/>
      <point x="469" y="517" type="curve" smooth="yes"/>
      <point x="469" y="555"/>
      <point x="452" y="598"/>
      <point x="426" y="626" type="curve"/>
      <point x="860" y="626" type="line"/>
      <point x="845" y="680" type="line"/>
      <point x="-11" y="680" type="line"/>
      <point x="3" y="626" type="line"/>
      <point x="328" y="626" type="line"/>
      <point x="374" y="607"/>
      <point x="397" y="563"/>
      <point x="397" y="514" type="curve" smooth="yes"/>
      <point x="397" y="434"/>
      <point x="342" y="374"/>
      <point x="223" y="374" type="curve" smooth="yes"/>
      <point x="131" y="374" type="line"/>
      <point x="152" y="325" type="line"/>
      <point x="215" y="325" type="line" smooth="yes"/>
      <point x="367" y="325"/>
      <point x="412" y="270"/>
      <point x="412" y="177" type="curve" smooth="yes"/>
      <point x="412" y="87"/>
      <point x="345" y="40"/>
      <point x="258" y="40" type="curve" smooth="yes"/>
      <point x="188" y="40"/>
      <point x="125" y="64"/>
      <point x="78" y="99" type="curve"/>
      <point x="65" y="41" type="line"/>
      <point x="108" y="11"/>
      <point x="173" y="-16"/>
      <point x="255" y="-16" type="curve" smooth="yes"/>
    </contour>
  </outline>
</glyph>
<glyph name="dv_VocalicL" format="1">
  <advance width="872"/>
  <unicode hex="090C"/>
  <outline>
    <contour>
      <point x="643" y="-87"/>
      <point x="606" y="-51"/>
      <point x="606" y="0" type="curve" smooth="yes"/>
      <point x="606" y="51"/>
      <point x="643" y="87"/>
      <point x="702" y="87" type="curve" smooth="yes"/>
      <point x="750" y="87" type="line"/>
      <point x="750" y="626" type="line"/>
      <point x="883" y="626" type="line"/>
      <point x="868" y="680" type="line"/>
      <point x="-11" y="680" type="line"/>
      <point x="3" y="626" type="line"/>
      <point x="682" y="626" type="line"/>
      <point x="682" y="442" type="line"/>
      <point x="653" y="466"/>
      <point x="616" y="480"/>
      <point x="571" y="480" type="curve" smooth="yes"/>
      <point x="508" y="480"/>
      <point x="456" y="452"/>
      <point x="425" y="401" type="curve"/>
      <point x="393" y="451"/>
      <point x="338" y="480"/>
      <point x="271" y="480" type="curve" smooth="yes"/>
      <point x="170" y="480"/>
      <point x="87" y="400"/>
      <point x="87" y="313" type="curve" smooth="yes"/>
      <point x="87" y="197"/>
      <point x="146" y="100"/>
      <point x="206" y="-18" type="curve"/>
      <point x="262" y="1" type="line"/>
      <point x="197" y="134"/>
      <point x="155" y="200"/>
      <point x="155" y="306" type="curve" smooth="yes"/>
      <point x="155" y="365"/>
      <point x="206" y="420"/>
      <point x="271" y="420" type="curve" smooth="yes"/>
      <point x="355" y="420"/>
      <point x="392" y="360"/>
      <point x="392" y="271" type="curve" smooth="yes"/>
      <point x="392" y="176" type="line"/>
      <point x="461" y="156" type="line"/>
      <point x="461" y="271" type="line" smooth="yes"/>
      <point x="461" y="360"/>
      <point x="498" y="422"/>
      <point x="570" y="422" type="curve" smooth="yes"/>
      <point x="645" y="422"/>
      <point x="682" y="364"/>
      <point x="682" y="277" type="curve" smooth="yes"/>
      <point x="682" y="139" type="line"/>
      <point x="613" y="134"/>
      <point x="542" y="85"/>
      <point x="542" y="0" type="curve" smooth="yes"/>
      <point x="542" y="-87"/>
      <point x="617" y="-139"/>
      <point x="691" y="-139" type="curve" smooth="yes"/>
      <point x="719" y="-139"/>
      <point x="745" y="-134"/>
      <point x="769" y="-127" type="curve"/>
      <point x="759" y="-76" type="line"/>
      <point x="738" y="-83"/>
      <point x="724" y="-87"/>
      <point x="702" y="-87" type="curve" smooth="yes"/>
    </contour>
  </outline>
</glyph>
<glyph name="dv_Ca" format="1">
  <advance width="703"/>
  <unicode hex="091A"/>
  <outline>
    <contour>
      <point x="513" y="0" type="line"/>
      <point x="581" y="-16" type="line"/>
      <point x="581" y="626" type="line"/>
      <point x="714" y="626" type="line"/>
      <point x="700" y="680" type="line"/>
      <point x="-11" y="680" type="line"/>
      <point x="3" y="626" type="line"/>
      <point x="513" y="626" type="line"/>
      <point x="513" y="278" type="line" smooth="yes"/>
      <point x="513" y="205"/>
      <point x="450" y="162"/>
      <point x="367" y="162" type="curve" smooth="yes"/>
      <point x="279" y="162"/>
      <point x="221" y="211"/>
      <point x="221" y="292" type="curve" smooth="yes"/>
      <point x="221" y="371"/>
      <point x="273" y="421"/>
      <point x="384" y="422" type="curve" smooth="yes"/>
      <point x="437" y="422" type="line"/>
      <point x="419" y="481" type="line"/>
      <point x="41" y="481" type="line"/>
      <point x="55" y="422" type="line"/>
      <point x="209" y="422" type="line"/>
      <point x="175" y="391"/>
      <point x="153" y="348"/>
      <point x="153" y="292" type="curve" smooth="yes"/>
      <point x="153" y="169"/>
      <point x="245" y="105"/>
      <point x="367" y="105" type="curve" smooth="yes"/>
      <point x="428" y="105"/>
      <point x="477" y="120"/>
      <point x="513" y="151" type="curve"/>
    </contour>
  </outline>
</glyph>
<glyph name="dv_Ja" format="1">
  <advance width="747"/>
  <unicode hex="091C"/>
  <outline>
    <contour>
      <point x="557" y="402" type="line"/>
      <point x="557" y="0" type="line"/>
      <point x="624" y="-16" type="line"/>
      <point x="624" y="626" type="line"/>
      <point x="758" y="626" type="line"/>
      <point x="743" y="680" type="line"/>
      <point x="-11" y="680" type="line"/>
      <point x="3" y="626" type="line"/>
      <point x="557" y="626" type="line"/>
      <point x="557" y="461" type="line"/>
      <point x="129" y="461" type="line"/>
      <point x="147" y="402" type="line"/>
      <point x="200" y="402" type="line" smooth="yes"/>
      <point x="288" y="402"/>
      <point x="347" y="356"/>
      <point x="347" y="272" type="curve" smooth="yes"/>
      <point x="347" y="190"/>
      <point x="288" y="140"/>
      <point x="200" y="140" type="curve" smooth="yes"/>
      <point x="131" y="140"/>
      <point x="71" y="164"/>
      <point x="24" y="199" type="curve"/>
      <point x="11" y="141" type="line"/>
      <point x="54" y="111"/>
      <point x="119" y="85"/>
      <point x="200" y="85" type="curve" smooth="yes"/>
      <point x="323" y="85"/>
      <point x="416" y="149"/>
      <point x="416" y="272" type="curve" smooth="yes"/>
      <point x="416" y="326"/>
      <point x="397" y="370"/>
      <point x="366" y="402" type="curve"/>
    </contour>
  </outline>
</glyph>
<glyph name="dv_Ddha" format="1">
  <advance width="626"/>
  <unicode hex="0922"/>
  <outline>
    <contour>
      <point x="497" y="626" type="line"/>
      <point x="638" y="626" type="line"/>
      <point x="623" y="680" type="line"/>
      <point x="-11" y="680" type="line"/>
      <point x="3" y="626" type="line"/>
      <point x="428" y="626" type="line"/>
      <point x="428" y="498" type="line"/>
      <point x="372" y="498" type="line" smooth="yes"/>
      <point x="197" y="498"/>
      <point x="60" y="403"/>
      <point x="60" y="239" type="curve" smooth="yes"/>
      <point x="60" y="50"/>
      <point x="206" y="-18"/>
      <point x="360" y="-18" type="curve" smooth="yes"/>
      <point x="490" y="-18"/>
      <point x="582" y="58"/>
      <point x="582" y="154" type="curve" smooth="yes"/>
      <point x="582" y="235"/>
      <point x="525" y="288"/>
      <point x="435" y="288" type="curve" smooth="yes"/>
      <point x="346" y="288"/>
      <point x="290" y="223"/>
      <point x="290" y="145" type="curve" smooth="yes"/>
      <point x="290" y="105"/>
      <point x="313" y="66"/>
      <point x="344" y="41" type="curve"/>
      <point x="226" y="46"/>
      <point x="132" y="99"/>
      <point x="132" y="239" type="curve" smooth="yes"/>
      <point x="132" y="366"/>
      <point x="234" y="438"/>
      <point x="372" y="438" type="curve" smooth="yes"/>
      <point x="497" y="438" type="line"/>
    </contour>
    <contour>
      <point x="356" y="198"/>
      <point x="395" y="227"/>
      <point x="440" y="227" type="curve" smooth="yes"/>
      <point x="489" y="227"/>
      <point x="519" y="195"/>
      <point x="519" y="152" type="curve" smooth="yes"/>
      <point x="519" y="107"/>
      <point x="491" y="63"/>
      <point x="422" y="48" type="curve"/>
      <point x="380" y="67"/>
      <point x="356" y="103"/>
      <point x="356" y="145" type="curve" smooth="yes"/>
    </contour>
  </outline>
</glyph>
<glyph name="dv_Nna" format="1">
  <advance width="857"/>
  <unicode hex="0923"/>
  <outline>
    <contour>
      <point x="170" y="626" type="line"/>
      <point x="402" y="626" type="line"/>
      <point x="402" y="387" type="line" smooth="yes"/>
      <point x="402" y="297"/>
      <point x="370" y="236"/>
      <point x="288" y="236" type="curve" smooth="yes"/>
      <point x="202" y="236"/>
      <point x="170" y="296"/>
      <point x="170" y="387" type="curve"/>
    </contour>
    <contour>
      <point x="400" y="178"/>
      <point x="469" y="255"/>
      <point x="469" y="387" type="curve" smooth="yes"/>
      <point x="469" y="626" type="line"/>
      <point x="668" y="626" type="line"/>
      <point x="668" y="0" type="line"/>
      <point x="736" y="-16" type="line"/>
      <point x="736" y="626" type="line"/>
      <point x="869" y="626" type="line"/>
      <point x="854" y="680" type="line"/>
      <point x="-11" y="680" type="line"/>
      <point x="3" y="626" type="line"/>
      <point x="103" y="626" type="line"/>
      <point x="103" y="387" type="line" smooth="yes"/>
      <point x="103" y="255"/>
      <point x="173" y="178"/>
      <point x="286" y="178" type="curve" smooth="yes"/>
    </contour>
  </outline>
</glyph>
<glyph name="dv_Ta" format="1">
  <advance width="673"/>
  <unicode hex="0924"/>
  <outline>
    <contour>
      <point x="484" y="0" type="line"/>
      <point x="552" y="-16" type="line"/>
      <point x="552" y="626" type="line"/>
      <point x="685" y="626" type="line"/>
      <point x="670" y="680" type="line"/>
      <point x="-11" y="680" type="line"/>
      <point x="3" y="626" type="line"/>
      <point x="484" y="626" type="line"/>
      <point x="484" y="448" type="line"/>
      <point x="241" y="448" type="line" smooth="yes"/>
      <point x="134" y="448"/>
      <point x="71" y="381"/>
      <point x="71" y="292" type="curve" smooth="yes"/>
      <point x="71" y="197"/>
      <point x="156" y="78"/>
      <point x="223" y="-18" type="curve"/>
      <point x="280" y="2" type="line"/>
      <point x="226" y="86"/>
      <point x="140" y="206"/>
      <point x="140" y="288" type="curve" smooth="yes"/>
      <point x="140" y="358"/>
      <point x="185" y="393"/>
      <point x="276" y="393" type="curve" smooth="yes"/>
      <point x="484" y="393" type="line"/>
    </contour>
  </outline>
</glyph>
<glyph name="dv_Na" format="1">
  <advance width="596"/>
  <unicode hex="0928"/>
  <outline>
    <contour>
      <point x="405" y="330" type="line"/>
      <point x="405" y="0" type="line"/>
      <point x="474" y="-16" type="line"/>
      <point x="474" y="626" type="line"/>
      <point x="607" y="626" type="line"/>
      <point x="593" y="680" type="line"/>
      <point x="-11" y="680" type="line"/>
      <point x="3" y="626" type="line"/>
      <point x="405" y="626" type="line"/>
      <point x="405" y="381" type="line"/>
      <point x="71" y="381" type="line" smooth="yes"/>
      <point x="47" y="381"/>
      <point x="37" y="364"/>
      <point x="37" y="344" type="curve" smooth="yes"/>
      <point x="37" y="299"/>
      <point x="87" y="241"/>
      <point x="145" y="241" type="curve" smooth="yes"/>
      <point x="164" y="241"/>
      <point x="174" y="258"/>
      <point x="174" y="286" type="curve" smooth="yes"/>
      <point x="174" y="330" type="line"/>
    </contour>
  </outline>
</glyph>
<glyph name="dv_Nnna" format="1">
  <advance width="596"/>
  <unicode hex="0929"/>
  <outline>
    <contour>
      <point x="92" y="5"/>
      <point x="117" y="-19"/>
      <point x="145" y="-19" type="curve" smooth="yes"/>
      <point x="174" y="-19"/>
      <point x="197" y="5"/>
      <point x="197" y="33" type="curve" smooth="yes"/>
      <point x="197" y="62"/>
      <point x="174" y="85"/>
      <point x="145" y="85" type="curve" smooth="yes"/>
      <point x="117" y="85"/>
      <point x="92" y="62"/>
      <point x="92" y="33" type="curve" smooth="yes"/>
    </contour>
    <contour>
      <point x="405" y="330" type="line"/>
      <point x="405" y="0" type="line"/>
      <point x="474" y="-16" type="line"/>
      <point x="474" y="626" type="line"/>
      <point x="607" y="626" type="line"/>
      <point x="593" y="680" type="line"/>
      <point x="-11" y="680" type="line"/>
      <point x="3" y="626" type="line"/>
      <point x="405" y="626" type="line"/>
      <point x="405" y="381" type="line"/>
      <point x="71" y="381" type="line" smooth="yes"/>
      <point x="53" y="381"/>
      <point x="41" y="370"/>
      <point x="38" y="356" type="curve" smooth="yes"/>
      <point x="29" y="309"/>
      <point x="81" y="241"/>
      <point x="145" y="241" type="curve" smooth="yes"/>
      <point x="164" y="241"/>
      <point x="174" y="258"/>
      <point x="174" y="286" type="curve" smooth="yes"/>
      <point x="174" y="330" type="line"/>
    </contour>
  </outline>
</glyph>
<glyph name="dv_Sha" format="1">
  <advance width="771"/>
  <unicode hex="0936"/>
  <outline>
    <contour>
      <point x="136" y="262" type="line"/>
      <point x="316" y="-18" type="line"/>
      <point x="388" y="0" type="line"/>
      <point x="200" y="267" type="line"/>
      <point x="201" y="267" type="line"/>
      <point x="312" y="275"/>
      <point x="412" y="351"/>
      <point x="413" y="475" type="curve" smooth="yes"/>
      <point x="413" y="594"/>
      <point x="335" y="694"/>
      <point x="207" y="694" type="curve" smooth="yes"/>
      <point x="122" y="694"/>
      <point x="57" y="644"/>
      <point x="57" y="582" type="curve" smooth="yes"/>
      <point x="57" y="525"/>
      <point x="110" y="486"/>
      <point x="169" y="486" type="curve" smooth="yes"/>
      <point x="244" y="486"/>
      <point x="295" y="545"/>
      <point x="304" y="598" type="curve"/>
      <point x="335" y="562"/>
      <point x="346" y="514"/>
      <point x="346" y="477" type="curve" smooth="yes"/>
      <point x="346" y="374"/>
      <point x="267" y="321"/>
      <point x="192" y="321" type="curve"/>
      <point x="182" y="353" type="line" smooth="yes"/>
      <point x="174" y="376"/>
      <point x="162" y="394"/>
      <point x="144" y="394" type="curve" smooth="yes"/>
      <point x="97" y="394"/>
      <point x="59" y="330"/>
      <point x="67" y="288" type="curve" smooth="yes"/>
      <point x="70" y="273"/>
      <point x="82" y="262"/>
      <point x="97" y="262" type="curve" smooth="yes"/>
    </contour>
    <contour>
      <point x="581" y="0" type="line"/>
      <point x="650" y="-16" type="line"/>
      <point x="650" y="626" type="line"/>
      <point x="782" y="626" type="line"/>
      <point x="767" y="680" type="line"/>
      <point x="447" y="680" type="line"/>
      <point x="461" y="626" type="line"/>
      <point x="581" y="626" type="line"/>
    </contour>
    <contour>
      <point x="143" y="534"/>
      <point x="120" y="548"/>
      <point x="120" y="579" type="curve" smooth="yes"/>
      <point x="120" y="614"/>
      <point x="155" y="643"/>
      <point x="204" y="643" type="curve" smooth="yes"/>
      <point x="227" y="643"/>
      <point x="247" y="638"/>
      <point x="264" y="629" type="curve"/>
      <point x="258" y="584"/>
      <point x="226" y="534"/>
      <point x="172" y="534" type="curve" smooth="yes"/>
    </contour>
  </outline>
</glyph>
<glyph name="dv_MatraOe" format="1">
  <advance width="0"/>
  <unicode hex="093A"/>
  <outline>
    <contour>
      <point x="-36" y="881" type="line"/>
      <point x="-99" y="897" type="line"/>
      <point x="-99" y="680" type="line"/>
      <point x="-36" y="680" type="line"/>
    </contour>
  </outline>
</glyph>
<glyph name="dv_Avagraha" format="1">
  <advance width="530"/>
  <unicode hex="093D"/>
  <outline>
    <contour>
      <point x="194" y="37"/>
      <point x="116" y="57"/>
      <point x="69" y="91" type="curve"/>
      <point x="40" y="37" type="line"/>
      <point x="105" y="0"/>
      <point x="186" y="-19"/>
      <point x="244" y="-19" type="curve" smooth="yes"/>
      <point x="388" y="-19"/>
      <point x="465" y="58"/>
      <point x="465" y="159" type="curve" smooth="yes"/>
      <point x="465" y="268"/>
      <point x="349" y="401"/>
      <point x="267" y="492" type="curve" smooth="yes"/>
      <point x="142" y="630" type="line"/>
      <point x="470" y="630" type="line"/>
      <point x="458" y="680" type="line"/>
      <point x="73" y="680" type="line"/>
      <point x="73" y="630" type="line"/>
      <point x="232" y="450" type="line" smooth="yes"/>
      <point x="310" y="362"/>
      <point x="399" y="244"/>
      <point x="399" y="159" type="curve" smooth="yes"/>
      <point x="399" y="80"/>
      <point x="341" y="37"/>
      <point x="262" y="37" type="curve" smooth="yes"/>
    </contour>
  </outline>
</glyph>
<glyph name="dv_MatraAa" format="1">
  <advance width="314"/>
  <unicode hex="093E"/>
  <outline>
    <contour>
      <point x="123" y="0" type="line"/>
      <point x="191" y="-16" type="line"/>
      <point x="191" y="626" type="line"/>
      <point x="325" y="626" type="line"/>
      <point x="309" y="680" type="line"/>
      <point x="-11" y="680" type="line"/>
      <point x="3" y="626" type="line"/>
      <point x="123" y="626" type="line"/>
    </contour>
  </outline>
</glyph>
<glyph name="dv_MatraIi" format="1">
  <advance width="314"/>
  <unicode hex="0940"/>
  <outline>
    <contour>
      <point x="-134" y="731" type="line"/>
      <point x="-150" y="763"/>
      <point x="-159" y="785"/>
      <point x="-159" y="811" type="curve" smooth="yes"/>
      <point x="-159" y="848"/>
      <point x="-132" y="885"/>
      <point x="-77" y="885" type="curve" smooth="yes"/>
      <point x="37" y="885"/>
      <point x="95" y="738"/>
      <point x="112" y="680" type="curve"/>
      <point x="-16" y="680" type="line"/>
      <point x="-1" y="626" type="line"/>
      <point x="120" y="626" type="line"/>
      <point x="120" y="0" type="line"/>
      <point x="188" y="-16" type="line"/>
      <point x="188" y="626" type="line"/>
      <point x="321" y="626" type="line"/>
      <point x="305" y="680" type="line"/>
      <point x="181" y="680" type="line"/>
      <point x="150" y="780"/>
      <point x="68" y="941"/>
      <point x="-77" y="941" type="curve" smooth="yes"/>
      <point x="-158" y="941"/>
      <point x="-220" y="886"/>
      <point x="-220" y="812" type="curve" smooth="yes"/>
      <point x="-220" y="772"/>
      <point x="-202" y="738"/>
      <point x="-185" y="708" type="curve"/>
    </contour>
  </outline>
</glyph>
<glyph name="dv_MatraU" format="1">
  <advance width="0"/>
  <unicode hex="0941"/>
  <outline>
    <contour>
      <point x="-222" y="-244"/>
      <point x="-272" y="-191"/>
      <point x="-342" y="-109" type="curve"/>
      <point x="-383" y="-136" type="line"/>
      <point x="-319" y="-236"/>
      <point x="-233" y="-296"/>
      <point x="-141" y="-296" type="curve" smooth="yes"/>
      <point x="-56" y="-296"/>
      <point x="14" y="-244"/>
      <point x="14" y="-157" type="curve" smooth="yes"/>
      <point x="14" y="-70"/>
      <point x="-57" y="-18"/>
      <point x="-129" y="-18" type="curve" smooth="yes"/>
      <point x="-188" y="-18" type="line"/>
      <point x="-188" y="-71" type="line"/>
      <point x="-140" y="-71" type="line" smooth="yes"/>
      <point x="-83" y="-71"/>
      <point x="-45" y="-106"/>
      <point x="-45" y="-157" type="curve" smooth="yes"/>
      <point x="-45" y="-208"/>
      <point x="-78" y="-244"/>
      <point x="-140" y="-244" type="curve"/>
    </contour>
  </outline>
</glyph>
<glyph name="dv_MatraVocalicR" format="1">
  <advance width="0"/>
  <unicode hex="0943"/>
  <outline>
    <contour>
      <point x="-225" y="-245"/>
      <point x="-262" y="-208"/>
      <point x="-262" y="-157" type="curve" smooth="yes"/>
      <point x="-262" y="-106"/>
      <point x="-225" y="-71"/>
      <point x="-167" y="-71" type="curve"/>
      <point x="-119" y="-71" type="line"/>
      <point x="-119" y="-18" type="line"/>
      <point x="-178" y="-18" type="line"/>
      <point x="-248" y="-18"/>
      <point x="-321" y="-70"/>
      <point x="-321" y="-157" type="curve" smooth="yes"/>
      <point x="-321" y="-244"/>
      <point x="-253" y="-296"/>
      <point x="-178" y="-296" type="curve" smooth="yes"/>
      <point x="-151" y="-296"/>
      <point x="-123" y="-292"/>
      <point x="-100" y="-285" type="curve"/>
      <point x="-111" y="-234" type="line"/>
      <point x="-130" y="-240"/>
      <point x="-145" y="-245"/>
      <point x="-167" y="-245" type="curve" smooth="yes"/>
    </contour>
  </outline>
</glyph>
<glyph name="dv_MatraVocalicRr" format="1">
  <advance width="0"/>
  <unicode hex="0944"/>
  <outline>
    <contour>
      <point x="-265" y="-125"/>
      <point x="-241" y="-151"/>
      <point x="-225" y="-156" type="curve"/>
      <point x="-246" y="-166"/>
      <point x="-265" y="-188"/>
      <point x="-265" y="-214" type="curve" smooth="yes"/>
      <point x="-265" y="-273"/>
      <point x="-212" y="-293"/>
      <point x="-165" y="-293" type="curve" smooth="yes"/>
      <point x="-145" y="-293" type="line"/>
      <point x="-123" y="-250" type="line"/>
      <point x="-146" y="-250" type="line" smooth="yes"/>
      <point x="-188" y="-250"/>
      <point x="-207" y="-238"/>
      <point x="-207" y="-214" type="curve" smooth="yes"/>
      <point x="-207" y="-188"/>
      <point x="-180" y="-176"/>
      <point x="-146" y="-176" type="curve"/>
      <point x="-122" y="-136" type="line"/>
      <point x="-146" y="-136" type="line" smooth="yes"/>
      <point x="-172" y="-136"/>
      <point x="-202" y="-124"/>
      <point x="-202" y="-100" type="curve" smooth="yes"/>
      <point x="-202" y="-74"/>
      <point x="-172" y="-62"/>
      <point x="-146" y="-62" type="curve" smooth="yes"/>
      <point x="-123" y="-62" type="line"/>
      <point x="-124" y="-18" type="line"/>
      <point x="-165" y="-18" type="line" smooth="yes"/>
      <point x="-212" y="-18"/>
      <point x="-265" y="-39"/>
      <point x="-265" y="-100" type="curve" smooth="yes"/>
    </contour>
  </outline>
</glyph>
<glyph name="dv_MatraCandraO" format="1">
  <advance width="314"/>
  <unicode hex="0949"/>
  <outline>
    <contour>
      <point x="123" y="0" type="line"/>
      <point x="191" y="-16" type="line"/>
      <point x="191" y="626" type="line"/>
      <point x="325" y="626" type="line"/>
      <point x="309" y="680" type="line"/>
      <point x="-11" y="680" type="line"/>
      <point x="3" y="626" type="line"/>
      <point x="123" y="626" type="line"/>
    </contour>
    <contour>
      <point x="311" y="930" type="line"/>
      <point x="273" y="855"/>
      <point x="223" y="818"/>
      <point x="156" y="818" type="curve" smooth="yes"/>
      <point x="90" y="818"/>
      <point x="40" y="855"/>
      <point x="2" y="930" type="curve"/>
      <point x="-43" y="902" type="line"/>
      <point x="2" y="813"/>
      <point x="69" y="769"/>
      <point x="156" y="769" type="curve" smooth="yes"/>
      <point x="244" y="769"/>
      <point x="310" y="813"/>
      <point x="356" y="902" type="curve"/>
    </contour>
  </outline>
</glyph>
<glyph name="dv_MatraO" format="1">
  <advance width="314"/>
  <unicode hex="094B"/>
  <outline>
    <contour>
      <point x="-11" y="680" type="line"/>
      <point x="3" y="626" type="line"/>
      <point x="123" y="626" type="line"/>
      <point x="123" y="0" type="line"/>
      <point x="191" y="-16" type="line"/>
      <point x="191" y="626" type="line"/>
      <point x="325" y="626" type="line"/>
      <point x="309" y="680" type="line"/>
      <point x="188" y="680" type="line"/>
      <point x="-76" y="941" type="line"/>
      <point x="-133" y="904" type="line"/>
      <point x="111" y="680" type="line"/>
    </contour>
  </outline>
</glyph>
<glyph name="dv_PrishtaMatraE" format="1">
  <advance width="309"/>
  <unicode hex="094E"/>
  <outline>
    <contour>
      <point x="120" y="0" type="line"/>
      <point x="188" y="-16" type="line"/>
      <point x="188" y="626" type="line"/>
      <point x="321" y="626" type="line"/>
      <point x="305" y="680" type="line"/>
      <point x="120" y="680" type="line"/>
    </contour>
  </outline>
</glyph>
<glyph name="dv_Udatta" format="1">
  <advance width="0"/>
  <unicode hex="0951"/>
  <outline>
    <contour>
      <point x="72" y="759" type="line"/>
      <point x="84" y="939" type="line"/>
      <point x="17" y="939" type="line"/>
      <point x="28" y="759" type="line"/>
    </contour>
  </outline>
</glyph>
<glyph name="dv_MatraCandraLongE" format="1">
  <advance width="0"/>
  <unicode hex="0955"/>
  <outline>
    <contour>
      <point x="376" y="964" type="line"/>
      <point x="337" y="890"/>
      <point x="287" y="852"/>
      <point x="222" y="852" type="curve" smooth="yes"/>
      <point x="156" y="852"/>
      <point x="104" y="890"/>
      <point x="66" y="964" type="curve"/>
      <point x="21" y="936" type="line"/>
      <point x="66" y="847"/>
      <point x="134" y="804"/>
      <point x="222" y="804" type="curve" smooth="yes"/>
      <point x="309" y="804"/>
      <point x="375" y="847"/>
      <point x="421" y="936" type="curve"/>
    </contour>
    <contour>
      <point x="430" y="726" type="line"/>
      <point x="419" y="771" type="line"/>
      <point x="17" y="771" type="line"/>
      <point x="29" y="726" type="line"/>
    </contour>
  </outline>
</glyph>
<glyph name="dv_MatraUue" format="1">
  <advance width="0"/>
  <unicode hex="0957"/>
  <outline>
    <contour>
      <point x="418" y="-39" type="line"/>
      <point x="378" y="-113"/>
      <point x="304" y="-131"/>
      <point x="262" y="-131" type="curve" smooth="yes"/>
      <point x="223" y="-131"/>
      <point x="145" y="-113"/>
      <point x="107" y="-39" type="curve"/>
      <point x="62" y="-67" type="line"/>
      <point x="107" y="-155"/>
      <point x="202" y="-179"/>
      <point x="262" y="-179" type="curve" smooth="yes"/>
      <point x="321" y="-179"/>
      <point x="417" y="-155"/>
      <point x="463" y="-67" type="curve"/>
    </contour>
    <contour>
      <point x="457" y="-130" type="line"/>
      <point x="410" y="-200"/>
      <point x="326" y="-225"/>
      <point x="262" y="-225" type="curve" smooth="yes"/>
      <point x="197" y="-225"/>
      <point x="110" y="-195"/>
      <point x="62" y="-130" type="curve"/>
      <point x="17" y="-158" type="line"/>
      <point x="83" y="-243"/>
      <point x="174" y="-272"/>
      <point x="262" y="-272" type="curve" smooth="yes"/>
      <point x="350" y="-272"/>
      <point x="442" y="-247"/>
      <point x="502" y="-158" type="curve"/>
    </contour>
  </outline>
</glyph>
<glyph name="dv_Ghha" format="1">
  <advance width="610"/>
  <unicode hex="095A"/>
  <outline>
    <contour>
      <point x="118" y="5"/>
      <point x="140" y="-19"/>
      <point x="169" y="-19" type="curve" smooth="yes"/>
      <point x="198" y="-19"/>
      <point x="222" y="5"/>
      <point x="222" y="33" type="curve" smooth="yes"/>
      <point x="222" y="62"/>
      <point x="198" y="85"/>
      <point x="169" y="85" type="curve" smooth="yes"/>
      <point x="140" y="85"/>
      <point x="118" y="62"/>
      <point x="118" y="33" type="curve" smooth="yes"/>
    </contour>
    <contour>
      <point x="421" y="0" type="line"/>
      <point x="489" y="-16" type="line"/>
      <point x="489" y="626" type="line"/>
      <point x="622" y="626" type="line"/>
      <point x="607" y="680" type="line"/>
      <point x="-11" y="680" type="line"/>
      <point x="3" y="626" type="line"/>
      <point x="123" y="626" type="line"/>
      <point x="123" y="322" type="line"/>
      <point x="88" y="322" type="line" smooth="yes"/>
      <point x="72" y="322"/>
      <point x="59" y="310"/>
      <point x="57" y="296" type="curve" smooth="yes"/>
      <point x="48" y="250"/>
      <point x="99" y="182"/>
      <point x="164" y="182" type="curve" smooth="yes"/>
      <point x="183" y="182"/>
      <point x="192" y="199"/>
      <point x="192" y="225" type="curve" smooth="yes"/>
      <point x="192" y="626" type="line"/>
      <point x="421" y="626" type="line"/>
    </contour>
  </outline>
</glyph>
<glyph name="dv_Fa" format="1">
  <advance width="944"/>
  <unicode hex="095E"/>
  <outline>
    <contour>
      <point x="169" y="5"/>
      <point x="192" y="-19"/>
      <point x="221" y="-19" type="curve" smooth="yes"/>
      <point x="251" y="-19"/>
      <point x="273" y="5"/>
      <point x="273" y="33" type="curve" smooth="yes"/>
      <point x="273" y="62"/>
      <point x="251" y="85"/>
      <point x="221" y="85" type="curve" smooth="yes"/>
      <point x="192" y="85"/>
      <point x="169" y="62"/>
      <point x="169" y="33" type="curve" smooth="yes"/>
    </contour>
    <contour>
      <point x="824" y="202"/>
      <point x="764" y="141"/>
      <point x="682" y="141" type="curve"/>
      <point x="693" y="85" type="line"/>
      <point x="799" y="85"/>
      <point x="899" y="162"/>
      <point x="899" y="288" type="curve" smooth="yes"/>
      <point x="899" y="404"/>
      <point x="812" y="493"/>
      <point x="680" y="493" type="curve" smooth="yes"/>
      <point x="608" y="493"/>
      <point x="560" y="458"/>
      <point x="528" y="426" type="curve"/>
      <point x="528" y="626" type="line"/>
      <point x="956" y="626" type="line"/>
      <point x="941" y="680" type="line"/>
      <point x="-11" y="680" type="line"/>
      <point x="3" y="626" type="line"/>
      <point x="103" y="626" type="line"/>
      <point x="103" y="387" type="line" smooth="yes"/>
      <point x="103" y="255"/>
      <point x="185" y="178"/>
      <point x="310" y="178" type="curve" smooth="yes"/>
      <point x="372" y="178"/>
      <point x="424" y="198"/>
      <point x="459" y="231" type="curve"/>
      <point x="459" y="0" type="line"/>
      <point x="528" y="-16" type="line"/>
      <point x="528" y="337" type="line"/>
      <point x="552" y="374"/>
      <point x="594" y="435"/>
      <point x="682" y="435" type="curve" smooth="yes"/>
      <point x="759" y="435"/>
      <point x="823" y="376"/>
      <point x="824" y="289" type="curve"/>
    </contour>
    <contour>
      <point x="459" y="387" type="line" smooth="yes"/>
      <point x="459" y="292"/>
      <point x="408" y="236"/>
      <point x="316" y="236" type="curve" smooth="yes"/>
      <point x="218" y="236"/>
      <point x="170" y="294"/>
      <point x="170" y="387" type="curve" smooth="yes"/>
      <point x="170" y="626" type="line"/>
      <point x="459" y="626" type="line"/>
    </contour>
  </outline>
</glyph>
<glyph name="dv_Danda" format="1">
  <advance width="349"/>
  <unicode hex="0964"/>
  <outline>
    <contour>
      <point x="209" y="756" type="line"/>
      <point x="140" y="771" type="line"/>
      <point x="140" y="0" type="line"/>
      <point x="209" y="-16" type="line"/>
    </contour>
  </outline>
</glyph>
<glyph name="dv_DoubleDanda" format="1">
  <advance width="647"/>
  <unicode hex="0965"/>
  <outline>
    <contour>
      <point x="208" y="756" type="line"/>
      <point x="140" y="771" type="line"/>
      <point x="140" y="0" type="line"/>
      <point x="209" y="-16" type="line"/>
    </contour>
    <contour>
      <point x="507" y="756" type="line"/>
      <point x="438" y="771" type="line"/>
      <point x="438" y="0" type="line"/>
      <point x="507" y="-16" type="line"/>
    </contour>
  </outline>
</glyph>
<glyph name="dv_One" format="1">
  <advance width="381"/>
  <unicode hex="0967"/>
  <outline>
    <contour>
      <point x="58" y="312" type="line"/>
      <point x="57" y="286" type="line"/>
      <point x="251" y="-18" type="line"/>
      <point x="324" y="0" type="line"/>
      <point x="121" y="285" type="line"/>
      <point x="122" y="290" type="line"/>
      <point x="223" y="370" type="line"/>
      <point x="316" y="437"/>
      <point x="336" y="498"/>
      <point x="336" y="560" type="curve" smooth="yes"/>
      <point x="336" y="635"/>
      <point x="283" y="694"/>
      <point x="199" y="694" type="curve" smooth="yes"/>
      <point x="124" y="694"/>
      <point x="71" y="633"/>
      <point x="71" y="553" type="curve" smooth="yes"/>
      <point x="71" y="482"/>
      <point x="127" y="432"/>
      <point x="182" y="411" type="curve"/>
      <point x="176" y="406" type="line"/>
    </contour>
    <contour>
      <point x="139" y="598"/>
      <point x="161" y="631"/>
      <point x="203" y="631" type="curve" smooth="yes"/>
      <point x="244" y="631"/>
      <point x="272" y="594"/>
      <point x="272" y="547" type="curve" smooth="yes"/>
      <point x="272" y="509"/>
      <point x="252" y="476"/>
      <point x="223" y="448" type="curve"/>
      <point x="179" y="465"/>
      <point x="139" y="498"/>
      <point x="139" y="553" type="curve" smooth="yes"/>
    </contour>
  </outline>
</glyph>
<glyph name="dv_Two" format="1">
  <advance width="504"/>
  <unicode hex="0968"/>
  <outline>
    <contour>
      <point x="167" y="262" type="line"/>
      <point x="346" y="-18" type="line"/>
      <point x="413" y="0" type="line"/>
      <point x="230" y="267" type="line"/>
      <point x="344" y="275"/>
      <point x="448" y="354"/>
      <point x="448" y="481" type="curve" smooth="yes"/>
      <point x="448" y="574"/>
      <point x="394" y="694"/>
      <point x="238" y="694" type="curve" smooth="yes"/>
      <point x="139" y="694"/>
      <point x="71" y="636"/>
      <point x="69" y="636" type="curve"/>
      <point x="99" y="585" type="line"/>
      <point x="101" y="589"/>
      <point x="162" y="638"/>
      <point x="235" y="638" type="curve" smooth="yes"/>
      <point x="332" y="638"/>
      <point x="377" y="566"/>
      <point x="377" y="481" type="curve" smooth="yes"/>
      <point x="377" y="377"/>
      <point x="298" y="321"/>
      <point x="224" y="321" type="curve"/>
      <point x="213" y="353" type="line" smooth="yes"/>
      <point x="204" y="376"/>
      <point x="192" y="394"/>
      <point x="174" y="394" type="curve" smooth="yes"/>
      <point x="127" y="394"/>
      <point x="90" y="330"/>
      <point x="98" y="288" type="curve" smooth="yes"/>
      <point x="100" y="273"/>
      <point x="112" y="262"/>
      <point x="127" y="262" type="curve" smooth="yes"/>
    </contour>
  </outline>
</glyph>
<glyph name="dv_Seven" format="1">
  <advance width="664"/>
  <unicode hex="096D"/>
  <outline>
    <contour>
      <point x="449" y="291"/>
      <point x="515" y="325"/>
      <point x="548" y="378" type="curve"/>
      <point x="553" y="349"/>
      <point x="554" y="321"/>
      <point x="554" y="293" type="curve" smooth="yes"/>
      <point x="554" y="136"/>
      <point x="444" y="42"/>
      <point x="329" y="42" type="curve" smooth="yes"/>
      <point x="181" y="42"/>
      <point x="101" y="127"/>
      <point x="101" y="286" type="curve"/>
      <point x="33" y="286" type="line"/>
      <point x="33" y="96"/>
      <point x="134" y="-18"/>
      <point x="322" y="-18" type="curve" smooth="yes"/>
      <point x="498" y="-18"/>
      <point x="617" y="123"/>
      <point x="617" y="295" type="curve" smooth="yes"/>
      <point x="617" y="479"/>
      <point x="542" y="629"/>
      <point x="399" y="629" type="curve" smooth="yes"/>
      <point x="286" y="629"/>
      <point x="212" y="553"/>
      <point x="212" y="453" type="curve" smooth="yes"/>
      <point x="212" y="360"/>
      <point x="283" y="291"/>
      <point x="390" y="291" type="curve" smooth="yes"/>
    </contour>
    <contour>
      <point x="461" y="568"/>
      <point x="500" y="530"/>
      <point x="523" y="476" type="curve"/>
      <point x="526" y="405"/>
      <point x="463" y="347"/>
      <point x="399" y="347" type="curve" smooth="yes"/>
      <point x="326" y="347"/>
      <point x="280" y="395"/>
      <point x="280" y="459" type="curve" smooth="yes"/>
      <point x="280" y="524"/>
      <point x="333" y="568"/>
      <point x="400" y="568" type="curve" smooth="yes"/>
    </contour>
  </outline>
</glyph>
<glyph name="dv_Eight" format="1">
  <advance width="566"/>
  <unicode hex="096E"/>
  <outline>
    <contour>
      <point x="195" y="42"/>
      <point x="129" y="114"/>
      <point x="129" y="202" type="curve" smooth="yes"/>
      <point x="129" y="335"/>
      <point x="232" y="507"/>
      <point x="378" y="641" type="curve"/>
      <point x="338" y="694" type="line"/>
      <point x="194" y="559"/>
      <point x="57" y="361"/>
      <point x="57" y="197" type="curve" smooth="yes"/>
      <point x="57" y="83"/>
      <point x="134" y="-18"/>
      <point x="279" y="-18" type="curve" smooth="yes"/>
      <point x="469" y="-18"/>
      <point x="500" y="115"/>
      <point x="498" y="199" type="curve"/>
      <point x="437" y="218" type="line"/>
      <point x="437" y="59"/>
      <point x="349" y="42"/>
      <point x="288" y="42" type="curve" smooth="yes"/>
    </contour>
  </outline>
</glyph>
<glyph name="dv_Nine" format="1">
  <advance width="465"/>
  <unicode hex="096F"/>
  <outline>
    <contour>
      <point x="356" y="356"/>
      <point x="431" y="431"/>
      <point x="431" y="531" type="curve" smooth="yes"/>
      <point x="431" y="623"/>
      <point x="367" y="694"/>
      <point x="251" y="694" type="curve" smooth="yes"/>
      <point x="137" y="694"/>
      <point x="69" y="605"/>
      <point x="69" y="506" type="curve" smooth="yes"/>
      <point x="69" y="437"/>
      <point x="96" y="370"/>
      <point x="164" y="281" type="curve" smooth="yes"/>
      <point x="269" y="145"/>
      <point x="292" y="119"/>
      <point x="292" y="75" type="curve" smooth="yes"/>
      <point x="292" y="53"/>
      <point x="272" y="36"/>
      <point x="241" y="26" type="curve"/>
      <point x="251" y="-26" type="line"/>
      <point x="311" y="-15"/>
      <point x="351" y="21"/>
      <point x="351" y="77" type="curve" smooth="yes"/>
      <point x="351" y="143"/>
      <point x="314" y="176"/>
      <point x="230" y="293" type="curve"/>
      <point x="173" y="375" type="line"/>
      <point x="194" y="364"/>
      <point x="218" y="356"/>
      <point x="244" y="356" type="curve" smooth="yes"/>
    </contour>
    <contour>
      <point x="134" y="587"/>
      <point x="182" y="637"/>
      <point x="249" y="637" type="curve" smooth="yes"/>
      <point x="321" y="637"/>
      <point x="364" y="589"/>
      <point x="364" y="526" type="curve" smooth="yes"/>
      <point x="364" y="461"/>
      <point x="321" y="412"/>
      <point x="253" y="412" type="curve" smooth="yes"/>
      <point x="209" y="412"/>
      <point x="164" y="421"/>
      <point x="140" y="447" type="curve"/>
      <point x="135" y="467"/>
      <point x="134" y="491"/>
      <point x="134" y="521" type="curve" smooth="yes"/>
    </contour>
  </outline>
</glyph>
<glyph name="dv_Abbreviation" format="1">
  <advance width="569"/>
  <unicode hex="0970"/>
  <outline>
    <contour>
      <point x="513" y="412"/>
      <point x="412" y="514"/>
      <point x="286" y="514" type="curve" smooth="yes"/>
      <point x="156" y="514"/>
      <point x="57" y="415"/>
      <point x="57" y="287" type="curve" smooth="yes"/>
      <point x="57" y="153"/>
      <point x="156" y="51"/>
      <point x="285" y="51" type="curve" smooth="yes"/>
      <point x="412" y="51"/>
      <point x="513" y="153"/>
      <point x="513" y="281" type="curve" smooth="yes"/>
    </contour>
    <contour>
      <point x="450" y="184"/>
      <point x="378" y="107"/>
      <point x="285" y="107" type="curve" smooth="yes"/>
      <point x="191" y="107"/>
      <point x="120" y="184"/>
      <point x="120" y="283" type="curve" smooth="yes"/>
      <point x="120" y="381"/>
      <point x="191" y="457"/>
      <point x="285" y="457" type="curve" smooth="yes"/>
      <point x="378" y="457"/>
      <point x="450" y="381"/>
      <point x="450" y="283" type="curve" smooth="yes"/>
    </contour>
  </outline>
</glyph>
<glyph name="dv_Ue" format="1">
  <advance width="862"/>
  <unicode hex="0976"/>
  <outline>
    <contour>
      <point x="408" y="-16"/>
      <point x="486" y="67"/>
      <point x="486" y="179" type="curve" smooth="yes"/>
      <point x="486" y="245"/>
      <point x="453" y="292"/>
      <point x="397" y="324" type="curve"/>
      <point x="671" y="324" type="line"/>
      <point x="671" y="0" type="line"/>
      <point x="739" y="-16" type="line"/>
      <point x="739" y="626" type="line"/>
      <point x="874" y="626" type="line"/>
      <point x="858" y="680" type="line"/>
      <point x="536" y="680" type="line"/>
      <point x="552" y="626" type="line"/>
      <point x="671" y="626" type="line"/>
      <point x="671" y="375" type="line"/>
      <point x="383" y="375" type="line"/>
      <point x="435" y="405"/>
      <point x="471" y="457"/>
      <point x="471" y="517" type="curve" smooth="yes"/>
      <point x="471" y="610"/>
      <point x="419" y="694"/>
      <point x="274" y="694" type="curve" smooth="yes"/>
      <point x="197" y="694"/>
      <point x="124" y="664"/>
      <point x="81" y="629" type="curve"/>
      <point x="90" y="571" type="line"/>
      <point x="141" y="611"/>
      <point x="202" y="638"/>
      <point x="271" y="638" type="curve" smooth="yes"/>
      <point x="362" y="638"/>
      <point x="400" y="581"/>
      <point x="400" y="514" type="curve" smooth="yes"/>
      <point x="400" y="434"/>
      <point x="345" y="374"/>
      <point x="225" y="374" type="curve" smooth="yes"/>
      <point x="134" y="374" type="line"/>
      <point x="155" y="325" type="line"/>
      <point x="218" y="325" type="line" smooth="yes"/>
      <point x="370" y="325"/>
      <point x="415" y="270"/>
      <point x="415" y="177" type="curve" smooth="yes"/>
      <point x="415" y="87"/>
      <point x="349" y="39"/>
      <point x="260" y="40" type="curve" smooth="yes"/>
      <point x="190" y="41"/>
      <point x="127" y="64"/>
      <point x="81" y="99" type="curve"/>
      <point x="69" y="41" type="line"/>
      <point x="111" y="11"/>
      <point x="176" y="-16"/>
      <point x="257" y="-16" type="curve" smooth="yes"/>
    </contour>
    <contour>
      <point x="655" y="-39" type="line"/>
      <point x="616" y="-113"/>
      <point x="565" y="-151"/>
      <point x="501" y="-151" type="curve" smooth="yes"/>
      <point x="435" y="-151"/>
      <point x="383" y="-113"/>
      <point x="345" y="-39" type="curve"/>
      <point x="300" y="-67" type="line"/>
      <point x="345" y="-155"/>
      <point x="412" y="-198"/>
      <point x="501" y="-198" type="curve" smooth="yes"/>
      <point x="587" y="-198"/>
      <point x="654" y="-155"/>
      <point x="701" y="-67" type="curve"/>
    </contour>
  </outline>
</glyph>
<glyph name="dv_Zha" format="1">
  <advance width="747"/>
  <unicode hex="0979"/>
  <outline>
    <contour>
      <point x="557" y="402" type="line"/>
      <point x="557" y="0" type="line"/>
      <point x="624" y="-16" type="line"/>
      <point x="624" y="626" type="line"/>
      <point x="758" y="626" type="line"/>
      <point x="743" y="680" type="line"/>
      <point x="-11" y="680" type="line"/>
      <point x="3" y="626" type="line"/>
      <point x="557" y="626" type="line"/>
      <point x="557" y="461" type="line"/>
      <point x="129" y="461" type="line"/>
      <point x="147" y="402" type="line"/>
      <point x="200" y="402" type="line" smooth="yes"/>
      <point x="288" y="402"/>
      <point x="347" y="356"/>
      <point x="347" y="272" type="curve" smooth="yes"/>
      <point x="347" y="190"/>
      <point x="288" y="140"/>
      <point x="200" y="140" type="curve"/>
      <point x="131" y="141"/>
      <point x="71" y="164"/>
      <point x="24" y="199" type="curve"/>
      <point x="11" y="141" type="line"/>
      <point x="54" y="111"/>
      <point x="119" y="85"/>
      <point x="200" y="85" type="curve" smooth="yes"/>
      <point x="323" y="85"/>
      <point x="416" y="149"/>
      <point x="416" y="272" type="curve" smooth="yes"/>
      <point x="416" y="326"/>
      <point x="397" y="370"/>
      <point x="366" y="402" type="curve"/>
    </contour>
    <contour>
      <point x="245" y="-39"/>
      <point x="269" y="-62"/>
      <point x="297" y="-62" type="curve" smooth="yes"/>
      <point x="326" y="-62"/>
      <point x="349" y="-39"/>
      <point x="349" y="-10" type="curve" smooth="yes"/>
      <point x="349" y="19"/>
      <point x="326" y="42"/>
      <point x="297" y="42" type="curve" smooth="yes"/>
      <point x="269" y="42"/>
      <point x="245" y="19"/>
      <point x="245" y="-10" type="curve" smooth="yes"/>
    </contour>
    <contour>
      <point x="53" y="-39"/>
      <point x="76" y="-62"/>
      <point x="104" y="-62" type="curve" smooth="yes"/>
      <point x="134" y="-62"/>
      <point x="157" y="-39"/>
      <point x="157" y="-10" type="curve" smooth="yes"/>
      <point x="157" y="19"/>
      <point x="134" y="42"/>
      <point x="104" y="42" type="curve" smooth="yes"/>
      <point x="76" y="42"/>
      <point x="53" y="19"/>
      <point x="53" y="-10" type="curve" smooth="yes"/>
    </contour>
    <contour>
      <point x="149" y="-140"/>
      <point x="172" y="-162"/>
      <point x="201" y="-162" type="curve" smooth="yes"/>
      <point x="230" y="-162"/>
      <point x="253" y="-140"/>
      <point x="253" y="-111" type="curve" smooth="yes"/>
      <point x="253" y="-82"/>
      <point x="230" y="-58"/>
      <point x="201" y="-58" type="curve" smooth="yes"/>
      <point x="172" y="-58"/>
      <point x="149" y="-82"/>
      <point x="149" y="-111" type="curve" smooth="yes"/>
    </contour>
  </outline>
</glyph>
<glyph name="dv_GlottalStop" format="1">
  <advance width="549"/>
  <unicode hex="097D"/>
  <outline>
    <contour>
      <point x="493" y="603"/>
      <point x="423" y="694"/>
      <point x="278" y="694" type="curve" smooth="yes"/>
      <point x="190" y="694"/>
      <point x="125" y="666"/>
      <point x="69" y="629" type="curve"/>
      <point x="77" y="567" type="line"/>
      <point x="134" y="606"/>
      <point x="195" y="634"/>
      <point x="276" y="634" type="curve" smooth="yes"/>
      <point x="367" y="634"/>
      <point x="421" y="585"/>
      <point x="421" y="498" type="curve"/>
      <point x="421" y="409"/>
      <point x="337" y="332"/>
      <point x="223" y="297" type="curve"/>
      <point x="223" y="40" type="line"/>
      <point x="291" y="19" type="line"/>
      <point x="291" y="262" type="line"/>
      <point x="423" y="307"/>
      <point x="493" y="410"/>
      <point x="493" y="499" type="curve" smooth="yes"/>
    </contour>
  </outline>
</glyph>
